<svg id="图层_1" data-name="图层 1" xmlns="http://www.w3.org/2000/svg" viewBox="0 0 70 70"><defs><style>.cls-1{fill:#fff;}.cls-2{fill:#69b5e1;}</style></defs><title>background</title><rect class="cls-1" width="70" height="70"/><path class="cls-2" d="M19.19,47.89c-2.07-2.07-4.13-4.15-6.22-6.21A5.37,5.37,0,0,1,13,34c2.35-2.3,4.66-4.66,7-7,.67-.67,1.34-1.33,2-2a4.23,4.23,0,0,0-.43-6.24,4.34,4.34,0,0,1-1.78-2.62A3.12,3.12,0,0,1,21.21,13a3.06,3.06,0,0,1,3.5.25c1,.87,1.87,1.84,2.81,2.76.49.47,1,.9,1.52,1.38,1.66,1.65,3.33,3.3,5,5s3,3.12,4.48,4.64c1.71,1.72,3.46,3.39,5.18,5.09.82.82,1.63,1.65,2.42,2.5a5.28,5.28,0,0,1-.38,6.92c-.76.69-1.4,1.51-2.13,2.23-.55.57-1.18,1.06-1.73,1.62-1.81,1.84-3.6,3.7-5.41,5.54-1.16,1.18-2.32,2.37-3.52,3.51a5.47,5.47,0,0,1-7.58-.31c-2-2.11-4.09-4.12-6.14-6.17ZM16.8,37.48H41.69L29.24,25Z"/><path class="cls-2" d="M56.07,54.28a5.2,5.2,0,0,1-7,.33,5.42,5.42,0,0,1-1.25-6.89c1.06-1.91,2.14-3.8,3.2-5.7.31-.56.66-1,1.38-1a1.59,1.59,0,0,1,1.4,1q1.59,2.85,3.2,5.7A5.37,5.37,0,0,1,56.07,54.28Z"/></svg>