<svg id="图层_1" data-name="图层 1" xmlns="http://www.w3.org/2000/svg" viewBox="0 0 70 70"><defs><style>.cls-1{fill:#fff;}.cls-2{fill:#69b5e1;}</style></defs><title>border</title><rect class="cls-1" width="70" height="70"/><polygon class="cls-2" points="60.37 56.2 48.43 56.2 48.43 54.49 59.68 54.49 61.15 53.08 62.54 51.63 62.54 42.87 64.25 42.87 64.25 52.32 62.36 54.29 60.37 56.2"/><polygon class="cls-2" points="63.4 38.35 64.69 40.59 62.1 40.59 63.4 38.35"/><polygon class="cls-2" points="63.4 34.44 64.69 36.68 62.1 36.68 63.4 34.44"/><polygon class="cls-2" points="63.4 30.53 64.69 32.77 62.1 32.77 63.4 30.53"/><polygon class="cls-2" points="42.79 55.35 45.04 54.05 45.04 56.64 42.79 55.35"/><polygon class="cls-2" points="38.88 55.35 41.12 54.05 41.12 56.64 38.88 55.35"/><polygon class="cls-2" points="34.97 55.35 37.21 54.05 37.21 56.64 34.97 55.35"/><polygon class="cls-2" points="7.46 27.13 5.75 27.13 5.75 17.68 7.64 15.71 9.63 13.8 21.57 13.8 21.57 15.51 10.32 15.51 8.85 16.92 7.46 18.37 7.46 27.13"/><polygon class="cls-2" points="6.6 31.65 5.31 29.41 7.89 29.41 6.6 31.65"/><polygon class="cls-2" points="6.6 35.56 5.31 33.32 7.89 33.32 6.6 35.56"/><polygon class="cls-2" points="6.6 39.47 5.31 37.23 7.89 37.23 6.6 39.47"/><polygon class="cls-2" points="27.21 14.65 24.96 15.95 24.96 13.36 27.21 14.65"/><polygon class="cls-2" points="31.12 14.65 28.88 15.95 28.88 13.36 31.12 14.65"/><polygon class="cls-2" points="35.03 14.65 32.79 15.95 32.79 13.36 35.03 14.65"/></svg>