<svg id="图层_1" data-name="图层 1" xmlns="http://www.w3.org/2000/svg" viewBox="0 0 70 70"><defs><style>.cls-1{fill:#fff;}.cls-2{fill:#69b5e1;}</style></defs><title>decoration</title><rect class="cls-1" width="70" height="70"/><path class="cls-2" d="M38,16.14l4.11,8.33a3.28,3.28,0,0,0,2.49,1.81l9.19,1.34a3.31,3.31,0,0,1,1.83,5.64l-6.65,6.48A3.3,3.3,0,0,0,48,42.67l1.57,9.16a3.3,3.3,0,0,1-4.8,3.48L36.54,51a3.29,3.29,0,0,0-3.08,0l-8.22,4.32a3.3,3.3,0,0,1-4.8-3.48L22,42.67a3.3,3.3,0,0,0-1-2.93l-6.65-6.48a3.31,3.31,0,0,1,1.83-5.64l9.19-1.34a3.28,3.28,0,0,0,2.49-1.81L32,16.14A3.32,3.32,0,0,1,38,16.14Z"/></svg>