<svg id="图层_1" data-name="图层 1" xmlns="http://www.w3.org/2000/svg" xmlns:xlink="http://www.w3.org/1999/xlink" viewBox="0 0 70 70"><defs><style>.cls-1{fill:#69b5e1;}.cls-2{fill:#67e0e3;}.cls-3{opacity:0.48;}.cls-4{fill:url(#未命名的渐变_7);}.cls-5{fill:url(#未命名的渐变_7-2);}.cls-6{fill:url(#未命名的渐变_7-3);}.cls-7{fill:url(#未命名的渐变_7-4);}</style><linearGradient id="未命名的渐变_7" x1="28.62" y1="36.81" x2="36.6" y2="36.81" gradientUnits="userSpaceOnUse"><stop offset="0" stop-color="aqua"/><stop offset="0.12" stop-color="#02ffff" stop-opacity="0.98"/><stop offset="0.25" stop-color="#07fdfd" stop-opacity="0.94"/><stop offset="0.38" stop-color="#0ffbfb" stop-opacity="0.86"/><stop offset="0.5" stop-color="#1af7f8" stop-opacity="0.75"/><stop offset="0.63" stop-color="#29f3f4" stop-opacity="0.6"/><stop offset="0.76" stop-color="#3bedef" stop-opacity="0.43"/><stop offset="0.88" stop-color="#50e7e9" stop-opacity="0.22"/><stop offset="1" stop-color="#67e0e3" stop-opacity="0"/></linearGradient><linearGradient id="未命名的渐变_7-2" x1="42.33" y1="36.14" x2="42.33" y2="42.83" xlink:href="#未命名的渐变_7"/><linearGradient id="未命名的渐变_7-3" x1="27.71" y1="35.12" x2="30.52" y2="35.12" xlink:href="#未命名的渐变_7"/><linearGradient id="未命名的渐变_7-4" x1="41.63" y1="36.2" x2="44.03" y2="36.2" xlink:href="#未命名的渐变_7"/></defs><title>orbit</title><path class="cls-1" d="M55.86,47.45a.94.94,0,0,0-1,1c0,.71-.58,1.12-.58,1.75a.78.78,0,0,0,.41.8c.14.14,0,.6.36.71s.28-.22.42-.62.41-.67.41-1S56,49,55.82,48.79,56.29,47.6,55.86,47.45Z"/><path class="cls-1" d="M43.51,54.9c.14-.14.69.24.54.65a4.33,4.33,0,0,1-.47,1.16c-.18.19-.31.43-.46.58s-.91,0-1.14-.21-.7-.43-.41-.93c0,0,.5-1,.89-.88A1.33,1.33,0,0,0,43.51,54.9Z"/><path class="cls-1" d="M38,49.76c-.16-.17-.65-.16-1,0s-.55,0-.46-.35-.25-.63-.25-.78.44-.08.44-.46-.46-.8-.67-.59-.69-.39-.46-.63a1.55,1.55,0,0,1,1.08-.4c.44,0,1,0,.78-.14s0-.78-.27-.78-.23.57-.51.28-.54-.93-.87-.61a3.83,3.83,0,0,0-.89,2.49,4,4,0,0,0-.79.53c-.28.28-.66-.75-.92-1s-.72-.65-.8-.94-.63-.09-.63-.4.21-.8,0-.8-.6.75-.8.55-.27-1.2-.5-1.2-.62,1.27-1.14,1.55a1.61,1.61,0,0,0,.24.28A3,3,0,0,1,29.87,48c0,.54-.82,1.05-.82,1.05s-.82.41-.49,1.14.9.24,1.16.5.05.74.36,1.05.7,0,.86.22-.42,1-.25,1.16.38,0,.45.06l.75.76c.26.25.69-.31.88-.31s.3.63.65.5-.25-1,0-1.25a6.21,6.21,0,0,1,1.48-.48,3.64,3.64,0,0,0,2-.38,1.16,1.16,0,0,1,.69-.34.79.79,0,0,0,.34.18,3.06,3.06,0,0,1,.44-.72C38.57,50.86,38.19,49.92,38,49.76Z"/><path class="cls-1" d="M33,53.88c-.08-.13-.16-.25-.22-.25h0a1,1,0,0,0-.31.18h0a.73.73,0,0,1-.41.19h0a.26.26,0,0,1-.18-.07h0l-.75-.76h0l-.22,0h0a.33.33,0,0,1-.21-.08h0a.2.2,0,0,1,0-.11h0c0-.25.32-.77.31-1h0a.08.08,0,0,0,0-.06h0a.22.22,0,0,0-.17-.05h-.23a.6.6,0,0,1-.46-.18h0a.87.87,0,0,1-.21-.56h0a.75.75,0,0,0-.15-.49h0a.32.32,0,0,0-.24-.08h0l-.3,0h0a.63.63,0,0,1-.63-.45h0a.76.76,0,0,1-.08-.34h0A1.06,1.06,0,0,1,29,49h0a2.56,2.56,0,0,0,.41-.33h0a1.1,1.1,0,0,0,.4-.7h0a3,3,0,0,0-.32-1.64h0l-.23-.28h0a0,0,0,0,1,0,0h0s0,0,0,0h0c.37-.2.71-1,.93-1.33h0c.08-.13.14-.22.22-.22h0c.08,0,.13.08.17.18h0a2.3,2.3,0,0,1,.12.37h0a2,2,0,0,0,.23.66h0s0,0,.05,0h0c.08,0,.21-.14.34-.29h0c.13-.14.26-.3.39-.3h0a.13.13,0,0,1,.12.06h0a.22.22,0,0,1,0,.14h0c0,.18-.08.45-.08.63h0a.14.14,0,0,0,.07.13h0l.19,0h0c.15,0,.32,0,.37.22h0c.07.26.54.66.8.92h0a3.77,3.77,0,0,1,.39.62h0c.14.24.3.44.4.43h0a.1.1,0,0,0,.08,0h0a3.8,3.8,0,0,1,.77-.53h0a1.64,1.64,0,0,1,0-.23h0a4.23,4.23,0,0,1,.93-2.26h0a.29.29,0,0,1,.2-.1h0c.15,0,.26.13.37.28h0a3.07,3.07,0,0,0,.34.43h0a.15.15,0,0,0,.12.07h0c.05,0,.1-.07.15-.16h0c.05-.09.11-.2.22-.2h0a.15.15,0,0,1,.14.12h0a.71.71,0,0,1,0,.23h0a.82.82,0,0,0,.1.44h0a.1.1,0,0,1,0,.08h0a.08.08,0,0,1-.05.07h0l-.09,0h0a1.32,1.32,0,0,1-.3,0h-.4a1.49,1.49,0,0,0-1,.39h0a.2.2,0,0,0-.06.14h0a.59.59,0,0,0,.13.32h0a.38.38,0,0,0,.26.16h0a.11.11,0,0,0,.08,0h0a.21.21,0,0,1,.16-.07h0a.72.72,0,0,1,.56.68h0c0,.31-.27.35-.39.4h0s-.05,0-.05.06h0a.76.76,0,0,0,.13.26h0a.84.84,0,0,1,.14.41h0a.5.5,0,0,1,0,.12h0a.39.39,0,0,0,0,.14h0c0,.14.07.2.22.21h0a.64.64,0,0,0,.22,0h0a1.82,1.82,0,0,1,.56-.09h0a.75.75,0,0,1,.49.13h0l0,0,0,0a2.14,2.14,0,0,1,.38,1.09h0a.46.46,0,0,1-.1.31h0a3,3,0,0,0-.43.7h0s0,0,0,0h0a.92.92,0,0,1-.34-.18h0a.64.64,0,0,0-.21,0h0a1.15,1.15,0,0,0-.45.28h0a3.57,3.57,0,0,1-2,.39h0s-.33.07-.66.16h0a2.78,2.78,0,0,0-.8.31h0a.15.15,0,0,0,0,.12h0c0,.23.2.64.2.91h0a.24.24,0,0,1-.13.23h0l-.1,0h0c-.16,0-.26-.15-.34-.27Zm0,0c.08.13.17.25.29.25h0l.08,0h0c.06,0,.09-.08.09-.17h0c0-.24-.2-.66-.2-.91h0a.22.22,0,0,1,.05-.16h0a2.62,2.62,0,0,1,.84-.32h0c.34-.1.66-.17.66-.17h0a3.64,3.64,0,0,0,2-.37h0a1.16,1.16,0,0,1,.71-.35h0a.75.75,0,0,0,.31.16h0a3.1,3.1,0,0,1,.43-.7h0a.37.37,0,0,0,.08-.26h0a2.07,2.07,0,0,0-.37-1h0a.63.63,0,0,0-.44-.12h0a1.7,1.7,0,0,0-.54.09h0a1.2,1.2,0,0,1-.24,0h0a.3.3,0,0,1-.21-.07h0a.26.26,0,0,1-.07-.2h0a.89.89,0,0,1,0-.15h0a.52.52,0,0,0,0-.11h0a.79.79,0,0,0-.13-.38h0a.64.64,0,0,1-.14-.29h0a.12.12,0,0,1,.09-.11h0l.15-.06h0a.28.28,0,0,0,.2-.29h0a.68.68,0,0,0-.17-.42h0a.5.5,0,0,0-.33-.2h0a.21.21,0,0,0-.12.05h0a.15.15,0,0,1-.12,0h0a.57.57,0,0,1-.45-.54h0a.24.24,0,0,1,.07-.18h0a1.56,1.56,0,0,1,1.1-.41h.4a1,1,0,0,0,.37,0h0a.06.06,0,0,0,0,0h0c-.15-.15-.1-.53-.16-.69h0c0-.06,0-.08-.09-.08h0c-.07,0-.12.07-.17.17h0c-.05.08-.1.19-.2.19h0a.24.24,0,0,1-.17-.08h0a4.07,4.07,0,0,1-.34-.45h0c-.1-.14-.22-.25-.32-.25h0a.2.2,0,0,0-.15.08h0a4.12,4.12,0,0,0-.92,2.22h0a.88.88,0,0,0,0,.24h0a.05.05,0,0,1,0,0h0a2.92,2.92,0,0,0-.29.16h0a2.87,2.87,0,0,0-.49.37h0a.18.18,0,0,1-.12,0h0c-.16,0-.3-.22-.45-.46h0a3.85,3.85,0,0,0-.39-.61h0c-.25-.26-.72-.64-.81-.95h0c0-.09-.1-.13-.21-.15h0a1.07,1.07,0,0,1-.32-.08h0a.19.19,0,0,1-.1-.18h0c0-.2.08-.47.08-.63h0c0-.1,0-.14-.09-.14h0c-.08,0-.22.13-.34.28h0c-.14.15-.26.3-.39.31h0a.12.12,0,0,1-.09,0h0a1.15,1.15,0,0,1-.2-.48h0a4.07,4.07,0,0,0-.16-.57h0c0-.1-.09-.14-.12-.14h0s-.09.06-.16.19h0c-.08.12-.17.29-.26.46h0a2.62,2.62,0,0,1-.67.88h0a1.64,1.64,0,0,0,.21.25h0A3,3,0,0,1,29.9,48h0c0,.56-.83,1.07-.84,1.08h0a1.47,1.47,0,0,0-.27.2h0a.81.81,0,0,0-.28.58h0a.81.81,0,0,0,.07.32h0a.58.58,0,0,0,.58.41h0l.3,0h0a.37.37,0,0,1,.28.1h0a.79.79,0,0,1,.17.52h0a.86.86,0,0,0,.19.53h0a.57.57,0,0,0,.42.16h.23a.33.33,0,0,1,.22.06h0A.2.2,0,0,1,31,52h0c0,.25-.32.77-.31,1h0a.08.08,0,0,0,0,.07h0a.22.22,0,0,0,.16.06h0l.22,0h0a.1.1,0,0,1,.07,0h0c.06.07.49.5.75.75h0a.18.18,0,0,0,.14.06h0a.73.73,0,0,0,.38-.18h0a.91.91,0,0,1,.34-.19h0c.12,0,.18.15.27.27Z"/><path class="cls-1" d="M49.88,48.7c-.4,0-.63.44-.94.33a2.11,2.11,0,0,0-1.2.17c-.38.14.5-.44.06-.88s-1.69,0-1.9.17.19.69-.23.69-.34-.76-.63-.48-.11,1-.4,1.76-.26,1.08-.78,1.61c-.35.35-1,.92-1.35,1.38a2.49,2.49,0,0,0,.07.95.75.75,0,0,0,1,.19c.17-.17-.3-.3-.3-.6s.88-.67,1.83-.77a2,2,0,0,0,1.42-1.14c.67.17.67-.35.67-.35.78.79,1.65-.38,2.32-.49a2.42,2.42,0,0,0,1.35-.91h0C50.63,49.75,50.17,48.7,49.88,48.7Z"/><path class="cls-1" d="M42.56,54.41a1.36,1.36,0,0,1-.1-.58h0c0-.17,0-.31,0-.38h0c.38-.47,1-1,1.35-1.39h0c.51-.52.48-.84.77-1.6h0c.29-.73.11-1.45.41-1.77h0a.24.24,0,0,1,.13-.07h0a.17.17,0,0,1,.13.1h0a1.72,1.72,0,0,1,.09.19h0c.06.13.14.25.3.25h0c.16,0,.17,0,.18-.14h0c0-.09,0-.21,0-.33h0a.28.28,0,0,1,.07-.21h0a2.49,2.49,0,0,1,1.29-.38h0a.93.93,0,0,1,.65.21h0a.47.47,0,0,1,.13.31h0a1.21,1.21,0,0,1-.27.58h0l0,0h0a3.18,3.18,0,0,1,1-.21h0A.77.77,0,0,1,49,49h0l.1,0h0c.23,0,.46-.34.83-.35h0v.06c-.34,0-.55.34-.83.35h0l-.12,0h0a.62.62,0,0,0-.25,0h0a3.19,3.19,0,0,0-.93.21h0l-.09,0h0s0,0,0,0h0s0-.06,0-.1h0l.1-.14h0a.66.66,0,0,0,.13-.36h0a.37.37,0,0,0-.12-.27h0a.85.85,0,0,0-.6-.19h0a2.31,2.31,0,0,0-1.25.37h0a.21.21,0,0,0-.05.16h0a3.31,3.31,0,0,0,0,.33h0a.25.25,0,0,1,0,.15h0a.31.31,0,0,1-.19.05h0c-.29,0-.36-.33-.44-.47h0c0-.05,0-.07-.08-.07h0s0,0-.09.06h0c-.27.26-.1,1-.39,1.74h0c-.29.74-.26,1.09-.79,1.62h0c-.35.35-1,.92-1.34,1.38h0c0,.07,0,.2,0,.36h0a1.4,1.4,0,0,0,.09.56h0a.66.66,0,0,0,.59.27h0a.47.47,0,0,0,.33-.09h0a.09.09,0,0,0,0,0h0c0-.05-.07-.12-.16-.2h0a.46.46,0,0,1-.18-.33h0c0-.18.24-.34.58-.49h0a4.8,4.8,0,0,1,1.28-.31h0a1.67,1.67,0,0,0,1-.6h0a2.59,2.59,0,0,0,.35-.53h0s0,0,0,0h0l.24,0h0a.36.36,0,0,0,.34-.17h0a.41.41,0,0,0,0-.18h0a0,0,0,0,1,0,0h0a.78.78,0,0,0,.57.26h0c.59,0,1.21-.67,1.72-.76h0a2.54,2.54,0,0,0,1.34-.89h0a6.74,6.74,0,0,0-.72-1.42h0a.37.37,0,0,0-.22-.17h0v-.06a.45.45,0,0,1,.27.19h0a2.68,2.68,0,0,1,.27.43h0a8.9,8.9,0,0,1,.46,1h0a0,0,0,0,1,0,0h0a2.58,2.58,0,0,1-1.38.91h0c-.48.07-1.1.76-1.73.76h0a.85.85,0,0,1-.57-.23h0a.82.82,0,0,1,0,.14h0a.43.43,0,0,1-.39.2h0l-.23,0h0a2.09,2.09,0,0,1-1.44,1.14h0a4.74,4.74,0,0,0-1.26.31h0c-.34.14-.55.31-.54.43h0a.47.47,0,0,0,.16.29h0c.08.08.17.14.18.24h0a.16.16,0,0,1,0,.1h0a.55.55,0,0,1-.37.1h0a.69.69,0,0,1-.64-.31Z"/><path class="cls-1" d="M11.06,36.41c-.38-.38,1.59-.59,1.84-.35s.19-.42,1.22-.42,1.45.39,2.33,0a8.68,8.68,0,0,1,3.1-.49c.92,0,1.47-.25,1.91.19s1.23-.65,1.46-.88-.31-.77-.31-1.42S25.06,32,25.56,32a.73.73,0,0,0,.49-1.11c-.3-.3.42-.8-.34-1.15a3,3,0,0,0,1.76-1c.41-.69,1.26.64,2.06-1h0a2.17,2.17,0,0,0-.56-.82,3.94,3.94,0,0,1-.47-1,8.9,8.9,0,0,1-1.81-1.05c-1.22,0-1.76-.63-1.46-1.12a3.37,3.37,0,0,0,.24-1.51c-.56-.13-.82-1.48-.82-1.48a2.21,2.21,0,0,1-2-1.06c-.28.56-1.17.38-1.55.76S21,22,20.42,22s-1-.38-1.78-.38-1,1.74-1.4,2.1-1.18,0-1.68,0a.55.55,0,0,0-.47.9c.35.35.11.6,0,1.27s-.8.32-.69.95-.11.81-.75.81a2.15,2.15,0,0,0-1.45.61c-.25.25-.79.08-1.24.08s-.67.58-.67.58c-.67-.3-1.46,0-2.17,0s-.74.73-.86,1.23.12.45.4.73.28.21.15.8-.66.38-.66.73.66.34.66.34-.23.56.13.56.54.75.54,1,1.06.56,1.16,1,.67,1.2.56,1.7a.09.09,0,0,1,0,0C10.68,36.93,11.3,36.65,11.06,36.41Z"/><path class="cls-1" d="M10.16,37.13l0,0h0a.07.07,0,0,0,0-.05h0a.51.51,0,0,0,0-.13h0a6.31,6.31,0,0,0-.58-1.55h0c-.06-.27-.67-.51-1-.72h0c-.1-.07-.18-.15-.18-.24h0a1.85,1.85,0,0,0-.13-.61h0c-.09-.22-.22-.39-.38-.39h0a.21.21,0,0,1-.18-.08h0a.27.27,0,0,1,0-.18h0a1.05,1.05,0,0,1,.06-.3h0a1.37,1.37,0,0,1-.3,0h0c-.17-.05-.35-.14-.35-.33h0a.22.22,0,0,1,.1-.2h0a1,1,0,0,1,.2-.11h0a.55.55,0,0,0,.37-.43h0a3,3,0,0,0,.08-.45h0c0-.11-.06-.15-.23-.32h0c-.11-.11-.22-.17-.3-.24h0a.33.33,0,0,1-.15-.29h0a.74.74,0,0,1,0-.23h0a5,5,0,0,1,.21-.8h0A.69.69,0,0,1,8.1,29h0c.46,0,1-.13,1.47-.13h0a1.78,1.78,0,0,1,.68.12h0c.05-.12.27-.56.69-.57h0c.26,0,.54.06.79.06h0a.55.55,0,0,0,.43-.14h0a2.2,2.2,0,0,1,1.46-.61h0a1.08,1.08,0,0,0,.58-.11h0a.43.43,0,0,0,.17-.4h0a1.32,1.32,0,0,0,0-.27h0a.62.62,0,0,1,0-.13h0c0-.24.16-.31.32-.38h0A.55.55,0,0,0,15,26h0a8.3,8.3,0,0,0,.2-.87h0a.49.49,0,0,0-.17-.37h0a.51.51,0,0,1-.16-.36h0a.63.63,0,0,1,.65-.59h0c.33,0,.79.14,1.17.14h0a.66.66,0,0,0,.49-.16h0a5.81,5.81,0,0,0,.55-1.18h0c.21-.48.46-.93.87-.93h0c.76,0,1.22.38,1.78.38h0a.27.27,0,0,0,.27-.18h0a1.48,1.48,0,0,0,.11-.47h0a1.83,1.83,0,0,1,.27-1h0a1.67,1.67,0,0,1,.82-.32h0a.94.94,0,0,0,.72-.43h0l0,0h0l0,0h0a1.43,1.43,0,0,0,.1.16h0a1.8,1.8,0,0,0,.34.36h0a2.29,2.29,0,0,0,1.51.52h0l0,0h0a3.94,3.94,0,0,0,.2.69h0c.13.36.34.72.59.77h0s0,0,0,0h0v.24h0a2.89,2.89,0,0,1-.24,1.29h0a.42.42,0,0,0-.08.26h0a.65.65,0,0,0,.38.55h0a2.24,2.24,0,0,0,1.13.26h0s.32.23.7.48h0a4.47,4.47,0,0,0,1.1.57h0l0,0h0s.06.2.15.43h0a2.11,2.11,0,0,0,.31.57h0a2.05,2.05,0,0,1,.56.81h0s0,0,0,0h0s0,0,0,0h0c-.35.71-.72.87-1.06.87h0c-.25,0-.47-.09-.66-.08h0a.37.37,0,0,0-.35.2h0a2.92,2.92,0,0,1-1.69,1h0a.49.49,0,0,1,.3.43h0c0,.19-.1.37-.1.51h0a.24.24,0,0,0,.07.18h0a.46.46,0,0,1,.13.36h0c0,.36-.26.8-.64.8h0a7.69,7.69,0,0,0-2.55.63h0c-.23.13-.37.27-.37.41h0c0,.53.36,1,.36,1.27h0a.27.27,0,0,1-.06.17h0c-.19.18-.76,1-1.24,1h0a.36.36,0,0,1-.26-.11h0a.9.9,0,0,0-.7-.25h0c-.31,0-.7.07-1.19.07h0a8.66,8.66,0,0,0-3.09.49h0a1.83,1.83,0,0,1-.77.17h0c-.47,0-.89-.17-1.57-.17h0a1.27,1.27,0,0,0-.81.23h0c-.15.12-.2.24-.32.25h0s-.07,0-.12-.07h0a.94.94,0,0,0-.55-.09h0a3.12,3.12,0,0,0-1.17.2h0c-.08,0-.11.09-.11.12h0a.12.12,0,0,0,0,.08h0l0,0,0,0a.17.17,0,0,1-.06-.12h0a.21.21,0,0,1,.14-.17h0a1.54,1.54,0,0,1,.33-.12h0a4.14,4.14,0,0,1,.87-.09h0a1,1,0,0,1,.6.11h0a.11.11,0,0,0,.07.05h0s.13-.11.28-.23h0a1.28,1.28,0,0,1,.85-.25h0c.69,0,1.11.17,1.57.17h0a1.91,1.91,0,0,0,.75-.16h0a8.56,8.56,0,0,1,3.11-.5h0c.48,0,.87-.07,1.19-.07h0a.9.9,0,0,1,.74.27h0a.33.33,0,0,0,.22.09h0c.42,0,1-.78,1.19-1h0a.17.17,0,0,0,.05-.13h0c0-.25-.36-.72-.36-1.27h0c0-.18.17-.33.41-.47h0a4.86,4.86,0,0,1,.9-.34h0a8.75,8.75,0,0,1,1.67-.29h0A.56.56,0,0,0,26,31.7h0a.9.9,0,0,0,.16-.5h0a.43.43,0,0,0-.11-.32h0a.31.31,0,0,1-.09-.22h0c0-.17.1-.34.1-.51h0c0-.14-.06-.28-.34-.41h0s0,0,0,0h0a0,0,0,0,1,0,0h0a6.28,6.28,0,0,0,.7-.23h0a2.2,2.2,0,0,0,1-.79h0a.42.42,0,0,1,.4-.23h0c.2,0,.43.08.66.08h0c.31,0,.64-.14,1-.8h0a2,2,0,0,0-.55-.81h0a3.36,3.36,0,0,1-.47-1h0a8.63,8.63,0,0,1-1.8-1h0c-1,0-1.56-.42-1.56-.87h0a.67.67,0,0,1,.08-.3h0a2.68,2.68,0,0,0,.24-1.25h0v-.21h0c-.29-.09-.49-.46-.62-.81h0a6.55,6.55,0,0,1-.2-.67h0a2.28,2.28,0,0,1-1.95-1h0a1.1,1.1,0,0,1-.73.41h0a1.66,1.66,0,0,0-.8.3h0c-.27.26-.18,1-.36,1.42h0a.35.35,0,0,1-.33.22h0c-.59,0-1-.39-1.78-.38h0c-.35,0-.61.41-.82.89h0a5.85,5.85,0,0,1-.56,1.21h0a.74.74,0,0,1-.53.17h0c-.39,0-.85-.14-1.17-.14h0a.58.58,0,0,0-.59.53h0a.44.44,0,0,0,.14.32h0a.56.56,0,0,1,.19.41h0a8.68,8.68,0,0,1-.2.88h0a.62.62,0,0,1-.42.5h0c-.16.07-.28.11-.28.32h0a.49.49,0,0,0,0,.12h0a1.37,1.37,0,0,1,0,.28h0a.47.47,0,0,1-.2.45h0a1.09,1.09,0,0,1-.61.12h0a2.11,2.11,0,0,0-1.42.6h0a.64.64,0,0,1-.47.15h0c-.25,0-.54-.06-.79-.06h0a.6.6,0,0,0-.48.28h0a1.11,1.11,0,0,0-.16.28h0l0,0h0a1.63,1.63,0,0,0-.69-.13h0c-.48,0-1,.13-1.47.13h0a.61.61,0,0,0-.62.41h0a5.57,5.57,0,0,0-.22.8h0a.88.88,0,0,0,0,.21h0a.29.29,0,0,0,.13.25h0a3,3,0,0,1,.31.24h0c.16.16.24.22.24.36h0a2.06,2.06,0,0,1-.09.46h0c-.1.46-.45.47-.59.57h0a.2.2,0,0,0-.07.16h0c0,.15.14.23.31.27h0a1.5,1.5,0,0,0,.32,0h0a0,0,0,0,1,0,0h0a1.09,1.09,0,0,0-.07.32h0c0,.12,0,.2.17.2h0c.21,0,.35.21.44.43h0a2,2,0,0,1,.13.63h0c0,.05.06.12.16.19h0a3.62,3.62,0,0,0,.37.22H9c.27.16.57.32.63.53h0a6.68,6.68,0,0,1,.58,1.57h0a.59.59,0,0,1,0,.14h0a4.4,4.4,0,0,0,.58-.25h0c.18-.1.3-.21.29-.29h0a.12.12,0,0,0,0-.09h0l0,0,0,0a.18.18,0,0,1,.06.13h0c0,.13-.14.24-.32.34h0a5.36,5.36,0,0,1-.64.28h0Z"/><path class="cls-1" d="M30.36,28.57c.27.27-.35,1.66.4,1.66s1.06-.57,1.49-.4.69.54.17,1.06c0,0,.12,1,.69,1s.49.89.92.89-.39-.68.43-.75.89-.4,1.37-.4a.51.51,0,0,1,0,1c-.66.15-.54,1.06-.11,1.06A5.58,5.58,0,0,0,37.84,33c.26-.25.35-1.37.78-1.37s.27.9.63,1.26.87.87,1.23.52.53-1,.86-1.38.46-.69.78-.69,1.63-.17,1.63-.74,1-1.09,1.44-1.09.51-.64.51-1.21.66-.69.66.09A2,2,0,0,0,47.62,28c.41-.4.41,0,.41-.8s.78-.39,1.06-.11.69.8,1,.45.4-.81.82-.81,2.82-1.71,2.82-2.14-.7-.3-1.06-.66-.23-.86-.69-1.32,1-.44.83-1-.94-.86-.77-1.38,1.23-1,1.58-1.38-.06-.48.17-.71-.29-.81-.29-1.12.72-.81.46-1.06-.43-.61-.86-.61-.51.69-1.32.35-.4-1-1.09-1c-.29,0-.48,0-.61-.35a4.12,4.12,0,0,0-.43-1.1l-.08,0c-.35.1-.67,1.22-.5,1.05s.62.44.41.65a3.57,3.57,0,0,0-.75,1.44c-.15.62.3.82.21.9a9.41,9.41,0,0,0-.86.71c-.43.43-.86.09-1.25.09s-.36,1.61-.36,2.13.77.73,1.33.38,1.07-.48,1.34-.21.58,1-.07,1a3.47,3.47,0,0,0-1.81.64c-.24.25-.5,1.52-.79,1.81a1.9,1.9,0,0,1-1.15.38c-.25,0-.49.48-.49.48-.81-.52-1.59-.26-1.59.09s.3.47.3.75a6.37,6.37,0,0,1-2.15,2c-.36,0-2.15-.17-2.58-.17s-.19.26-.84.45-1.51.88-1.89.88-.67-.36-1.06-.51a7.67,7.67,0,0,0-1.95-.61H30.6l-.43,0A1.64,1.64,0,0,0,30.36,28.57Z"/><path class="cls-1" d="M35.34,33.2a.61.61,0,0,1,.49-.62h0a.47.47,0,0,0,.41-.47h0a.45.45,0,0,0-.41-.47h0a1.15,1.15,0,0,0-.55.17h0a2.14,2.14,0,0,1-.82.23h0c-.3,0-.35.12-.35.23h0c0,.13.08.28.08.39h0a.11.11,0,0,1,0,.09h0a.16.16,0,0,1-.12,0h0c-.24,0-.33-.25-.44-.47h0c-.1-.22-.21-.42-.48-.42h0a.68.68,0,0,1-.59-.51h0a2.11,2.11,0,0,1-.13-.5h0a0,0,0,0,1,0,0h0a.77.77,0,0,0,.28-.52h0c0-.22-.19-.39-.44-.49h0l-.16,0h0c-.33,0-.66.43-1.32.43h0a.37.37,0,0,1-.34-.17h0a.86.86,0,0,1-.08-.41h0c0-.27.06-.59.06-.82h0a.37.37,0,0,0-.07-.27h0l0,0,0,0a.46.46,0,0,1,.08.31h0c0,.24-.06.56-.06.82h0a.83.83,0,0,0,.07.38h0a.31.31,0,0,0,.29.14h0c.63,0,.94-.43,1.32-.43h0a.57.57,0,0,1,.18,0h0c.27.11.48.29.48.55h0a.83.83,0,0,1-.29.55h0a2,2,0,0,0,.13.47h0c.1.24.26.47.53.47h0c.31,0,.44.24.54.46h0c.1.22.19.43.38.43h0c.09,0,.1,0,.1-.07h0c0-.08-.08-.24-.09-.39h0c0-.14.11-.27.41-.29h0a1.92,1.92,0,0,0,.81-.23h0a1.13,1.13,0,0,1,.57-.17h0a.5.5,0,0,1,.47.53h0a.54.54,0,0,1-.46.53h0a.55.55,0,0,0-.44.56h0a.54.54,0,0,0,.09.31h0a.28.28,0,0,0,.23.13h0a5.42,5.42,0,0,0,2.1-.68h0a2.64,2.64,0,0,0,.32-.77h0c.11-.31.23-.61.48-.61h0a.26.26,0,0,1,.25.16h0a1.17,1.17,0,0,1,.12.36h0a1.57,1.57,0,0,0,.28.75h0c.27.27.64.63.93.63h0a.36.36,0,0,0,.26-.11h0c.35-.35.52-1,.86-1.38h0c.33-.32.45-.69.8-.7h0a3.43,3.43,0,0,0,.92-.16h0c.37-.11.69-.3.68-.55h0a1.05,1.05,0,0,1,.55-.79h0a2,2,0,0,1,.92-.34h0c.22,0,.34-.14.41-.36h0a3.35,3.35,0,0,0,.07-.81h0c0-.3.18-.49.37-.49h0c.18,0,.34.18.35.55h0A1.9,1.9,0,0,0,47.6,28h0c.21-.2.32-.22.35-.27h0s0-.14,0-.51h0a.54.54,0,0,1,.11-.37h0a.36.36,0,0,1,.27-.1h0a1.24,1.24,0,0,1,.73.33h0c.21.22.51.57.76.57h0a.31.31,0,0,0,.23-.11h0a2.91,2.91,0,0,0,.38-.53h0a.54.54,0,0,1,.46-.29h0A3.71,3.71,0,0,0,52,26.13h0a11.28,11.28,0,0,0,1.36-1.06h0c.23-.21.38-.41.37-.49h0c0-.19-.15-.26-.37-.33h0a1.45,1.45,0,0,1-.68-.31h0c-.37-.38-.24-.87-.69-1.32h0a.28.28,0,0,1-.1-.18h0c0-.09.08-.15.17-.21h0l.32-.15h0c.24-.1.46-.22.45-.39h0a.22.22,0,0,0,0-.08h0a1.77,1.77,0,0,0-.46-.63h0a1,1,0,0,1-.35-.61h0a.45.45,0,0,1,0-.16h0c.19-.54,1.25-1.05,1.59-1.39h0a.35.35,0,0,0,.13-.27h0a1.19,1.19,0,0,0,0-.26h0a.3.3,0,0,1,.09-.19h0a.17.17,0,0,0,.05-.13h0c0-.26-.34-.69-.35-1h0a1.05,1.05,0,0,1,.27-.49h0a1,1,0,0,0,.25-.44h0A.16.16,0,0,0,54,16h0c-.26-.27-.43-.6-.84-.6h0a.6.6,0,0,0-.4.22h0a.75.75,0,0,1-.51.22h0a1.06,1.06,0,0,1-.42-.1h0a1,1,0,0,1-.6-.63h0c-.09-.2-.14-.33-.48-.34h0a.54.54,0,0,1-.63-.37h0a5.49,5.49,0,0,0-.42-1.08h0l-.06,0h0c-.12,0-.26.23-.36.45h0a1.92,1.92,0,0,0-.17.54h0a.12.12,0,0,1,.09,0h0a.41.41,0,0,1,.28.2h0a.65.65,0,0,1,.14.36h0a.22.22,0,0,1-.06.17h0a3.61,3.61,0,0,0-.74,1.42h0a1.12,1.12,0,0,0,0,.24h0a.78.78,0,0,0,.12.42h0c.06.1.13.15.13.22h0a0,0,0,0,1,0,0h0a9.81,9.81,0,0,0-.86.71h0a.7.7,0,0,1-.51.23h0c-.27,0-.53-.13-.76-.13h0c-.06,0-.12.06-.17.19h0a2.05,2.05,0,0,0-.11.51h0a10.55,10.55,0,0,0,0,1.21h0v.19h0c0,.32.32.52.71.52h0a1.13,1.13,0,0,0,.58-.16h0a2,2,0,0,1,1-.36h0a.53.53,0,0,1,.4.15h0a1.14,1.14,0,0,1,.32.68h0a.3.3,0,0,1-.09.24h0a.47.47,0,0,1-.32.1h0a3.41,3.41,0,0,0-1.78.63h0a3,3,0,0,0-.38.88h0a3,3,0,0,1-.42.93h0a1.92,1.92,0,0,1-1.17.39h0c-.11,0-.23.11-.31.23h0a1.4,1.4,0,0,0-.15.23h0a0,0,0,0,1,0,0h0a1.72,1.72,0,0,0-.91-.29h0a.88.88,0,0,0-.47.11h0a.29.29,0,0,0-.17.24h0c0,.32.3.44.3.75h0a.74.74,0,0,1-.17.31h0c-.11.13-.25.29-.42.47h0a10.49,10.49,0,0,1-1.08,1h0a1.13,1.13,0,0,1-.51.28h0c-.37,0-2.15-.17-2.58-.17h0a.32.32,0,0,0-.32.14h0a.89.89,0,0,1-.51.31h0c-.64.19-1.49.88-1.9.88h0c-.41,0-.69-.37-1.07-.52h0a7.72,7.72,0,0,0-1.94-.6H30.6l-.4,0h0a1.61,1.61,0,0,0,.18.91h0l0,0,0,0a1.67,1.67,0,0,1-.19-1h0s0,0,0,0h0l.44,0h2.5a7.63,7.63,0,0,1,2,.61h0c.4.15.68.52,1,.51h0c.36,0,1.23-.68,1.88-.88h0a.9.9,0,0,0,.49-.29h0a.38.38,0,0,1,.36-.16h0c.43,0,2.22.17,2.58.17h0a2.55,2.55,0,0,0,.82-.55h0a11,11,0,0,0,1-1h0c.17-.2.28-.36.27-.41h0c0-.26-.29-.39-.3-.75h0c0-.24.3-.41.7-.41h0a1.79,1.79,0,0,1,.91.28h0a1.8,1.8,0,0,1,.14-.22h0a.51.51,0,0,1,.36-.25h0a1.89,1.89,0,0,0,1.13-.37h0a3.34,3.34,0,0,0,.4-.91h0a3.63,3.63,0,0,1,.39-.9h0a3.35,3.35,0,0,1,1.83-.65h0c.27,0,.35-.12.35-.28h0a1.12,1.12,0,0,0-.3-.64h0a.5.5,0,0,0-.36-.13h0a2,2,0,0,0-.94.35h0a1.15,1.15,0,0,1-.61.17h0c-.41,0-.77-.21-.77-.58h0v-.19h0a6.56,6.56,0,0,1,.16-1.74h0c0-.13.13-.23.23-.23h0c.25,0,.51.13.76.13h0a.63.63,0,0,0,.47-.21h0a7.85,7.85,0,0,1,.86-.71h0s-.05-.09-.12-.19h0a.78.78,0,0,1-.13-.45h0a1.21,1.21,0,0,1,0-.25h0A3.68,3.68,0,0,1,49.49,15h0a.16.16,0,0,0,0-.12h0a.58.58,0,0,0-.13-.33h0a.37.37,0,0,0-.23-.17h0l-.05,0h0a0,0,0,0,1,0,0h0a0,0,0,0,1,0,0h0s0,0,0,0h0a1.83,1.83,0,0,1,.17-.56h0c.11-.23.24-.44.4-.49h0l.08,0h0a4.14,4.14,0,0,1,.44,1.11h0c.13.3.29.33.58.33h0a.49.49,0,0,1,.53.38h0a1,1,0,0,0,.57.6h0a1,1,0,0,0,.4.09h0a.69.69,0,0,0,.47-.21h0a.7.7,0,0,1,.44-.23h0c.45,0,.63.36.88.61h0a.21.21,0,0,1,.07.16h0a.94.94,0,0,1-.27.48h0c-.12.17-.25.33-.25.45h0c0,.24.35.67.35,1h0a.24.24,0,0,1-.07.18h0a.23.23,0,0,0-.07.14h0c0,.07,0,.15,0,.26h0a.38.38,0,0,1-.15.31h0c-.35.35-1.41.87-1.57,1.37h0a.34.34,0,0,0,0,.14h0c0,.2.14.37.32.56h0a1.82,1.82,0,0,1,.47.66h0a.18.18,0,0,1,0,.1h0c0,.17-.15.28-.31.36h0c-.17.09-.37.16-.49.23h0c-.09,0-.14.11-.14.16h0a.23.23,0,0,0,.08.14h0c.47.47.35,1,.69,1.32h0a1.41,1.41,0,0,0,.66.29h0c.21.07.41.15.41.39h0c0,.13-.16.31-.39.54h0a9,9,0,0,1-.88.71h0a5.3,5.3,0,0,1-1.58.92h0a.46.46,0,0,0-.41.26h0a3.32,3.32,0,0,1-.39.55h0a.39.39,0,0,1-.27.12h0c-.3,0-.59-.38-.8-.58h0a1.11,1.11,0,0,0-.69-.32h0c-.19,0-.32.09-.32.41h0c0,.37,0,.47-.06.55h0a2.76,2.76,0,0,0-.35.27h0a2,2,0,0,1-1.25.39h0a0,0,0,0,1,0,0h0c0-.38-.15-.52-.29-.52h0c-.15,0-.31.15-.31.43h0a3.14,3.14,0,0,1-.07.83h0a.49.49,0,0,1-.47.41h0a1.7,1.7,0,0,0-.89.32h0a1,1,0,0,0-.52.74h0c0,.31-.35.5-.72.61h0a3.55,3.55,0,0,1-.94.16h0c-.29,0-.42.34-.76.68h0c-.32.32-.49,1-.86,1.38h0a.41.41,0,0,1-.3.13h0c-.34,0-.7-.38-1-.65h0c-.28-.28-.26-.86-.41-1.12h0a.21.21,0,0,0-.2-.13h0c-.19,0-.32.26-.43.57h0a2.79,2.79,0,0,1-.33.8h0a5.51,5.51,0,0,1-2.14.69h0c-.24,0-.38-.25-.38-.5Z"/><path class="cls-1" d="M52.46,40.81a2.19,2.19,0,0,0-.13.68c0,.35-.8,1.13-1,1.36s.3,1.47,1,1.47c0,0-.23.94,1.83.74a1.29,1.29,0,0,1,.52-.77c.54-.35.45-1.46.45-2a.9.9,0,0,0-.32-.72.62.62,0,0,1-.51-.46l.09-.06A2.6,2.6,0,0,0,52.46,40.81Z"/><path class="cls-1" d="M52.48,44.84a.56.56,0,0,1-.22-.44h0v-.06h0c-.59,0-1-.89-1-1.31h0a.32.32,0,0,1,.06-.2h0c.12-.11.38-.37.61-.63h0a1.67,1.67,0,0,0,.42-.71h0a2.21,2.21,0,0,1,.13-.69h0l0,0h0A2,2,0,0,1,53,40.7h0a2.79,2.79,0,0,1,1.34.37h0s0,0,0,0h0a0,0,0,0,1,0,0h0l-.08,0h0v0h0a.33.33,0,0,0,.07.13h0a.65.65,0,0,0,.41.26h0a.91.91,0,0,1,.33.74h0c0,.12,0,.28,0,.45h0c0,.54,0,1.26-.47,1.53h0a1.31,1.31,0,0,0-.52.76h0l0,0h0l-.55,0h0a1.7,1.7,0,0,1-1.1-.28Zm-.16-.54s0,0,0,0h0a.28.28,0,0,0,0,.08h0c0,.18.1.65,1.26.66h0l.52,0h0a1.31,1.31,0,0,1,.54-.77h0c.39-.24.44-.94.44-1.48h0c0-.17,0-.33,0-.45h0a.86.86,0,0,0-.26-.65h0l0,0h0a.66.66,0,0,1-.53-.49h0s0,0,0,0h0l0,0h0A2.73,2.73,0,0,0,53,40.76h0a2.08,2.08,0,0,0-.55.07h0a2,2,0,0,0-.13.66h0a1.54,1.54,0,0,1-.44.75h0c-.23.27-.49.52-.6.63h0a.23.23,0,0,0,0,.16h0a1.53,1.53,0,0,0,.31.78h0a.94.94,0,0,0,.72.48h0Z"/><path class="cls-1" d="M47.28,34.92a1.22,1.22,0,0,0,.52.11.26.26,0,0,1,.13.5c-.27.09-.85.24-.42.67s.52.61,1,.43.53-.28,1-.18a2.17,2.17,0,0,0,1.15.07c.38-.11.93-1,1.31-.9a4.45,4.45,0,0,0,.92-1.38c0-.26.48-.71,1.12-.71s.56-1.05.15-1.05-1,0-1.4,0-.55.32-.92.69-.65.13-1-.54-.91-.12-1.14-.33C48.89,32.63,47.16,33.72,47.28,34.92Z"/><path class="cls-1" d="M47.49,36.22a.45.45,0,0,1-.16-.3h0a.33.33,0,0,1,.22-.28h0c.13-.06.27-.1.37-.14h0a.2.2,0,0,0,.14-.19h0a.26.26,0,0,0-.26-.25h0a1.15,1.15,0,0,1-.53-.12h0v0h0v0a0,0,0,0,1,0,0h0s0-.08,0-.13h0c0-1.17,1.66-2.19,2.33-2.57h0a.33.33,0,0,0,.21.06h0l.37,0h0a.58.58,0,0,1,.56.3h0c.26.45.47.7.67.7h0a.46.46,0,0,0,.32-.17h0c.37-.37.58-.69.94-.7h0c.35,0,1,.05,1.4.05h0c.23,0,.35.27.35.53h0a.71.71,0,0,1-.11.4h0a.47.47,0,0,1-.39.18h0a1.34,1.34,0,0,0-.78.25h0a.65.65,0,0,0-.31.43h0a1.59,1.59,0,0,1-.33.64h0a6.1,6.1,0,0,1-.6.76h0a0,0,0,0,1,0,0H51.8c-.17,0-.39.19-.6.41h0a2.15,2.15,0,0,1-.62.5h0a1.26,1.26,0,0,1-.38.06h0a3.85,3.85,0,0,1-.78-.13h0a1.16,1.16,0,0,0-.28,0h0a1.62,1.62,0,0,0-.66.22h0a1,1,0,0,1-.3.07h0c-.24,0-.38-.2-.69-.51Zm-.06-1.28a1.19,1.19,0,0,0,.37.06h0a.31.31,0,0,1,.32.31h0a.27.27,0,0,1-.18.25h0a2.28,2.28,0,0,0-.36.13h0c-.11.06-.2.14-.19.23h0a.39.39,0,0,0,.14.26h0c.32.32.45.49.65.49h0a.67.67,0,0,0,.27-.07h0a1.8,1.8,0,0,1,.69-.22h0a1.17,1.17,0,0,1,.29,0h0a3.81,3.81,0,0,0,.77.12h0a1.12,1.12,0,0,0,.36,0h0a1.82,1.82,0,0,0,.59-.49h0c.22-.21.44-.42.65-.42h.07a7.78,7.78,0,0,0,.58-.75h0a1.5,1.5,0,0,0,.32-.6h0c0-.29.49-.74,1.15-.74h0c.31,0,.44-.26.44-.52h0a.7.7,0,0,0-.08-.33h0a.24.24,0,0,0-.21-.14h0c-.41,0-1,0-1.4,0h0c-.32,0-.52.3-.9.68h0a.5.5,0,0,1-.36.19h0c-.25,0-.45-.28-.72-.73h0a.52.52,0,0,0-.51-.27h0l-.37,0h0a.36.36,0,0,1-.23-.06h0c-.68.37-2.28,1.4-2.28,2.5h0s0,.07,0,.11h0a.4.4,0,0,0,.12,0Z"/><path class="cls-1" d="M62.27,18.9c.31-.31-.13-.6-.13-.6.34-.34-.22-.47-.69-.47s-.93.7-1.07.84-1.14.83-1.45-.35-3-1.42-3-1.42a36.41,36.41,0,0,0-2.54-3.68A1.62,1.62,0,0,0,52.29,13c-.46,0-1.12-.13-1.47-.13a4.21,4.21,0,0,0-1.14.4,4.12,4.12,0,0,1,.43,1.1c.13.32.32.35.61.35.69,0,.29.63,1.09,1s.89-.35,1.32-.35.6.35.86.61-.46.74-.46,1.06.52.89.29,1.12.17.37-.17.71-1.41.86-1.58,1.38.59.82.77,1.38a.24.24,0,0,1,0,.14.93.93,0,0,0,.69-.14c.34-.34.39,1.12,1,1.12s2-.54,2,0a.89.89,0,0,0,.84.91c.42,0,0-.42.42-.42s.35.69,1.11.69a5.53,5.53,0,0,1,1.92,0v0c.34-.53-.33-1.19-.51-1.37s.1-.5.1-.5c.66-.65,1.33.14,1.64-.17s-.19-1.06.15-1.59S62,19.21,62.27,18.9Z"/><path class="cls-1" d="M60.88,24a1.26,1.26,0,0,0-.58-.1h0c-.4,0-.88.08-1.32.08h0a.78.78,0,0,1-.7-.36h0c-.14-.17-.22-.33-.41-.33h0c-.1,0-.14,0-.15.05h0a.25.25,0,0,0,0,.13h0a.22.22,0,0,1,0,.16h0c0,.06-.1.08-.21.08h0a.92.92,0,0,1-.87-.94h0a.15.15,0,0,0-.09-.16h0a.48.48,0,0,0-.26,0h0c-.45,0-1.2.23-1.64.24h0c-.48,0-.63-.69-.79-1h0c-.06-.11-.11-.17-.15-.16h0s0,0-.08,0h0a.79.79,0,0,1-.55.16h-.19s0,0,0,0h0v0h0a.22.22,0,0,0,0-.08h0a1.77,1.77,0,0,0-.46-.63h0a1,1,0,0,1-.34-.61h0a.44.44,0,0,1,0-.16h0c.19-.54,1.25-1.05,1.59-1.39h0a.35.35,0,0,0,.13-.27h0a1.19,1.19,0,0,0,0-.26h0a.3.3,0,0,1,.09-.19h0a.17.17,0,0,0,.05-.13h0c0-.26-.34-.69-.35-1h0a1.05,1.05,0,0,1,.27-.49h0a1,1,0,0,0,.25-.44h0A.13.13,0,0,0,54,16h0c-.26-.27-.43-.6-.84-.6h0a.6.6,0,0,0-.4.22h0a.75.75,0,0,1-.51.22h0a1.06,1.06,0,0,1-.42-.1h0a1,1,0,0,1-.6-.63h0c-.09-.2-.14-.33-.48-.34h0a.54.54,0,0,1-.63-.37h0a4.3,4.3,0,0,0-.44-1.09h0v0h0a0,0,0,0,1,0,0h0a4.51,4.51,0,0,1,1.15-.4h0c.35,0,1,.13,1.47.13h.1a1.48,1.48,0,0,1,1.06.24h0A35.15,35.15,0,0,1,56,16.87h0a8.19,8.19,0,0,1,1.37.27h0c.7.21,1.45.56,1.61,1.17h0c.14.52.39.66.64.66h0a1.25,1.25,0,0,0,.75-.33h0c.14-.13.6-.84,1.1-.84h0a2.38,2.38,0,0,1,.55.06h0c.15.05.27.12.28.25h0a.27.27,0,0,1-.1.19h0a.49.49,0,0,1,.23.37h0a.33.33,0,0,1-.12.25h0a.25.25,0,0,0-.08.19h0c0,.21.21.49.21.81h0a.69.69,0,0,1-.1.35h0a.82.82,0,0,0-.13.47h0c0,.27.09.56.09.79h0a.46.46,0,0,1-.12.34h0a.27.27,0,0,1-.22.08h0c-.23,0-.52-.17-.83-.17h0a.78.78,0,0,0-.58.26h0a.56.56,0,0,0-.08.11h0a.45.45,0,0,0-.08.22h0a.15.15,0,0,0,.05.12h0A1.92,1.92,0,0,1,61,23.57h0a.63.63,0,0,1-.1.34h0l0,0h0Zm0-.07h0a.61.61,0,0,0,.09-.31h0a1.8,1.8,0,0,0-.6-1h0a.23.23,0,0,1-.07-.17h0a.64.64,0,0,1,.17-.37h0a.87.87,0,0,1,.63-.28h0c.33,0,.63.18.83.17h0a.23.23,0,0,0,.18-.06h0a.44.44,0,0,0,.1-.3h0c0-.22-.09-.51-.09-.79h0a.91.91,0,0,1,.13-.5h0a.52.52,0,0,0,.1-.32h0c0-.29-.2-.57-.21-.81h0a.32.32,0,0,1,.1-.23h0a.33.33,0,0,0,.1-.21h0a.38.38,0,0,0-.11-.25h0a.89.89,0,0,0-.12-.1h0v0h0s0,0,0,0h0a.28.28,0,0,0,.1-.17h0c0-.08-.09-.15-.24-.19h0a2.2,2.2,0,0,0-.53-.06h0c-.44,0-.91.68-1.05.83h0a1.39,1.39,0,0,1-.8.34h0c-.28,0-.56-.17-.7-.7h0c-.14-.57-.87-.93-1.57-1.13h0A7.81,7.81,0,0,0,56,16.93h0a35.49,35.49,0,0,0-2.53-3.68h0a1.44,1.44,0,0,0-1-.22h-.1c-.46,0-1.13-.13-1.47-.13h0a3.85,3.85,0,0,0-1.09.38h0a5.53,5.53,0,0,1,.41,1.08h0c.13.3.29.33.58.33h0a.49.49,0,0,1,.53.38h0a1,1,0,0,0,.57.6h0a1,1,0,0,0,.4.09h0a.69.69,0,0,0,.47-.21h0a.7.7,0,0,1,.44-.23h0c.45,0,.63.36.88.61h0a.21.21,0,0,1,.07.16h0a.94.94,0,0,1-.27.48h0c-.12.17-.25.33-.25.45h0c0,.24.35.67.35,1h0a.24.24,0,0,1-.07.18h0a.23.23,0,0,0-.07.14h0c0,.07,0,.15,0,.26h0a.41.41,0,0,1-.15.31h0c-.35.35-1.41.87-1.57,1.37h0a.34.34,0,0,0,0,.14h0c0,.2.14.37.32.56h0a1.82,1.82,0,0,1,.47.66h0a.18.18,0,0,1,0,.1h0v0H53a.76.76,0,0,0,.51-.14h0a.17.17,0,0,1,.12-.06h0c.09,0,.14.08.2.19h0l.17.41h0c.13.29.3.57.57.57h0c.42,0,1.18-.24,1.64-.24h0a.6.6,0,0,1,.29.05h0a.23.23,0,0,1,.12.22h0a.86.86,0,0,0,.81.88h0c.11,0,.14,0,.16-.05h0a.24.24,0,0,0,0-.13h0a.24.24,0,0,1,0-.16h0a.22.22,0,0,1,.2-.08h0c.24,0,.33.19.45.36h0a.74.74,0,0,0,.66.33h0c.43,0,.91-.08,1.32-.08h0a1.47,1.47,0,0,1,.58.09Z"/><path class="cls-1" d="M59,23.9c-.76,0-.68-.69-1.11-.69s0,.42-.42.42a.89.89,0,0,1-.84-.91c0-.54-1.37,0-2,0s-.7-1.46-1-1.12a.93.93,0,0,1-.69.14c-.1.42-1.26.45-.85.86s.33,1,.69,1.32,1.06.23,1.06.66a.34.34,0,0,1-.08.18,1.47,1.47,0,0,0,.68.21c.44,0,1.25,0,1.6.31a2.55,2.55,0,0,1,.63,1.15,4.25,4.25,0,0,1,.1,1.12c0,.3-.46.66-.17,1.08.54-.31,1.22-1.58,1.32-1.68s.43.3.77.3.52-.52.32-.52-.32-.64.2-.79.57-.77.75-1,.32.47.6.47.33-.47.33-.47c.72-.73-.19-.57.09-1.07A5.53,5.53,0,0,0,59,23.9Z"/><path class="cls-1" d="M56.5,28.65a.51.51,0,0,1-.11-.31h0c0-.32.27-.58.27-.79h0a4.25,4.25,0,0,0-.1-1.12h0a2.61,2.61,0,0,0-.62-1.13h0a1.89,1.89,0,0,0-1.26-.3h-.32a1.48,1.48,0,0,1-.69-.21h0a0,0,0,0,1,0,0h0s0,0,0,0h0a.39.39,0,0,0,.07-.17h0c0-.19-.15-.26-.37-.33h0a1.45,1.45,0,0,1-.68-.31h0c-.37-.38-.24-.87-.69-1.32h0a.28.28,0,0,1-.1-.18h0c0-.17.24-.25.46-.35h0c.22-.09.45-.2.48-.35h0a0,0,0,0,1,0,0H53a.76.76,0,0,0,.51-.14h0a.17.17,0,0,1,.12-.06h0c.09,0,.14.08.2.19h0c.06.12.11.26.17.41h0c.13.29.3.57.57.57h0c.42,0,1.18-.24,1.64-.24h0a.6.6,0,0,1,.29.05h0a.23.23,0,0,1,.12.22h0a.86.86,0,0,0,.81.88h0c.1,0,.14,0,.16-.05h0a.24.24,0,0,0,0-.13h0a.24.24,0,0,1,0-.16h0a.22.22,0,0,1,.2-.08h0c.24,0,.33.19.45.36h0a.74.74,0,0,0,.66.33h0v.06a.78.78,0,0,1-.7-.36h0c-.14-.17-.22-.33-.41-.33h0c-.1,0-.14,0-.15.05h0a.25.25,0,0,0,0,.13h0a.22.22,0,0,1,0,.16h0c0,.06-.1.08-.21.08h0a.92.92,0,0,1-.87-.94h0a.15.15,0,0,0-.09-.16h0a.48.48,0,0,0-.26,0h0c-.45,0-1.2.23-1.64.24h0c-.48,0-.63-.69-.79-1h0c-.06-.11-.11-.17-.15-.16h0s0,0-.08,0h0a.79.79,0,0,1-.55.16h-.14c-.06.19-.29.29-.51.38h0c-.22.09-.42.19-.42.29h0a.23.23,0,0,0,.08.14h0c.47.47.35,1,.69,1.32h0a1.41,1.41,0,0,0,.66.29h0c.21.07.41.15.41.39h0a.32.32,0,0,1-.06.17h0a1.33,1.33,0,0,0,.63.19h.32a1.94,1.94,0,0,1,1.3.32h0a2.66,2.66,0,0,1,.64,1.16h0a4.36,4.36,0,0,1,.1,1.13h0c0,.25-.27.51-.27.79h0a.43.43,0,0,0,.08.25h0a3.26,3.26,0,0,0,.79-.9h0c.25-.37.44-.7.5-.76h0a.07.07,0,0,1,.06,0h0c.09,0,.19.09.32.16h0a.84.84,0,0,0,.41.16h0a.35.35,0,0,0,.27-.14h0a.35.35,0,0,0,.1-.24h0c0-.06,0-.08,0-.08h0c-.12,0-.19-.17-.2-.34h0a.52.52,0,0,1,.39-.51h0c.49-.14.54-.74.74-.94h0a.12.12,0,0,1,.09,0h0c.11,0,.17.14.26.26h0c.08.13.17.25.27.24h0a.28.28,0,0,0,.24-.21h0a.87.87,0,0,0,.06-.23h0v0h0c.22-.22.28-.35.28-.43h0a.29.29,0,0,0-.11-.2h0a.32.32,0,0,1-.14-.24h0a.34.34,0,0,1,0-.16h0a1.32,1.32,0,0,0-.55-.09h0c-.4,0-.88.08-1.32.08h0v-.06c.43,0,.91-.08,1.32-.08h0a1.31,1.31,0,0,1,.61.11h0s0,0,0,0h0s0,0,0,0h0a.32.32,0,0,0-.05.16h0a.27.27,0,0,0,.12.2h0a.34.34,0,0,1,.13.24h0c0,.11-.07.25-.29.46h0a.72.72,0,0,1,0,.24h0a.34.34,0,0,1-.3.25h0c-.14,0-.24-.14-.32-.26h0C60.07,25.1,60,25,60,25h0a.06.06,0,0,0-.05,0h0c-.17.16-.23.8-.76,1h0a.46.46,0,0,0-.35.45h0a.39.39,0,0,0,.05.2h0c0,.06.07.08.09.08h0a.13.13,0,0,1,.09,0h0a.16.16,0,0,1,0,.1h0a.47.47,0,0,1-.43.44h0a.87.87,0,0,1-.44-.16h0a.86.86,0,0,0-.29-.16h0s-.24.39-.49.76h0a3.34,3.34,0,0,1-.83.93h0s0,0,0,0Z"/><path class="cls-1" d="M56.69,27.55a4.25,4.25,0,0,0-.1-1.12A2.55,2.55,0,0,0,56,25.28c-.35-.36-1.16-.31-1.6-.31a1.47,1.47,0,0,1-.68-.21,8.27,8.27,0,0,1-2.74,2c-.42,0-.48.47-.82.81s-.42.11-.63-.06a.86.86,0,0,0,.24.75c.43.43.67.4.86.77a6,6,0,0,1,.56.9.82.82,0,0,1,.53-.21c.33,0,.33-.95.63-.95s.45-.45.86-.23.11.6.11.92a1.44,1.44,0,0,1-.54.88c-.25.25.77.49.35.51a.46.46,0,0,0-.44.44c.36.18.77-.39,1.18-.78a9.87,9.87,0,0,1,.87-.68c.22-.23.79-.15,1-.15s.12-.82.68-.95a.47.47,0,0,0,.15-.06C56.23,28.21,56.69,27.85,56.69,27.55Z"/><path class="cls-1" d="M52.64,31.28s0,0,0,0h0a.72.72,0,0,1,.07-.23h0a.46.46,0,0,1,.4-.24h.06l0,0h0l-.17-.09h0c-.12-.07-.26-.15-.26-.26h0a.16.16,0,0,1,0-.11h0a1.45,1.45,0,0,0,.53-.86h0c0-.2.1-.42.1-.59h0a.33.33,0,0,0-.2-.31h0a.38.38,0,0,0-.19-.05h0c-.24,0-.38.29-.65.29h0c-.12,0-.2.22-.28.46h0c-.08.23-.15.48-.35.49h0a.83.83,0,0,0-.51.2h0s0,0,0,0h0s0,0,0,0h0a6.21,6.21,0,0,0-.56-.9h0c-.18-.35-.42-.32-.85-.76h0a.82.82,0,0,1-.26-.62h0a.66.66,0,0,1,0-.15h0l0,0h0a.62.62,0,0,0,.36.17h0a.31.31,0,0,0,.23-.11h0a2.91,2.91,0,0,0,.38-.53h0a.54.54,0,0,1,.46-.29h0a4.79,4.79,0,0,0,1.33-.75h0a7,7,0,0,0,1.39-1.19h0s0,0,0,0h0a1.51,1.51,0,0,0,.66.2h.32a1.94,1.94,0,0,1,1.3.32h0a2.66,2.66,0,0,1,.64,1.16h0a4.36,4.36,0,0,1,.1,1.13h0c0,.25-.27.51-.27.79h0a.48.48,0,0,0,.09.27h0a0,0,0,0,1,0,0h0a0,0,0,0,0,0,0h0l-.16.06h0c-.39.09-.46.55-.56.8h0c0,.08-.06.14-.13.15h-.37a.81.81,0,0,0-.6.15h0a10.38,10.38,0,0,0-.87.68h0c-.35.34-.71.82-1.06.82h0a.4.4,0,0,1-.15,0Zm.15,0c.3,0,.66-.46,1-.8h0a8.09,8.09,0,0,1,.86-.68h0a.94.94,0,0,1,.65-.17h.37s.05,0,.08-.11h0c0-.08,0-.19.09-.3h0a.75.75,0,0,1,.51-.54h0l.11,0h0a.54.54,0,0,1-.09-.28h0c0-.32.27-.58.27-.79h0a4.25,4.25,0,0,0-.1-1.12h0a2.61,2.61,0,0,0-.62-1.13h0a1.89,1.89,0,0,0-1.26-.3h-.32a1.46,1.46,0,0,1-.67-.2h0A7.46,7.46,0,0,1,52.31,26h0a4.67,4.67,0,0,1-1.37.76h0a.46.46,0,0,0-.41.26h0a3.32,3.32,0,0,1-.39.55h0a.39.39,0,0,1-.27.12h0a.7.7,0,0,1-.36-.15h0v.09h0a.79.79,0,0,0,.24.58h0c.42.43.66.4.86.77h0a6.5,6.5,0,0,1,.55.87h0a.88.88,0,0,1,.52-.19h0c.13,0,.22-.21.3-.45h0c.08-.24.14-.49.33-.5h0c.22,0,.36-.28.65-.29h0a.49.49,0,0,1,.22.06h0a.37.37,0,0,1,.23.36h0c0,.2-.11.41-.1.59h0a1.54,1.54,0,0,1-.55.91h0a.09.09,0,0,0,0,.06h0c0,.05.08.12.19.18h0c.1.07.22.12.27.16h0a0,0,0,0,1,0,.05h0s0,0,0,0h-.09a.41.41,0,0,0-.35.21h0a.74.74,0,0,0-.06.18h0a.23.23,0,0,0,.11,0Z"/><path class="cls-1" d="M42.54,32.2c-.32.32-.12.9-.12,1.47s-.07.52-.07,1.23.36.65.36,1.11-.34.51-.34.94.21.2.87,0a7.4,7.4,0,0,0,2.18-1.49c.34-.33.18-.61.18-1a6.06,6.06,0,0,1,.28-1.23c.1-.4-.37-.71-.55-.9s.36-.88.36-.88c.92-.07.88-.76.88-.76-.59,0-.94-.24-.57-.61s-.15-.62-.44-.83a.38.38,0,0,1-.37.24c-.49,0-1.44.51-1.44,1.09,0,.41-.68.61-1.18.69C42.66,31.59,42.72,32,42.54,32.2Z"/><path class="cls-1" d="M42.38,37.16a.39.39,0,0,1,0-.21h0a.77.77,0,0,1,.18-.48h0a.74.74,0,0,0,.16-.46h0a.66.66,0,0,0-.18-.45h0a1,1,0,0,1-.18-.66h0c0-.71.07-.66.07-1.23h0c0-.31-.06-.64-.06-.92h0a.76.76,0,0,1,.19-.57h0a.55.55,0,0,0,.11-.36h0a2,2,0,0,0-.09-.54h0s0,0,0,0h0s0,0,0,0h0a3.06,3.06,0,0,0,.77-.22h0c.23-.11.38-.26.38-.44h0a1.05,1.05,0,0,1,.55-.79h0a2,2,0,0,1,.92-.34h0a.38.38,0,0,0,.35-.21h0l0,0h0s0,0,0,0h0c.23.17.52.42.53.67h0a.28.28,0,0,1-.09.2h0a.39.39,0,0,0-.14.26h0c0,.09.06.16.18.22h0a1.4,1.4,0,0,0,.51.08h0a0,0,0,0,1,0,0h0c0,.1,0,.71-.89.78h0s-.11.15-.19.28h0a1.14,1.14,0,0,0-.2.47h0a.1.1,0,0,0,0,.08h0c.16.17.57.44.58.82h0a.52.52,0,0,1,0,.11h0a6.29,6.29,0,0,0-.28,1.22h0c0,.19,0,.36,0,.52h0a.68.68,0,0,1-.22.51h0a7.59,7.59,0,0,1-2.2,1.5h0a6.76,6.76,0,0,1-.75.24h0a.14.14,0,0,1-.12-.07Zm0-4.41c0,.27.06.6.06.92h0c0,.58-.07.52-.07,1.23h0a1,1,0,0,0,.17.63h0a.73.73,0,0,1,.19.48h0a.87.87,0,0,1-.17.5h0a.73.73,0,0,0-.17.44h0a.36.36,0,0,0,0,.18h0a.07.07,0,0,0,.07,0h0a6.65,6.65,0,0,0,.74-.24h0a7.54,7.54,0,0,0,2.16-1.48h0a.61.61,0,0,0,.21-.47h0c0-.15,0-.32,0-.52h0a5.77,5.77,0,0,1,.28-1.23h0a.44.44,0,0,0,0-.1h0c0-.33-.39-.61-.56-.77h0a.17.17,0,0,1-.05-.13h0a2,2,0,0,1,.41-.79h0s0,0,0,0h0c.78-.06.84-.57.85-.7h0a1.21,1.21,0,0,1-.5-.09h0a.3.3,0,0,1-.22-.27h0a.45.45,0,0,1,.16-.3h0a.23.23,0,0,0,.07-.16h0c0-.19-.26-.44-.48-.6h0a.43.43,0,0,1-.38.22h0a1.7,1.7,0,0,0-.89.32h0a1,1,0,0,0-.52.74h0c0,.22-.18.38-.42.5h0a2.81,2.81,0,0,1-.75.22h0a2.25,2.25,0,0,1,.08.52h0a.58.58,0,0,1-.13.4h0a.71.71,0,0,0-.17.53Z"/><path class="cls-1" d="M49.12,29.85c-.21-.21-.44-.21-.44,0s-.5.63-.62.92a.46.46,0,0,0,.37.57c.19,0,.13.58.49.58a1.76,1.76,0,0,0,.58-.13.7.7,0,0,1,.27-.43,1.91,1.91,0,0,0-.35-.75C49.17,30.38,49.33,30.06,49.12,29.85Z"/><path class="cls-1" d="M48.63,31.77c-.05-.11-.08-.23-.12-.31h0c0-.05,0-.07-.08-.07h0a.48.48,0,0,1-.42-.47h0a.4.4,0,0,1,0-.15h0a2,2,0,0,1,.35-.48h0a1,1,0,0,0,.26-.42h0a.21.21,0,0,1,0-.15h0a.18.18,0,0,1,.13-.06h0a.48.48,0,0,1,.32.17h0l0,0,0,0a.57.57,0,0,1,.14.39h0a.67.67,0,0,0,.16.39h0a1.9,1.9,0,0,1,.36.76h0a0,0,0,0,1,0,0h0a.67.67,0,0,0-.26.41h0a0,0,0,0,1,0,0h0a1.55,1.55,0,0,1-.59.14h0a.32.32,0,0,1-.29-.2Zm-.07-.33a2.07,2.07,0,0,1,.08.2h0c.06.14.12.27.28.27h0a1.59,1.59,0,0,0,.55-.13h0a.7.7,0,0,1,.27-.41h0a1.92,1.92,0,0,0-.34-.72h0a.68.68,0,0,1-.18-.42h0a.52.52,0,0,0-.13-.36h0a.41.41,0,0,0-.27-.15h0c-.07,0-.11,0-.11.15h0a1.05,1.05,0,0,1-.27.45h0a2.49,2.49,0,0,0-.35.48h0a.5.5,0,0,0,0,.12h0a.45.45,0,0,0,.12.29h0a.42.42,0,0,0,.24.12h0c.06,0,.1.05.13.11Z"/><path class="cls-1" d="M48.22,28.93c-.33,0-1,.31-1,.52s.21.69.21,1,.11.54.61.5a.39.39,0,0,1,0-.15c.12-.29.62-.69.62-.92a.17.17,0,0,1,.07-.16C48.67,29.46,48.47,28.93,48.22,28.93Z"/><path class="cls-1" d="M47.51,30.8a.57.57,0,0,1-.11-.36h0c0-.29-.21-.77-.21-1h0c0-.14.18-.26.39-.37h0a1.78,1.78,0,0,1,.64-.18h0V29a1.65,1.65,0,0,0-.61.18h0c-.21.1-.36.23-.36.31h0c0,.19.21.68.21,1h0c0,.25.08.47.47.47H48a.35.35,0,0,1,0-.14h0a2,2,0,0,1,.35-.48h0a1,1,0,0,0,.26-.42h0a.18.18,0,0,1,.07-.17h0a2.21,2.21,0,0,0-.2-.46h0c-.09-.16-.2-.28-.3-.28h0V28.9c.15,0,.26.15.35.31h0a2.65,2.65,0,0,1,.21.49h0s0,0,0,0h0s-.06.05-.06.13h0a1.05,1.05,0,0,1-.27.45h0a2.49,2.49,0,0,0-.35.48h0a.5.5,0,0,0,0,.12h0s0,0,0,0h-.11a.49.49,0,0,1-.42-.17Z"/><path class="cls-1" d="M50.59,29c-.19-.37-.43-.34-.86-.77a.86.86,0,0,1-.24-.75,5,5,0,0,1-.4-.39c-.28-.28-1.06-.64-1.06.11s0,.4-.41.8a2,2,0,0,1-1.26.38c0-.78-.66-.66-.66-.09a2.19,2.19,0,0,1-.14,1c.29.21.69.58.44.83s0,.61.57.61c0,0,0,.69-.88.76,0,0-.54.7-.36.88s.65.5.55.9a6.06,6.06,0,0,0-.28,1.23c0,.21,0,.38,0,.55.28,0,.77-.06,1-.06s.48.17.83,0a1,1,0,0,1-.22-.07c-.12-1.2,1.61-2.29,2.3-2.67a.39.39,0,0,1-.09-.31.53.53,0,0,1,0-.13,1.76,1.76,0,0,1-.58.13c-.36,0-.3-.58-.49-.58a.47.47,0,0,1-.39-.42c-.5,0-.61-.23-.61-.5s-.21-.78-.21-1,.67-.52,1-.52.45.53.53.78c.09,0,.23,0,.37.14s.05.53.3.78a1.91,1.91,0,0,1,.35.75c.35-.27.89-.38,1-.82a1.15,1.15,0,0,1,.39-.67A6,6,0,0,0,50.59,29Z"/><path class="cls-1" d="M46.67,35c-.26,0-.74,0-1,.06h0v0h0v0h0c0-.15,0-.32,0-.52h0a5.77,5.77,0,0,1,.28-1.23h0a.44.44,0,0,0,0-.1h0c0-.33-.39-.61-.56-.77h0a.17.17,0,0,1-.05-.13h0a2,2,0,0,1,.41-.79h0s0,0,0,0h0c.78-.06.84-.57.85-.7h0a1.21,1.21,0,0,1-.5-.09h0a.3.3,0,0,1-.22-.27h0a.45.45,0,0,1,.16-.3h0a.23.23,0,0,0,.07-.16h0c0-.2-.28-.46-.5-.62h0a0,0,0,0,1,0,0h0a2.3,2.3,0,0,0,.13-1h0c0-.3.18-.49.37-.49h0c.18,0,.34.18.35.55h0A1.9,1.9,0,0,0,47.6,28h0c.21-.2.32-.22.35-.27h0s0-.14,0-.51h0a.54.54,0,0,1,.11-.37h0a.36.36,0,0,1,.27-.1h0a1.24,1.24,0,0,1,.73.33h0a3.77,3.77,0,0,0,.4.4h0s0,0,0,0h0a.61.61,0,0,0,0,.14h0a.79.79,0,0,0,.24.58h0c.42.43.66.4.86.77h0l0,0h0c-.18-.35-.42-.32-.85-.76h0a.82.82,0,0,1-.26-.62h0a.66.66,0,0,1,0-.14h0a4.75,4.75,0,0,1-.39-.38h0a1.11,1.11,0,0,0-.69-.32h0c-.19,0-.32.09-.32.41h0c0,.37,0,.47-.06.55h0a2.76,2.76,0,0,0-.35.27h0a2,2,0,0,1-1.25.39h0a0,0,0,0,1,0,0h0c0-.38-.15-.52-.29-.52h0c-.15,0-.31.15-.31.43h0a2.35,2.35,0,0,1-.13,1h0c.22.17.5.42.51.66h0a.28.28,0,0,1-.09.2h0a.39.39,0,0,0-.14.26h0c0,.09.06.16.18.22h0a1.4,1.4,0,0,0,.51.08h0a0,0,0,0,1,0,0h0c0,.1,0,.71-.89.78h0s-.11.15-.19.28h0a1.14,1.14,0,0,0-.2.47h0a.1.1,0,0,0,0,.08h0c.16.17.57.44.58.82h0a.52.52,0,0,1,0,.11h0a6.29,6.29,0,0,0-.28,1.22h0c0,.19,0,.36,0,.52h0c.29,0,.75-.06,1-.06h0c.23,0,.38.09.58.09h0a.36.36,0,0,0,.14,0h0a.36.36,0,0,1-.12-.05h0a0,0,0,0,1,0,0h0s0-.08,0-.13h0c0-1.15,1.61-2.16,2.3-2.55h0a.47.47,0,0,1-.08-.3h0v-.09h0a1.53,1.53,0,0,1-.54.12h0a.32.32,0,0,1-.29-.2h0c-.05-.11-.08-.23-.12-.31h0c0-.05,0-.07-.08-.07h0A.5.5,0,0,1,48,31h-.08a.46.46,0,0,1-.42-.17h0a.57.57,0,0,1-.11-.36h0c0-.29-.21-.77-.21-1h0c0-.14.18-.26.39-.37h0a1.78,1.78,0,0,1,.64-.18h0c.15,0,.26.15.35.31h0a2.79,2.79,0,0,1,.2.46h0a.48.48,0,0,1,.32.17h0a.57.57,0,0,1,.14.39h0a.67.67,0,0,0,.16.39h0a1.93,1.93,0,0,1,.35.72h0c.35-.26.85-.38.94-.77h0a1.23,1.23,0,0,1,.38-.68h0a6.52,6.52,0,0,0-.55-.88h0l0,0a5.67,5.67,0,0,1,.57.91h0a0,0,0,0,1,0,0h0a1.12,1.12,0,0,0-.38.66h0c-.11.46-.67.57-1,.83h0v0h0a2.11,2.11,0,0,0-.35-.74h0a.68.68,0,0,1-.18-.42h0a.52.52,0,0,0-.13-.36h0a.41.41,0,0,0-.27-.15h0l0,0h0l0,0h0a2.92,2.92,0,0,0-.2-.48h0c-.09-.16-.2-.28-.3-.28h0a1.65,1.65,0,0,0-.61.18h0c-.21.1-.36.23-.36.31h0c0,.19.21.68.21,1h0c0,.25.08.47.47.47H48s0,0,0,0h0a0,0,0,0,0,0,0h0a.44.44,0,0,0,.36.4h0c.06,0,.1.05.13.11h0a2.07,2.07,0,0,1,.08.2h0c.06.14.12.27.28.27h0a1.7,1.7,0,0,0,.57-.13h0a0,0,0,0,1,0,0h0a0,0,0,0,1,0,0h0a.53.53,0,0,0,0,.13h0a.38.38,0,0,0,.08.29h0v0h0a0,0,0,0,1,0,0h0c-.67.36-2.3,1.4-2.3,2.51h0s0,.07,0,.11h0l.2.07h0a0,0,0,0,1,0,0h0s0,0,0,0h0a.69.69,0,0,1-.26,0h0c-.22,0-.37-.09-.58-.09Z"/><path class="cls-1" d="M54.44,38.92a3,3,0,0,1-.73-.76c-.22-.48-.41-1.85-1-1.85s-1.28-.19-.94-.52l.15-.17c-.38-.14-.93.79-1.31.9a2.17,2.17,0,0,1-1.15-.07.88.88,0,0,0-.63,0l.59.61c.27.26.42.11.75.23s.48,1.24.73,1.24.87-.49,1.07-.29.53.75,0,.81-.67.13-.58.44a6.18,6.18,0,0,0,.82,1.1s.38-.09.49.13a2.43,2.43,0,0,1,1.27.15A3.57,3.57,0,0,1,54.44,38.92Z"/><path class="cls-1" d="M54,40.94a2.51,2.51,0,0,0-.92-.18h0l-.34,0h0l0,0h0a.3.3,0,0,0-.28-.13h0a.79.79,0,0,0-.17,0h0s0,0,0,0h0a5.82,5.82,0,0,1-.83-1.12h0a.77.77,0,0,1,0-.15h0a.23.23,0,0,1,.16-.23h0a1.85,1.85,0,0,1,.46-.09h0c.18,0,.23-.1.23-.21h0a.94.94,0,0,0-.28-.55h0a.21.21,0,0,0-.12,0h0a1.32,1.32,0,0,0-.48.17h0a1.42,1.42,0,0,1-.45.17h0c-.09,0-.15-.09-.2-.2h0a4,4,0,0,1-.17-.4h0c-.1-.3-.23-.6-.37-.65h0a1.49,1.49,0,0,0-.39-.05h0a.55.55,0,0,1-.37-.18h0l-.59-.61h0a0,0,0,0,1,0,0h0l0,0h0a.9.9,0,0,1,.36-.08h0a1.17,1.17,0,0,1,.29,0h0a3.81,3.81,0,0,0,.77.12h0a1.12,1.12,0,0,0,.36,0h0a1.82,1.82,0,0,0,.59-.49h0c.22-.21.44-.42.65-.42h0a.15.15,0,0,1,.09,0h0l0,0h0s0,0,0,0h0a1.38,1.38,0,0,1-.15.17h0a.22.22,0,0,0-.08.15h0c0,.09.11.17.3.23h0a2.48,2.48,0,0,0,.7.09h0c.34,0,.55.36.7.76h0c.16.41.26.87.36,1.1h0a3,3,0,0,0,.73.75h0l0,0,0,0s0,0,0,0h0A3.73,3.73,0,0,0,54,40.64h0a2.45,2.45,0,0,0,0,.27h0s0,0,0,0h0Zm0-.07c0-.08,0-.15,0-.23h0a3.94,3.94,0,0,1,.48-1.72h0a2.63,2.63,0,0,1-.72-.75h0c-.11-.24-.21-.7-.37-1.1h0c-.15-.41-.35-.74-.64-.73h0a2.6,2.6,0,0,1-.71-.09h0c-.2-.06-.35-.15-.35-.29h0a.26.26,0,0,1,.1-.19h0l.12-.13h0c-.17,0-.39.19-.6.41h0a2.15,2.15,0,0,1-.62.5h0a1.26,1.26,0,0,1-.38.06h0a3.85,3.85,0,0,1-.78-.13h0a1.1,1.1,0,0,0-.28,0h0a.8.8,0,0,0-.3.06h0l.56.58h0a.55.55,0,0,0,.34.16h0a1.33,1.33,0,0,1,.4.06h0c.14.05.23.24.32.46h0c.09.21.17.46.25.62h0c0,.1.11.16.15.16h0a1.46,1.46,0,0,0,.43-.17h0a1.41,1.41,0,0,1,.5-.17h0a.23.23,0,0,1,.16.06h0a1,1,0,0,1,.3.59h0c0,.13-.08.25-.28.27h0a1.66,1.66,0,0,0-.45.09h0a.17.17,0,0,0-.12.17h0a.39.39,0,0,0,0,.14h0a3,3,0,0,0,.44.66h0l.36.42h0l.17,0h0a.37.37,0,0,1,.32.14h0l.33,0h0a2.61,2.61,0,0,1,.89.17Z"/><path class="cls-1" d="M55.06,39.53c0-.12-.3-.35-.62-.61a3.57,3.57,0,0,0-.47,2,3.79,3.79,0,0,1,.39.18A1.38,1.38,0,0,0,55.06,39.53Z"/><path class="cls-1" d="M54.35,41.12a3.79,3.79,0,0,0-.39-.18h0s0,0,0,0h0a2.45,2.45,0,0,1,0-.27h0a3.82,3.82,0,0,1,.5-1.74h0c.16.13.32.26.43.37h0c.12.11.2.19.2.27h0c0,.08,0,.22,0,.4h0a1.32,1.32,0,0,1-.74,1.19h0Zm0-.06a1.26,1.26,0,0,0,.7-1.13h0c0-.18,0-.31,0-.4h0s-.06-.13-.18-.23h0l-.4-.34h0A3.84,3.84,0,0,0,54,40.64h0a2,2,0,0,0,0,.25h0l.36.17Z"/><path class="cls-1" d="M42.54,37.75c.22.22.66,1,.86,1.16s.9.9,1.49.9,1.17-.42,1.28-.13a1.25,1.25,0,0,0,.84.84c.5.1.54.19,1-.06s.78-.38.61-.82-1-.54-.79-1a2.2,2.2,0,0,0,.18-1c0-.25.12-.45.28-.29s.33.48.65.33-.06-.88-.29-1.2l-.18.08c-.44.18-.53,0-1-.43s.15-.58.42-.67a.26.26,0,0,0-.13-.5,1.21,1.21,0,0,1-.3,0c-.35.13-.53,0-.83,0s-.75,0-1,.06a.66.66,0,0,1-.22.46A7.4,7.4,0,0,1,43.24,37c-.32.1-.54.2-.67.23C42.48,37.38,42.41,37.62,42.54,37.75Z"/><path class="cls-1" d="M47,40.55a1.27,1.27,0,0,1-.87-.86h0c0-.06-.06-.08-.14-.08h0a9,9,0,0,1-1.11.23h0c-.62,0-1.31-.71-1.51-.91h0c-.21-.2-.65-1-.86-1.16h0a.28.28,0,0,1-.08-.21h0a1,1,0,0,1,.1-.38h0a0,0,0,0,1,0,0h0c.13,0,.35-.13.68-.23h0a7.54,7.54,0,0,0,2.16-1.48h0a.62.62,0,0,0,.21-.44h0s0,0,0,0h0c.29,0,.78-.06,1-.06h0c.23,0,.38.09.57.09h0a.77.77,0,0,0,.25,0h0a1.17,1.17,0,0,0,.29,0h0a.31.31,0,0,1,.32.31h0a.27.27,0,0,1-.18.25h0a2.28,2.28,0,0,0-.36.13h0c-.11.06-.2.14-.19.23h0a.39.39,0,0,0,.14.26h0c.32.32.45.49.65.49h0a.67.67,0,0,0,.27-.07h0l.19-.08h0a2.09,2.09,0,0,1,.41,1h0a.24.24,0,0,1-.12.24h0a.49.49,0,0,1-.18,0h0c-.25,0-.38-.25-.51-.38h0a.21.21,0,0,0-.09,0h0s-.07,0-.1.09h0a.53.53,0,0,0,0,.23h0a2.3,2.3,0,0,1-.18,1h0a.36.36,0,0,0,0,.1h0c0,.14.15.25.33.37h0a1.18,1.18,0,0,1,.48.46h0a.68.68,0,0,1,.05.23h0c0,.3-.31.43-.68.63h0a1,1,0,0,1-.48.16h0a3.5,3.5,0,0,1-.53-.1Zm-.81-.88a1.2,1.2,0,0,0,.82.82h0a4,4,0,0,0,.52.1h0a1,1,0,0,0,.45-.15h0c.38-.21.65-.33.65-.58h0a.63.63,0,0,0,0-.21h0a1.1,1.1,0,0,0-.45-.43h0c-.18-.12-.36-.23-.36-.42h0a.35.35,0,0,1,0-.13h0a2.25,2.25,0,0,0,.17-1h0c0-.19.06-.37.2-.38h0a.19.19,0,0,1,.13.07h0c.14.14.27.36.47.36h0a.34.34,0,0,0,.15,0h0a.19.19,0,0,0,.09-.19h0a2.06,2.06,0,0,0-.38-.94h0l-.16.07h0a1,1,0,0,1-.3.07h0c-.24,0-.38-.2-.69-.51h0a.45.45,0,0,1-.16-.3h0a.33.33,0,0,1,.22-.28h0c.13-.06.27-.1.37-.14h0a.19.19,0,0,0,.14-.19h0a.26.26,0,0,0-.26-.25h0a1.26,1.26,0,0,1-.3,0h0a.82.82,0,0,1-.26,0h0c-.21,0-.36-.09-.57-.09h0c-.25,0-.72,0-1,.06h0a.67.67,0,0,1-.21.45h0a7.59,7.59,0,0,1-2.2,1.5h0c-.31.09-.52.19-.66.22h0a1,1,0,0,0-.09.35h0a.25.25,0,0,0,.06.17h0l0,0,0,0c.22.22.66,1,.86,1.16h0c.2.2.9.89,1.47.89h0c.43,0,.86-.23,1.11-.23h0a.18.18,0,0,1,.19.12Z"/><path class="cls-1" d="M51,45c-.36,0-.82,0-.82.47s.09.54-.23.86-.09.76-.31,1A2,2,0,0,0,49.26,49a1.31,1.31,0,0,1,.62-.28c.29,0,.75,1,1,1.63.3-.3.41-.62.75-.73s.32-.69.64-.69.28-.83.48-1,.68-.84.68-.84a1.54,1.54,0,0,1,.52-1.61,1.12,1.12,0,0,0,.21-.37c-2.06.2-1.83-.74-1.83-.74a.74.74,0,0,1-.4-.14C51.67,44.47,51.24,45,51,45Z"/><path class="cls-1" d="M50.85,50.36l0,0h0a6.46,6.46,0,0,0-.72-1.44h0a.37.37,0,0,0-.22-.17h0a1.19,1.19,0,0,0-.6.28h0l0,0h0a1,1,0,0,1-.09-.44h0a2.25,2.25,0,0,1,.47-1.3h0a.63.63,0,0,0,.11-.43h0a.73.73,0,0,1,.2-.55h0a.58.58,0,0,0,.23-.47h0c0-.09,0-.21,0-.37h0a.43.43,0,0,1,.29-.42h0a1.52,1.52,0,0,1,.56-.08h0V45a1.39,1.39,0,0,0-.54.08h0a.36.36,0,0,0-.25.36h0c0,.16,0,.27,0,.37h0a.66.66,0,0,1-.25.52h0a.63.63,0,0,0-.18.5h0a.67.67,0,0,1-.13.47h0a2.25,2.25,0,0,0-.45,1.26h0a1,1,0,0,0,.07.39h0a1.31,1.31,0,0,1,.61-.27h0a.45.45,0,0,1,.27.19h0a2.68,2.68,0,0,1,.27.43h0a10,10,0,0,1,.44,1h0c.27-.28.38-.59.73-.7h0c.15,0,.23-.21.31-.37h0c.08-.15.16-.31.34-.32h0a.18.18,0,0,0,.16-.11h0a1.62,1.62,0,0,0,.1-.31h0a1.41,1.41,0,0,1,.2-.6h0c.17-.17.6-.74.67-.82h0a1.78,1.78,0,0,1-.06-.44h0a1.63,1.63,0,0,1,.59-1.19h0a.92.92,0,0,0,.18-.32h0l-.5,0h0a1.7,1.7,0,0,1-1.1-.28h0a.56.56,0,0,1-.22-.44h0v-.06h0a.7.7,0,0,1-.36-.12h0a4.52,4.52,0,0,1-.43.48h0A.9.9,0,0,1,51,45h0v-.06a.87.87,0,0,0,.44-.27h0a3.84,3.84,0,0,0,.44-.5h0a.64.64,0,0,0,.39.14h0s0,0,0,0h0a.28.28,0,0,0,0,.08h0c0,.18.1.65,1.26.65h0a3.41,3.41,0,0,0,.54,0h0s0,0,0,0h0a0,0,0,0,1,0,0h0a1,1,0,0,1-.21.38h0a1.64,1.64,0,0,0-.57,1.15h0a1.71,1.71,0,0,0,.06.43h0s0,0,0,0h0s-.5.65-.69.84h0a.87.87,0,0,0-.14.4h0a2,2,0,0,1-.15.49h0a.23.23,0,0,1-.21.15h0c-.14,0-.21.13-.28.29h0c-.08.16-.16.34-.35.4h0c-.33.1-.44.41-.74.72h0Z"/><path class="cls-1" d="M47.17,47.48c.19-.19.19-.31,0-.52s-.24-.45-.46-.67-.18-.48-.33-.63-.15-.13.15-.43.79-.68.58-.89-.44-.26-.54-.59.12-.78-.25-.78-.36.21-.57.21-.49-.18-.71,0-.29.14-.54-.11a2.1,2.1,0,0,0-1.12-.47c-.27,0-.27.23-.27.38s-.77,0-.9.16a1.45,1.45,0,0,0-.38.67c0,.19-.06.61-.06.8s.39,1,0,1.66c0,0,.67.11.4.39s-.8,1.25-.61,1.43,1.16-.08,1.81-.4.84-.54.84-.13,0,1.85.71,1.71h0A1.1,1.1,0,0,1,45,48.7c.29-.28.21.48.63.48s0-.48.23-.69a2.55,2.55,0,0,1,1.23-.37C47.09,47.89,47.05,47.59,47.17,47.48Z"/><path class="cls-1" d="M44.19,48.63a5.13,5.13,0,0,1-.08-1h0v0h0a.32.32,0,0,0,0-.16h0s0,0-.05,0h0a3.29,3.29,0,0,0-.72.35h0a4.47,4.47,0,0,1-1.6.46h0a.4.4,0,0,1-.26-.07h0a.2.2,0,0,1,0-.14h0a2.74,2.74,0,0,1,.66-1.33h0a.17.17,0,0,0,.05-.11h0c0-.06-.09-.13-.21-.17h0a1.49,1.49,0,0,0-.23-.06h0s0,0,0,0h0s0,0,0,0h0a1.23,1.23,0,0,0,.21-.72h0a6,6,0,0,0-.16-.93h0c0-.19.06-.62.06-.8h0a1.36,1.36,0,0,1,.39-.69h0a.84.84,0,0,1,.44-.08h0A1.15,1.15,0,0,0,43,43h0l0,0h0a.64.64,0,0,1,0-.26h0a.26.26,0,0,1,.26-.15h0a2.1,2.1,0,0,1,1.14.48h0c.15.15.23.23.31.23h0s.1,0,.19-.13h0a.42.42,0,0,1,.29-.11h0c.16,0,.32.07.44.07h0a.35.35,0,0,0,.21-.1h0a.55.55,0,0,1,.36-.11h0a.25.25,0,0,1,.22.1h0a.61.61,0,0,1,0,.24h0a1.76,1.76,0,0,0,0,.23h0a.58.58,0,0,0,0,.23h0c.09.31.31.37.53.58h0a.2.2,0,0,1,.06.14h0c0,.25-.4.55-.64.79h0c-.18.17-.24.25-.24.28h0s0,0,.09.11h0c.16.17.12.43.33.63h0c.23.23.25.47.46.67h0a.45.45,0,0,1,.17.3h0a.4.4,0,0,1-.15.26h0a.37.37,0,0,0-.07.26h0a2.2,2.2,0,0,0,0,.36h0s0,0,0,0h0a2.35,2.35,0,0,0-1.21.37h0a.21.21,0,0,0-.05.16h0c0,.11,0,.23,0,.33h0a.25.25,0,0,1,0,.15h0a.31.31,0,0,1-.19.05h0c-.29,0-.36-.33-.44-.47h0c0-.05,0-.07-.08-.07h0s0,0-.09.06h0a1,1,0,0,0-.18.58h0s0,0,0,0h-.11c-.33,0-.48-.35-.56-.72Zm0-1.22a.53.53,0,0,1,0,.19h0v0h0a5.88,5.88,0,0,0,.08,1h0c.08.37.23.67.5.67h.07a1,1,0,0,1,.2-.6h0a.24.24,0,0,1,.13-.07h0a.17.17,0,0,1,.13.1h0a1.72,1.72,0,0,1,.09.19h0c.06.13.14.25.3.25h0c.16,0,.17,0,.18-.14h0c0-.09,0-.21,0-.33h0a.28.28,0,0,1,.07-.21h0a2.43,2.43,0,0,1,1.22-.37h0a2,2,0,0,1,0-.34h0a.46.46,0,0,1,.08-.3h0c.1-.09.14-.16.14-.22h0c0-.07-.05-.15-.16-.25h0c-.21-.22-.24-.46-.45-.67h0c-.23-.24-.2-.51-.33-.63h0c-.06-.07-.1-.1-.11-.16h0c0-.08.08-.14.25-.32h0c.25-.24.64-.56.63-.75h0a.12.12,0,0,0,0-.09h0c-.2-.21-.45-.27-.55-.61h0a1.07,1.07,0,0,1,0-.25h0c0-.08,0-.16,0-.23h0a.41.41,0,0,0,0-.21h0S46.4,43,46.3,43h0a.48.48,0,0,0-.32.1h0a.39.39,0,0,1-.25.11h0c-.14,0-.3-.07-.44-.07h0a.32.32,0,0,0-.25.1h0c-.09.09-.16.14-.23.14h0c-.12,0-.2-.1-.35-.25h0a2.14,2.14,0,0,0-1.1-.46h0a.19.19,0,0,0-.21.12h0a.61.61,0,0,0,0,.23h0a.09.09,0,0,1,0,.08h0l-.1,0h-.28a1,1,0,0,0-.48.06h0a1.47,1.47,0,0,0-.37.65h0c0,.19-.06.61-.06.8h0a5.14,5.14,0,0,1,.16.93h0a1.31,1.31,0,0,1-.19.71h0l.19.05h0c.12,0,.25.11.25.23h0a.21.21,0,0,1-.07.15h0A2.76,2.76,0,0,0,41.48,48h0a.13.13,0,0,0,0,.1h0a.32.32,0,0,0,.21,0h0a4.39,4.39,0,0,0,1.57-.46h0a3.38,3.38,0,0,1,.75-.35h0a.11.11,0,0,1,.11.06Z"/><path class="cls-1" d="M52.21,40.63a6.18,6.18,0,0,1-.82-1.1c-.09-.31.08-.39.58-.44s.16-.61,0-.81-.83.29-1.07.29-.41-1.13-.73-1.24-.48,0-.75-.23l-.59-.61-.14.06c.23.32.58,1.06.29,1.2s-.48-.17-.65-.33-.28,0-.28.29a2.2,2.2,0,0,1-.18,1c-.17.42.62.52.79,1s-.15.57-.61.82l-.12.06c.12.12.41.38.61.38s.27.1.27.35a1.79,1.79,0,0,0,.35,1.07c.25.26.49,0,.61.07s-.17.67.06.67.49-.51.7-.51.39.36.78.35a.05.05,0,0,1,0,0c.23-.23,1-1,1-1.36a2.19,2.19,0,0,1,.13-.68,1,1,0,0,1,.24-.05C52.59,40.54,52.21,40.63,52.21,40.63Z"/><path class="cls-1" d="M49.69,43a.17.17,0,0,1,0-.1h0c0-.14.07-.33.07-.45h0a.15.15,0,0,0,0-.08h-.05c-.07,0-.18.06-.3.06h0a.37.37,0,0,1-.27-.12h0a1.85,1.85,0,0,1-.35-1.09h0a.5.5,0,0,0,0-.25h0s-.07-.07-.21-.07h0c-.23,0-.51-.27-.63-.39h0s0,0,0,0h0s0,0,0,0h0l.11-.05h0c.38-.21.65-.33.65-.58h0a.63.63,0,0,0,0-.21h0a1.1,1.1,0,0,0-.45-.43h0c-.18-.12-.36-.23-.36-.42h0a.35.35,0,0,1,0-.13h0a2.25,2.25,0,0,0,.17-1h0c0-.19.06-.37.2-.38h0a.19.19,0,0,1,.13.07h0c.14.14.27.36.47.36h0a.34.34,0,0,0,.15,0h0a.19.19,0,0,0,.09-.19h0a2.12,2.12,0,0,0-.4-1h0v0h0l0,0h0l.14-.06h0l.59.61h0a.55.55,0,0,0,.34.16h0a1.33,1.33,0,0,1,.4.06h0c.14.05.23.24.32.46h0c.09.21.17.46.25.62h0c0,.1.11.16.15.16h0a1.46,1.46,0,0,0,.43-.17h0a1.41,1.41,0,0,1,.5-.17h0a.23.23,0,0,1,.16.06h0a1,1,0,0,1,.3.59h0c0,.13-.08.25-.28.27h0a1.66,1.66,0,0,0-.45.09h0a.17.17,0,0,0-.12.17h0a.39.39,0,0,0,0,.14h0a3,3,0,0,0,.44.66h0l.36.42h0l.17,0h0a.34.34,0,0,1,.33.16h0a0,0,0,0,1,0,0h0l0,0h0l-.21,0h0a2,2,0,0,0-.13.66h0a1.54,1.54,0,0,1-.44.75h0c-.23.27-.49.52-.6.63h0l0,0h0s0,0,0,0h0a.83.83,0,0,1-.46-.18h0c-.12-.09-.22-.18-.29-.17h0c-.08,0-.2.12-.32.25h0c-.13.12-.25.26-.38.26h0a.11.11,0,0,1-.09-.05Zm.06-.67a.17.17,0,0,1,0,.12h0c0,.13-.07.33-.07.45h0c0,.07,0,.09.07.09h0c.09,0,.21-.12.33-.25h0c.13-.12.24-.26.37-.26h0c.11,0,.2.09.32.18h0a.78.78,0,0,0,.43.17h0s0,0,0,0h0c.12-.11.38-.37.61-.63h0a1.67,1.67,0,0,0,.42-.71h0a2.21,2.21,0,0,1,.13-.69h0l0,0h0l.2-.05h0a.33.33,0,0,0-.26-.09h0a.79.79,0,0,0-.17,0h0s0,0,0,0h0a5.82,5.82,0,0,1-.83-1.12h0a.77.77,0,0,1,0-.15h0a.23.23,0,0,1,.16-.23h0a1.85,1.85,0,0,1,.46-.09h0c.18,0,.23-.1.23-.21h0a.94.94,0,0,0-.28-.55h0a.21.21,0,0,0-.12,0h0a1.32,1.32,0,0,0-.48.17h0a1.42,1.42,0,0,1-.45.17h0c-.09,0-.15-.09-.2-.2h0a4,4,0,0,1-.17-.4h0c-.1-.3-.23-.6-.37-.65h0a1.49,1.49,0,0,0-.39-.05h0a.55.55,0,0,1-.37-.18h0l-.58-.6h0l-.09,0h0a2,2,0,0,1,.39,1h0a.24.24,0,0,1-.12.24h0a.49.49,0,0,1-.18,0h0c-.25,0-.38-.25-.51-.38h0a.21.21,0,0,0-.09,0h0s-.07,0-.1.09h0a.53.53,0,0,0,0,.23h0a2.3,2.3,0,0,1-.18,1h0a.36.36,0,0,0,0,.1h0c0,.14.15.25.33.37h0a1.18,1.18,0,0,1,.48.46h0a.68.68,0,0,1,.05.23h0c0,.3-.31.43-.68.63h0l-.08,0h0c.13.13.39.35.56.34h0c.14,0,.22,0,.26.1h0a.53.53,0,0,1,0,.28h0a1.77,1.77,0,0,0,.34,1h0a.33.33,0,0,0,.22.1h0c.11,0,.2-.06.3-.06h0l.09,0Zm2.46-1.74,0,0,0,0Z"/><path class="cls-1" d="M47.22,43.39a3.43,3.43,0,0,1,1.48-.69,1.14,1.14,0,0,0,.59-.28.28.28,0,0,1-.17-.1,1.79,1.79,0,0,1-.35-1.07c0-.25,0-.35-.27-.35s-.49-.26-.61-.38c-.35.17-.43.09-.88,0a1.25,1.25,0,0,1-.84-.84c-.11-.29-.69.13-1.28.13s-1.29-.7-1.49-.9a.8.8,0,0,1-.13-.16,3.54,3.54,0,0,0-1.12.16.64.64,0,0,0,.06.73c.16.16,0,.36-.23.36s-.15.71.17.71c0,0,.56-.09.48.48s0,1.12-.4,1.18-1.41,0-1.41.31a1.6,1.6,0,0,0,1,1.28v-.11a1.45,1.45,0,0,1,.38-.67c.13-.13.9,0,.9-.16s0-.38.27-.38a2.1,2.1,0,0,1,1.12.47c.25.25.32.33.54.11s.5,0,.71,0,.21-.21.57-.21.16.46.25.78a.52.52,0,0,0,.07.15C47,43.87,47,43.59,47.22,43.39Z"/><path class="cls-1" d="M41.8,44a1.62,1.62,0,0,1-1-1.31h0c0-.1.08-.16.19-.2h0a1.49,1.49,0,0,1,.41-.08h0c.31,0,.66,0,.84-.06h0c.15,0,.23-.16.28-.37h0c0-.22.05-.5.09-.78h0a.38.38,0,0,0,0-.1h0c0-.32-.23-.35-.37-.36h-.09c-.22,0-.31-.28-.31-.49h0a.54.54,0,0,1,0-.19h0A.13.13,0,0,1,42,40h0a.28.28,0,0,0,.18-.06h0a.19.19,0,0,0,.08-.14h0a.14.14,0,0,0-.05-.11h0A.69.69,0,0,1,42,39.2h0a.46.46,0,0,1,.1-.31h0a1.08,1.08,0,0,1,.45-.12h0l.68-.05h0l0,0h0a1.08,1.08,0,0,0,.13.15h0c.2.2.9.89,1.47.89h0c.43,0,.86-.23,1.11-.23h0a.19.19,0,0,1,.2.12h0a1.2,1.2,0,0,0,.82.82h0a4,4,0,0,0,.52.1h0a.67.67,0,0,0,.34-.1h0c.12.12.41.38.59.37h0c.14,0,.22,0,.26.1h0a.53.53,0,0,1,0,.28h0a1.77,1.77,0,0,0,.34,1h0a.33.33,0,0,0,.16.09h0a0,0,0,0,1,0,0h0a0,0,0,0,1,0,0h0a1.15,1.15,0,0,1-.61.29h0a3.51,3.51,0,0,0-1.46.68h0c-.19.19-.21.49-.62.52h0a.77.77,0,0,1-.07-.16h0a1.07,1.07,0,0,1,0-.25h0c0-.08,0-.16,0-.23h0a.41.41,0,0,0,0-.21h0S46.4,43,46.3,43h0a.48.48,0,0,0-.32.1h0a.39.39,0,0,1-.25.11h0c-.14,0-.3-.07-.44-.07h0a.32.32,0,0,0-.25.1h0c-.09.09-.16.14-.23.14h0c-.12,0-.2-.1-.35-.25h0a2.14,2.14,0,0,0-1.1-.46h0a.19.19,0,0,0-.21.12h0a.61.61,0,0,0,0,.23h0a.09.09,0,0,1,0,.08h0l-.1,0h-.28a1,1,0,0,0-.48.06h0a1.47,1.47,0,0,0-.37.65h0V44h0l0,0h0a0,0,0,0,1,0,0h0Zm.71-3.25a.39.39,0,0,1,.16.35h0a.38.38,0,0,1,0,.1h0c0,.29,0,.57-.09.79h0c0,.22-.14.39-.33.42h0a9,9,0,0,0-1.24.13h0q-.15.06-.15.15h0a1.56,1.56,0,0,0,.93,1.24h0v-.07h0a1.36,1.36,0,0,1,.39-.69h0a.84.84,0,0,1,.44-.08h0A1.15,1.15,0,0,0,43,43h0l0,0h0a.64.64,0,0,1,0-.26h0a.26.26,0,0,1,.26-.15h0a2.1,2.1,0,0,1,1.14.48h0c.15.15.23.23.31.23h0s.1,0,.19-.13h0a.42.42,0,0,1,.29-.11h0c.16,0,.32.07.44.07h0a.35.35,0,0,0,.21-.1h0a.55.55,0,0,1,.36-.11h0a.25.25,0,0,1,.22.1h0a.61.61,0,0,1,0,.24h0a1.76,1.76,0,0,0,0,.23h0a.58.58,0,0,0,0,.23h0s0,.09.05.13h0c.36,0,.36-.29.57-.5h0a3.36,3.36,0,0,1,1.5-.7h0a1.06,1.06,0,0,0,.52-.24h0l-.13-.09h0a1.85,1.85,0,0,1-.35-1.09h0a.5.5,0,0,0,0-.25h0s-.07-.07-.21-.07h0c-.22,0-.48-.25-.61-.37h0a1,1,0,0,1-.35.09h0a3.5,3.5,0,0,1-.53-.1h0a1.27,1.27,0,0,1-.87-.86h0c0-.06-.06-.08-.14-.08h0a9,9,0,0,1-1.11.23h0c-.62,0-1.31-.71-1.51-.91h0a.92.92,0,0,1-.13-.14h0c-.21,0-.45,0-.66,0h0a1.27,1.27,0,0,0-.41.1h0a.38.38,0,0,0-.09.27h0a.68.68,0,0,0,.14.42h0a.19.19,0,0,1,.07.15h0A.3.3,0,0,1,42,40h0s0,0-.06.06h0a.63.63,0,0,0,0,.16h0a.68.68,0,0,0,.06.29h0a.22.22,0,0,0,.19.14h.09a.6.6,0,0,1,.27.07Z"/><path class="cls-1" d="M51.27,42.9c-.39,0-.6-.35-.78-.35s-.48.51-.7.51.05-.55-.06-.67-.25.07-.44,0a1.14,1.14,0,0,1-.59.28,3.43,3.43,0,0,0-1.48.69c-.2.2-.21.48-.6.51.11.2.3.27.47.44s-.29.6-.58.89-.29.29-.15.43.11.42.33.63.25.46.46.67.21.33,0,.52-.08.41,0,.64a1,1,0,0,1,.67.2c.44.44-.44,1-.06.88a2.11,2.11,0,0,1,1.2-.17.36.36,0,0,0,.32-.05,2,2,0,0,1,.37-1.71c.22-.22,0-.65.31-1s.23-.43.23-.86S50.63,45,51,45s.68-.49.91-.78C51.45,43.87,51.15,43.14,51.27,42.9Z"/><path class="cls-1" d="M47.63,49.24s0,0,0,0h0s0-.06,0-.1h0l.1-.14h0a.66.66,0,0,0,.13-.36h0a.39.39,0,0,0-.11-.27h0a.89.89,0,0,0-.61-.19h0s0,0,0,0h0a2.33,2.33,0,0,1,0-.37h0a.46.46,0,0,1,.08-.3h0c.1-.09.14-.16.14-.22h0c0-.07-.05-.15-.16-.25h0c-.21-.22-.24-.46-.45-.67h0c-.23-.24-.2-.51-.33-.63h0c-.06-.07-.1-.1-.11-.16h0c0-.08.08-.14.25-.32h0c.25-.24.64-.56.63-.75h0a.12.12,0,0,0,0-.09h0c-.17-.17-.36-.24-.48-.45h0a0,0,0,0,1,0,0h0l0,0h0c.38,0,.37-.28.59-.5h0a3.36,3.36,0,0,1,1.5-.7h0a1.09,1.09,0,0,0,.57-.28h.09c.11,0,.2-.06.3-.06h0l.09,0h0a.17.17,0,0,1,0,.12h0c0,.13-.07.33-.07.45h0c0,.07,0,.09.07.09h0c.09,0,.21-.12.33-.25h0c.13-.12.24-.26.37-.26h0c.11,0,.2.09.32.18h0a.78.78,0,0,0,.43.17h0s0,0,0,0h0a0,0,0,0,1,0,0h0a.37.37,0,0,0,0,.12h0a1.66,1.66,0,0,0,.64,1.12h0l0,0h0a0,0,0,0,1,0,0h0a6.33,6.33,0,0,1-.45.5h0A.9.9,0,0,1,51,45h0a1.39,1.39,0,0,0-.54.08h0a.36.36,0,0,0-.25.36h0c0,.16,0,.27,0,.37h0a.66.66,0,0,1-.25.52h0a.63.63,0,0,0-.18.5h0a.67.67,0,0,1-.13.47h0a2.25,2.25,0,0,0-.45,1.26h0a1,1,0,0,0,.09.42h0s0,0,0,0h0a.51.51,0,0,1-.23.07h0l-.12,0h0a.62.62,0,0,0-.25,0h0a3.19,3.19,0,0,0-.93.21h0l-.09,0h0Zm.19-.94a.47.47,0,0,1,.13.31h0a1.16,1.16,0,0,1-.27.58h0l0,0h0a3.18,3.18,0,0,1,1-.21h0A.77.77,0,0,1,49,49h0l.1,0h0a.41.41,0,0,0,.17-.05h0a1,1,0,0,1-.08-.42h0a2.25,2.25,0,0,1,.47-1.3h0a.63.63,0,0,0,.11-.43h0a.73.73,0,0,1,.2-.55h0a.58.58,0,0,0,.23-.47h0c0-.09,0-.21,0-.37h0a.43.43,0,0,1,.29-.42h0a1.52,1.52,0,0,1,.56-.08h0a.87.87,0,0,0,.44-.27h0a3.61,3.61,0,0,0,.42-.48h0A1.68,1.68,0,0,1,51.21,43h0s0-.07,0-.1h0a.84.84,0,0,1-.44-.18h0c-.12-.09-.22-.18-.29-.17h0c-.08,0-.2.12-.32.25h0c-.13.12-.25.26-.38.26h0s-.08,0-.1-.05h0a.17.17,0,0,1,0-.1h0c0-.14.07-.33.07-.45h0a.15.15,0,0,0,0-.08h-.05c-.07,0-.18.05-.3.06H49.3a1.14,1.14,0,0,1-.6.28h0a3.51,3.51,0,0,0-1.46.68h0c-.18.18-.2.46-.57.52h0a2.89,2.89,0,0,0,.44.39h0a.2.2,0,0,1,.06.14h0c0,.25-.4.55-.64.79h0c-.18.17-.24.25-.24.28h0s0,0,.09.11h0c.16.17.12.43.33.63h0c.23.23.25.47.46.67h0a.45.45,0,0,1,.17.3h0a.4.4,0,0,1-.15.26h0a.37.37,0,0,0-.07.26h0a1.75,1.75,0,0,0,0,.33h0a.93.93,0,0,1,.65.21Z"/><path class="cls-1" d="M44.85,49.31c-.71.14-.71-1.31-.71-1.71s-.19-.2-.84.13-1.63.58-1.81.4l0,0a2.24,2.24,0,0,1-.58.4c-.36.16,0,.83-.78.67s-.84.23-1.34.33a1.16,1.16,0,0,0-.64.4c.17.32.39,1,.18,1.2a3.06,3.06,0,0,0-.44.72c.43.12,1,.08,1.06.14a2.28,2.28,0,0,1,.08.84c0,.36.84.54,1.08.77s1.16-.33,1.45-.33.57.57.57.29.41-.13.41-.13v0c.38-.46,1-1,1.35-1.38.52-.53.49-.86.78-1.61a4,4,0,0,0,.21-1.15Z"/><path class="cls-1" d="M40.07,53.6a3.11,3.11,0,0,0-.62-.33h0c-.24-.12-.46-.25-.47-.46h0c0-.18,0-.37,0-.53h0A.55.55,0,0,0,38.9,52h-.11l-.25,0h0a3.26,3.26,0,0,1-.68-.09h0l0,0h0s0,0,0,0h0a3.36,3.36,0,0,1,.44-.73h0a.37.37,0,0,0,.08-.26h0a2.35,2.35,0,0,0-.27-.91h0s0,0,0,0h0a1.27,1.27,0,0,1,.66-.41h0c.4-.08.52-.36,1-.36h0l.33,0h0l.2,0h0c.25,0,.29-.12.33-.28h0c0-.15.06-.34.24-.41h0a2.71,2.71,0,0,0,.57-.4h0l0,0h0a.32.32,0,0,0,.21,0h0a4.39,4.39,0,0,0,1.57-.46h0a3.38,3.38,0,0,1,.75-.35h0a.1.1,0,0,1,.11.06h0a.53.53,0,0,1,0,.19h0v0h0a5.88,5.88,0,0,0,.08,1h0c.08.37.23.67.5.67h.12s0,0,0,0h0a4.14,4.14,0,0,1-.21,1.16h0c-.29.74-.26,1.09-.79,1.62h0c-.35.35-1,.93-1.34,1.38h0s0,0,0,0h0s0,0,0,0h0v0h-.05l-.14,0h0c-.09,0-.16,0-.16.14h0a.15.15,0,0,1,0,.07h0a.07.07,0,0,1-.05,0h0a.23.23,0,0,1-.11-.07h0l-.12-.13h0a.54.54,0,0,0-.31-.17h0a2.2,2.2,0,0,0-.58.19h0a2.22,2.22,0,0,1-.7.2h0a.26.26,0,0,1-.19-.07ZM38.8,51.91A.3.3,0,0,1,39,52h0a.68.68,0,0,1,.08.33h0c0,.15,0,.34,0,.53h0c0,.15.19.29.43.41h0a2.88,2.88,0,0,1,.64.34h0a.21.21,0,0,0,.15,0h0a2.53,2.53,0,0,0,.68-.19h0a2.17,2.17,0,0,1,.6-.2h0c.23,0,.43.3.52.36h0a.07.07,0,0,0,0-.05h0a.2.2,0,0,1,.07-.16h0a.28.28,0,0,1,.15,0h0a.76.76,0,0,1,.23,0h0c.38-.45,1-1,1.31-1.33h0c.51-.52.48-.84.77-1.6h0a4,4,0,0,0,.21-1.11h-.07c-.32,0-.48-.35-.56-.72h0a5.13,5.13,0,0,1-.08-1h0v0h0a.32.32,0,0,0,0-.16h0s0,0-.05,0h0a3.29,3.29,0,0,0-.72.35h0a4.47,4.47,0,0,1-1.6.46h0a.36.36,0,0,1-.25-.06h0a2.36,2.36,0,0,1-.57.38h0c-.14.06-.16.22-.2.38h0a.36.36,0,0,1-.39.32h0l-.21,0h0l-.32,0h0c-.47,0-.57.27-1,.36h0a1.2,1.2,0,0,0-.62.37h0a2.23,2.23,0,0,1,.27.92h0a.46.46,0,0,1-.1.31h0a3.11,3.11,0,0,0-.42.67h0a5.6,5.6,0,0,0,.89.1Z"/><path class="cls-1" d="M38.77,49.51c.5-.1.55-.48,1.34-.33s.42-.51.78-.67a2.24,2.24,0,0,0,.58-.4c-.14-.21.36-1.14.63-1.41s-.4-.39-.4-.39a1.37,1.37,0,0,0,.19-1,1.09,1.09,0,0,1-.54-.31A4.21,4.21,0,0,0,40,44.13c-.17,0-.5.34-.83.66s-.7-.29-.91-.08.23.38.23.88a.94.94,0,0,1-1,.8c.13.15-.37.12-.79.12a1.55,1.55,0,0,0-1.08.4c-.23.24.25.84.46.63s.67.21.67.59-.44.31-.44.46.35.46.25.78.1.46.46.35.85-.13,1,0a.73.73,0,0,1,.11.15A1.16,1.16,0,0,1,38.77,49.51Z"/><path class="cls-1" d="M38.12,49.94l0,0h0a.46.46,0,0,0-.1-.14h0a.63.63,0,0,0-.44-.12h0a1.7,1.7,0,0,0-.54.09h0a1.2,1.2,0,0,1-.24,0h0a.3.3,0,0,1-.21-.07h0a.26.26,0,0,1-.07-.2h0a.89.89,0,0,1,0-.15h0a.52.52,0,0,0,0-.11h0a.79.79,0,0,0-.13-.38h0a.76.76,0,0,1-.14-.29h0a.12.12,0,0,1,.09-.11h0l.15-.06h0a.28.28,0,0,0,.2-.29h0a.68.68,0,0,0-.17-.42h0a.5.5,0,0,0-.33-.2h0a.21.21,0,0,0-.12.05h0a.15.15,0,0,1-.12,0h0a.57.57,0,0,1-.45-.54h0a.24.24,0,0,1,.07-.18h0a1.56,1.56,0,0,1,1.1-.41h.4a1,1,0,0,0,.37,0h0v0h0a0,0,0,0,1,0,0h.08a1,1,0,0,0,.64-.24h0a.73.73,0,0,0,.27-.53h0a.8.8,0,0,0-.14-.45h0a.7.7,0,0,1-.14-.31h0a.2.2,0,0,1,.06-.14h0a.18.18,0,0,1,.13-.06h0c.18,0,.39.23.59.23h0a.26.26,0,0,0,.19-.09h0a6.45,6.45,0,0,1,.48-.45h0A.74.74,0,0,1,40,44.1h0a2.28,2.28,0,0,1,.63.31h0a5.44,5.44,0,0,1,.75.58h0a1.08,1.08,0,0,0,.53.3h0s0,0,0,0h0a2.11,2.11,0,0,1,0,.26h0a1.31,1.31,0,0,1-.19.71h0l.19.05h0c.12,0,.25.11.25.23h0a.21.21,0,0,1-.07.15h0A2.76,2.76,0,0,0,41.48,48h0a.2.2,0,0,0,0,.09h0s0,0,0,0h0a2.67,2.67,0,0,1-.59.4h0c-.14.06-.16.22-.2.38h0a.36.36,0,0,1-.39.32h0l-.21,0h0l-.32,0h0c-.47,0-.57.27-1,.36h0a1.16,1.16,0,0,0-.63.39h0Zm-.07-.2a.48.48,0,0,1,.08.12h0a1.22,1.22,0,0,1,.63-.38h0c.4-.08.52-.36,1-.36h0l.33,0h0l.2,0h0c.25,0,.29-.12.33-.28h0c0-.15.06-.34.24-.41h0a2.52,2.52,0,0,0,.56-.38h0a.18.18,0,0,1,0-.1h0a2.74,2.74,0,0,1,.66-1.33h0a.17.17,0,0,0,.05-.11h0c0-.06-.09-.13-.21-.17h0a1.49,1.49,0,0,0-.23-.06h0s0,0,0,0h0s0,0,0,0h0a1.23,1.23,0,0,0,.21-.72h0a1.94,1.94,0,0,0,0-.24h0a1.11,1.11,0,0,1-.53-.31h0a5.61,5.61,0,0,0-.75-.57h0a2.07,2.07,0,0,0-.59-.3h0a.85.85,0,0,0-.34.2h0l-.47.46h0a.32.32,0,0,1-.23.1h0c-.23,0-.45-.23-.59-.23h0a.12.12,0,0,0-.09,0h0a.16.16,0,0,0,0,.1h0c0,.06.06.15.14.27h0a1,1,0,0,1,.14.49h0a1,1,0,0,1-1,.83h0a.08.08,0,0,1-.05.07h0l-.09,0h0a1.32,1.32,0,0,1-.3,0h-.4a1.49,1.49,0,0,0-1,.39h0a.2.2,0,0,0-.06.14h0a.59.59,0,0,0,.13.32h0a.38.38,0,0,0,.26.16h0a.11.11,0,0,0,.08,0h0a.21.21,0,0,1,.16-.07h0a.72.72,0,0,1,.56.68h0c0,.31-.27.35-.39.4h0s-.05,0-.05.06h0a.76.76,0,0,0,.13.26h0a.84.84,0,0,1,.14.41h0a.5.5,0,0,1,0,.12h0a.39.39,0,0,0,0,.14h0c0,.14.07.2.22.21h0a.64.64,0,0,0,.22,0h0a1.82,1.82,0,0,1,.56-.09h0a.7.7,0,0,1,.49.14Z"/><path class="cls-1" d="M40.59,40.56a8.33,8.33,0,0,0-.52,1.2c-.23.5-.4,1.26-.86,1.26s-.88-.59-1.26-.21-.57,1.12-.35,1.34l.63.59,0,0c.21-.21.59.41.91.08s.66-.66.83-.66a4.21,4.21,0,0,1,1.36.88,1.09,1.09,0,0,0,.54.31c0-.31-.14-.57-.14-.67s0-.48.06-.69a1.6,1.6,0,0,1-1-1.28c0-.32,1.06-.24,1.41-.31s.33-.61.4-1.18-.48-.48-.48-.48a.24.24,0,0,1-.14-.05A4.37,4.37,0,0,0,40.59,40.56Z"/><path class="cls-1" d="M41.88,45.35a1.11,1.11,0,0,1-.55-.32h0a5.61,5.61,0,0,0-.75-.57h0a2.07,2.07,0,0,0-.59-.3h0a.85.85,0,0,0-.34.2h0l-.47.46h0a.32.32,0,0,1-.23.1h0c-.23,0-.45-.23-.59-.23h0a.12.12,0,0,0-.09,0h0a0,0,0,0,1,0,0h0a0,0,0,0,1,0,0h0s0,0,0,0h0l-.63-.59h0a.46.46,0,0,1-.1-.32h0a1.64,1.64,0,0,1,.45-1.06h0a.43.43,0,0,1,.3-.13h0c.33,0,.65.34,1,.33h0c.21,0,.36-.17.49-.42h0c.13-.25.23-.57.34-.82h0a7.76,7.76,0,0,1,.53-1.21h0s.11,0,.23,0h0a9.32,9.32,0,0,1,1.22.14h0a.21.21,0,0,0,.12,0h.09a.6.6,0,0,1,.27.07h0a.39.39,0,0,1,.16.35h0a.38.38,0,0,1,0,.1h0c0,.29,0,.57-.09.79h0c0,.22-.14.39-.33.42h0a9,9,0,0,0-1.24.13h0q-.15.06-.15.15h0a1.57,1.57,0,0,0,1,1.25h0a0,0,0,0,1,0,0h0c0,.22-.06.53-.06.69h0c0,.08.1.35.14.67h0v0h0Zm-1.26-.94a5.44,5.44,0,0,1,.75.58h0a1.15,1.15,0,0,0,.48.29h0c0-.29-.13-.53-.13-.63h0c0-.16,0-.46.05-.67h0a1.63,1.63,0,0,1-1-1.3h0c0-.1.08-.16.19-.2h0a1.49,1.49,0,0,1,.41-.08h0c.31,0,.66,0,.84-.06h0c.15,0,.23-.16.28-.37h0c0-.22.05-.5.09-.79h0a.28.28,0,0,0,0-.09h0c0-.32-.23-.35-.37-.36h-.09a.22.22,0,0,1-.15-.06h0a11.07,11.07,0,0,0-1.2-.13h0a.38.38,0,0,0-.19,0h0l0,0,0,0a10.25,10.25,0,0,0-.51,1.2h0c-.12.24-.22.56-.35.81h0c-.13.26-.29.46-.54.46h0c-.37,0-.69-.34-1-.33h0a.35.35,0,0,0-.26.12h0a1.6,1.6,0,0,0-.43,1h0a.43.43,0,0,0,.08.28h0l.61.56h0a.18.18,0,0,1,.13-.06h0c.18,0,.39.23.59.23h0a.26.26,0,0,0,.19-.09h0a6.45,6.45,0,0,1,.48-.45h0A.74.74,0,0,1,40,44.1h0a2.28,2.28,0,0,1,.63.31Z"/><path class="cls-1" d="M37.37,35.72c.2.2.88.65,1.19.34a.9.9,0,0,0,0-1.12c-.19-.32.75-1,1.15-1.62a4.32,4.32,0,0,1-.5-.45c-.36-.36-.2-1.26-.63-1.26s-.52,1.12-.78,1.37a3.77,3.77,0,0,1-1.23.52,8.69,8.69,0,0,1,.53.82C37.32,34.67,37.17,35.52,37.37,35.72Z"/><path class="cls-1" d="M38.28,36.2a1.64,1.64,0,0,1-.93-.46h0l0,0,0,0a1.57,1.57,0,0,0,.88.44h0a.35.35,0,0,0,.26-.1h0a.7.7,0,0,0,.2-.51h0a1.14,1.14,0,0,0-.17-.58h0a.2.2,0,0,1,0-.11h0a1.54,1.54,0,0,1,.46-.71h0a8.5,8.5,0,0,0,.71-.8h0a5.12,5.12,0,0,1-.48-.44h0c-.28-.28-.26-.86-.41-1.12h0a.21.21,0,0,0-.2-.13h0c-.19,0-.32.26-.43.57h0a2.79,2.79,0,0,1-.33.8h0a4.07,4.07,0,0,1-1.2.5h0c.16.24.4.58.51.8h0a2.1,2.1,0,0,1,.11.76h0a1.15,1.15,0,0,0,.12.63h0l0,0,0,0a1.17,1.17,0,0,1-.13-.66h0a2.17,2.17,0,0,0-.1-.74h0a7.29,7.29,0,0,0-.54-.83h0v0h0a0,0,0,0,1,0,0h0A3.85,3.85,0,0,0,37.82,33h0a2.64,2.64,0,0,0,.32-.77h0c.11-.31.23-.61.48-.61h0a.26.26,0,0,1,.25.16h0a1.17,1.17,0,0,1,.12.36h0a1.57,1.57,0,0,0,.28.75h0a4.32,4.32,0,0,0,.5.45h0a.06.06,0,0,1,0,0h0a10.85,10.85,0,0,1-.73.83h0c-.25.27-.45.52-.45.67h0a.19.19,0,0,0,0,.08h0a1.23,1.23,0,0,1,.18.61h0a.77.77,0,0,1-.22.56h0a.39.39,0,0,1-.29.11h0Z"/><path class="cls-1" d="M30.27,42.16c0-.8-.82-1.3-1-1.89s-.38,0-.38,0a1.53,1.53,0,0,1-2.26.35,2.05,2.05,0,0,0-1.78-.72,5.6,5.6,0,0,1-3.67-1.75c-.4-.4-.17-.95.31-1.44a1.68,1.68,0,0,0,.29-1.27.37.37,0,0,1-.29-.1c-.44-.44-1-.19-1.91-.19a8.68,8.68,0,0,0-3.1.49c-.88.39-1.3,0-2.33,0s-1,.67-1.22.42-2.22,0-1.84.35-.38.52-.89.7c-.06.5.44,1.35.27,1.52s-.83-.1-1,.11.13.64.13,1-.63.6-.41.82,1,.33,1.31.67.84.92.84.92c.41-.32,1.38.32,1.66.32s.3.54.73.69a.47.47,0,0,0,.6-.15s-.09.86.52.95.89.72,1.27,1.1,1,0,1.33.4,1.42.11,1.64.11.36.43.6.43.75-.77.75-.77a1.48,1.48,0,0,0,1.7,0s0,.82.71.82a1.12,1.12,0,0,0,1.12-.84c.56.09,1.68-.86,1.68-.86.66.34,1.42-.45,1.42,0a1.08,1.08,0,0,0,.49.81c.27.26.82.14,1.19.15a.65.65,0,0,1,.36.16,3.06,3.06,0,0,0,.26.43c.52-.28.94-1.55,1.14-1.55a.12.12,0,0,1,.09.06C30.59,43.76,30.27,42.83,30.27,42.16Z"/><path class="cls-1" d="M22.15,45.74a1.17,1.17,0,0,1-.1-.36h0a1.49,1.49,0,0,1-.77.22h0a1.61,1.61,0,0,1-.89-.28h0l-.27.36h0c-.17.2-.35.4-.49.4h0c-.14,0-.24-.12-.33-.22h0c-.1-.11-.19-.21-.27-.21h0c-.12,0-.54.09-.94.09h0a1,1,0,0,1-.72-.2h0a.85.85,0,0,0-.64-.2h0a.91.91,0,0,1-.7-.21h0c-.38-.39-.67-1-1.25-1.09h0a.6.6,0,0,1-.46-.38h0a1.35,1.35,0,0,1-.08-.49h0v0h0a.54.54,0,0,1-.34.14h0a.79.79,0,0,1-.24,0h0a.85.85,0,0,1-.44-.41h0c-.09-.16-.17-.28-.28-.28h0a2.28,2.28,0,0,1-.6-.2h0a2.07,2.07,0,0,0-.76-.21h0a.43.43,0,0,0-.28.09h0s0,0,0,0h0s-.51-.59-.84-.92h0a1.89,1.89,0,0,0-.69-.37h0a2,2,0,0,1-.62-.3h0a.14.14,0,0,1-.06-.11h0c0-.12.13-.21.24-.33h0a.6.6,0,0,0,.22-.4h0c0-.3-.2-.63-.2-.87h0a.24.24,0,0,1,.08-.2h0a.39.39,0,0,1,.31-.09h0l.51,0h0a.3.3,0,0,0,.21,0h0a.09.09,0,0,0,0-.09h0c0-.26-.3-.87-.3-1.31h0V37.1h0s0,0,0,0h0a4.59,4.59,0,0,0,.63-.27h0c.18-.1.3-.21.29-.29h0a.12.12,0,0,0,0-.09h0a.17.17,0,0,1-.06-.12h0a.21.21,0,0,1,.14-.17h0a1.54,1.54,0,0,1,.33-.12h0a4.14,4.14,0,0,1,.87-.09h0a1,1,0,0,1,.6.11h0a.11.11,0,0,0,.07.05h0s.13-.11.28-.23h0a1.28,1.28,0,0,1,.85-.25h0c.69,0,1.11.17,1.57.17h0a1.91,1.91,0,0,0,.75-.16h0a8.56,8.56,0,0,1,3.11-.5h0c.48,0,.87-.07,1.19-.07h0a.93.93,0,0,1,.74.27h0a.33.33,0,0,0,.22.09h.07s0,0,0,0h0a2.44,2.44,0,0,1,0,.28h0a1.46,1.46,0,0,1-.31,1h0a1.46,1.46,0,0,0-.51.93h0a.62.62,0,0,0,.2.46h0a5.15,5.15,0,0,0,1.62,1.19h0a5.11,5.11,0,0,0,2,.55h0a2.09,2.09,0,0,1,1.8.72h0a1.44,1.44,0,0,0,1,.35h0a1.29,1.29,0,0,0,1.23-.68h0a.58.58,0,0,1,.05-.13h0c0-.07.07-.15.15-.15h0c.09,0,.15.08.22.28h0c.21.57,1,1.08,1,1.9h0c0,.61.28,1.46.28,2.2h0a1.09,1.09,0,0,1,0,.18h0l0,0h0s0,0,0,0h0s-.05,0-.07,0h0s-.09.06-.16.19h0c-.08.12-.17.29-.26.46h0a2.37,2.37,0,0,1-.7.9h0a2.8,2.8,0,0,1-.26-.43h0l-.11-.08h0a.45.45,0,0,0-.23-.07h0l-.57,0h0a.85.85,0,0,1-.62-.18h0a1.12,1.12,0,0,1-.5-.83h0c0-.12,0-.13-.1-.13h0a7.55,7.55,0,0,1-.91.21h0a.76.76,0,0,1-.38-.09h0a3.8,3.8,0,0,1-1.61.87h-.05a1.15,1.15,0,0,1-1.14.84h0a.67.67,0,0,1-.64-.43Zm-.06-.45,0,0h0a1.4,1.4,0,0,0,.09.4h0a.61.61,0,0,0,.59.39h0a1.09,1.09,0,0,0,1.05-.69h0a.93.93,0,0,0,0-.13h0l0,0H24a2.33,2.33,0,0,0,1-.43h0c.32-.22.58-.43.58-.43h0a.72.72,0,0,0,.37.09h0a6.09,6.09,0,0,0,.91-.22h0a.18.18,0,0,1,.12,0h0a.33.33,0,0,1,0,.15h0a.88.88,0,0,0,.24.57h0a1.06,1.06,0,0,0,.24.21h0a.78.78,0,0,0,.58.17h0l.57,0h0a.65.65,0,0,1,.38.17h0a2.93,2.93,0,0,0,.24.4h0a4.44,4.44,0,0,0,.91-1.32h0c.08-.13.14-.22.22-.22h0l.07,0h0v-.11h0c0-.73-.28-1.57-.28-2.2h0c0-.78-.81-1.28-1-1.88h0c-.07-.19-.14-.24-.17-.24h0s-.07.05-.1.11h0l-.05.13h0a1.34,1.34,0,0,1-1.28.72h0a1.5,1.5,0,0,1-1-.36h0a2,2,0,0,0-1.76-.71h0a5.24,5.24,0,0,1-2.05-.55h0a5.22,5.22,0,0,1-1.64-1.21h0a.69.69,0,0,1-.22-.5h0a1.51,1.51,0,0,1,.53-1h0a1.37,1.37,0,0,0,.29-1h0a2,2,0,0,0,0-.25h0a.36.36,0,0,1-.26-.11h0a.9.9,0,0,0-.7-.25h0c-.31,0-.7.07-1.19.07h0a8.66,8.66,0,0,0-3.09.49h0a1.83,1.83,0,0,1-.77.17h0c-.47,0-.89-.17-1.57-.17h0a1.27,1.27,0,0,0-.81.23h0c-.15.12-.2.24-.32.25h0s-.07,0-.12-.07h0a.94.94,0,0,0-.55-.09h0a3.12,3.12,0,0,0-1.17.2h0c-.08,0-.11.09-.11.12h0a.12.12,0,0,0,0,.08h0a.18.18,0,0,1,.06.13h0c0,.13-.14.24-.32.34h0a5,5,0,0,1-.62.27h0v.08h0c0,.42.3,1,.31,1.31h0a.19.19,0,0,1,0,.13h0a.34.34,0,0,1-.25.07h0l-.51,0h0a.4.4,0,0,0-.27.07h0a.21.21,0,0,0-.06.16h0c0,.21.2.55.2.87h0a.65.65,0,0,1-.24.45h0c-.11.11-.22.21-.22.28h0s0,0,0,.07h0a2.11,2.11,0,0,0,.6.28h0a2,2,0,0,1,.71.39h0c.3.29.73.79.82.9h0a.52.52,0,0,1,.3-.08h0a2.33,2.33,0,0,1,.78.21h0a2.18,2.18,0,0,0,.58.2h0c.16,0,.24.16.33.31h0a.8.8,0,0,0,.41.38h0a.6.6,0,0,0,.22,0h0a.42.42,0,0,0,.33-.15h0a0,0,0,0,0,0,0h0a0,0,0,0,1,0,0h0a.05.05,0,0,1,0,0h0v.1h0a1.22,1.22,0,0,0,.08.47h0a.5.5,0,0,0,.41.34h0c.62.09.92.74,1.29,1.1h0a.85.85,0,0,0,.65.2h0a.94.94,0,0,1,.68.21h0a1,1,0,0,0,.68.19h0c.39,0,.8-.09.94-.09h0a.52.52,0,0,1,.31.23h0a.44.44,0,0,0,.29.2h0c.09,0,.29-.18.44-.37h0c.16-.2.29-.39.29-.39h0s0,0,0,0h0a1.53,1.53,0,0,0,.88.29h0a1.46,1.46,0,0,0,.57-.12h0a.88.88,0,0,0,.21-.12h0Z"/><path class="cls-1" d="M42.15,38.91a3.54,3.54,0,0,1,1.12-.16c-.23-.29-.55-.82-.73-1s-.06-.37,0-.56c-.14,0-.2,0-.2-.24,0-.43.34-.48.34-.94s-.36-.41-.36-1.11.07-.65.07-1.23-.2-1.15.12-1.47.12-.61,0-.93a2.39,2.39,0,0,1-.45.05c-.32,0-.45.36-.78.69s-.5,1-.86,1.38c-.21.21-.47.12-.73-.07-.28.41-.8.87-1,1.22l1.1.47c.31.12.7.43.48.65s-.64.7-.9,1-.78.21-.92.53.26.74,0,1-.15.55-.54.55-.44.78-.18,1,2.43.52,2.77.91a.1.1,0,0,1,0,0,4.37,4.37,0,0,1,1.42.1c-.19-.17-.19-.66,0-.66s.39-.2.23-.36A.64.64,0,0,1,42.15,38.91Z"/><path class="cls-1" d="M42,40.69a9.19,9.19,0,0,0-1.21-.14h0a.38.38,0,0,0-.19,0h0l0,0h0a0,0,0,0,1,0,0h0a2.3,2.3,0,0,0-.94-.39h0c-.45-.12-1-.22-1.32-.32h0a1.55,1.55,0,0,1-.51-.2h0a.85.85,0,0,1-.17-.52h0c0-.28.12-.57.38-.58h0a.31.31,0,0,0,.31-.17h0a1.38,1.38,0,0,1,.21-.36h0a.25.25,0,0,0,.06-.16h0c0-.17-.13-.4-.13-.62h0a.26.26,0,0,1,0-.17h0a.64.64,0,0,1,.43-.31h0a1.24,1.24,0,0,0,.49-.23h0c.26-.26.68-.74.9-1h0a.16.16,0,0,0,.05-.12h0c0-.17-.28-.39-.52-.48h0l-1.1-.47h0l0,0h0a0,0,0,0,1,0,0h0c.24-.35.77-.81,1-1.21h0a0,0,0,0,1,0,0h0a.78.78,0,0,0,.43.18h0a.36.36,0,0,0,.26-.11h0c.35-.35.52-1,.86-1.38h0c.33-.32.45-.69.8-.7h0a2.48,2.48,0,0,0,.45-.05h0a0,0,0,0,1,0,0h0a2,2,0,0,1,.09.55h0a.58.58,0,0,1-.13.4h0a.71.71,0,0,0-.17.53h0c0,.27.06.6.06.92h0c0,.58-.07.52-.07,1.23h0a1,1,0,0,0,.17.63h0a.73.73,0,0,1,.19.48h0a.87.87,0,0,1-.17.5h0a.73.73,0,0,0-.17.44h0a.36.36,0,0,0,0,.18h0a.07.07,0,0,0,.07,0h.09a0,0,0,0,1,0,0h0a.81.81,0,0,0-.1.36h0a.25.25,0,0,0,.06.17h0c.18.18.51.71.73,1h0a0,0,0,0,1,0,0h0l-.68,0h0a1.27,1.27,0,0,0-.41.1h0a.38.38,0,0,0-.09.27h0a.68.68,0,0,0,.14.42h0a.19.19,0,0,1,.07.15h0A.3.3,0,0,1,42,40h0s0,0-.06.06h0a.63.63,0,0,0,0,.16h0a.52.52,0,0,0,.13.38h0s0,0,0,0h0s0,0,0,0Zm-.07-.08a.65.65,0,0,1-.1-.36h0a.54.54,0,0,1,0-.19h0A.13.13,0,0,1,42,40h0a.28.28,0,0,0,.18-.06h0a.19.19,0,0,0,.08-.14h0a.14.14,0,0,0-.05-.11h0A.69.69,0,0,1,42,39.2h0a.46.46,0,0,1,.1-.31h0a1.08,1.08,0,0,1,.45-.12h0l.63,0h0c-.22-.31-.53-.8-.69-1h0a.28.28,0,0,1-.08-.21h0a.94.94,0,0,1,.08-.33h0a.14.14,0,0,1-.12-.07h0a.41.41,0,0,1,0-.21h0a.77.77,0,0,1,.18-.48h0a.74.74,0,0,0,.16-.46h0a.66.66,0,0,0-.18-.45h0a1,1,0,0,1-.18-.66h0c0-.71.07-.66.07-1.23h0c0-.31-.06-.64-.06-.92h0a.76.76,0,0,1,.19-.57h0a.55.55,0,0,0,.11-.36h0a2.17,2.17,0,0,0-.08-.51h0a3,3,0,0,1-.43,0h0c-.29,0-.42.34-.76.68h0c-.32.32-.49,1-.86,1.38h0a.41.41,0,0,1-.3.13h0a.73.73,0,0,1-.44-.18h0c-.28.4-.77.83-1,1.17h0c.28.12.84.37,1.06.45h0c.25.1.56.31.56.54h0a.21.21,0,0,1-.07.16h0c-.22.22-.64.7-.9,1h0a1.22,1.22,0,0,1-.51.25h0a.58.58,0,0,0-.4.28h0a.32.32,0,0,0,0,.14h0c0,.2.13.43.13.62h0a.26.26,0,0,1-.08.2h0a1.37,1.37,0,0,0-.2.35h0a.38.38,0,0,1-.36.21h0a.24.24,0,0,0-.23.15h0a.71.71,0,0,0-.09.36h0a.71.71,0,0,0,.16.48h0a1.59,1.59,0,0,0,.47.18h0l.86.21h0a4.14,4.14,0,0,1,1.41.49h0l0,0h0s.11,0,.23,0h0a9.65,9.65,0,0,1,1.14.12Z"/><path class="cls-1" d="M29.9,39.3c.21-.22,1.2,0,1.86,0s.72.71,1,.44.56-.56.88-.56.74-.29.54-.49-1.52-.4-1.52-.66.6,0,1,0,0-.34,0-.88.58-.58,1-.95-.2-.89-.34-1.35a1.94,1.94,0,0,0-1-1.23A11.33,11.33,0,0,1,30.9,32.1c-.46-.46-.63-.09-1.61.17a2.44,2.44,0,0,1-1.83-.2c-.36-.11-1-.33-1.38-.48a.63.63,0,0,1-.52.38c-.5,0-2.95.42-2.95,1.07s.54,1.19.31,1.42-.74.93-1.17,1a1.68,1.68,0,0,1-.29,1.27c-.48.49-.71,1-.31,1.44a5.6,5.6,0,0,0,3.67,1.75,2.05,2.05,0,0,1,1.78.72,1.53,1.53,0,0,0,2.26-.35C28.86,39.73,29.68,39.51,29.9,39.3Z"/><path class="cls-1" d="M27.61,41a1.5,1.5,0,0,1-1-.36h0a2,2,0,0,0-1.76-.71h0a5.24,5.24,0,0,1-2.05-.55h0a5.22,5.22,0,0,1-1.64-1.21h0a.69.69,0,0,1-.22-.5h0a1.51,1.51,0,0,1,.53-1h0a1.37,1.37,0,0,0,.29-1h0a2.53,2.53,0,0,0,0-.28h0a0,0,0,0,1,0,0h0c.41,0,1-.78,1.14-1h0a.17.17,0,0,0,.05-.13h0c0-.25-.36-.72-.36-1.27h0c0-.18.17-.33.41-.47h0a4.86,4.86,0,0,1,.9-.34h0a8.75,8.75,0,0,1,1.67-.29h0a.58.58,0,0,0,.49-.37h0s0,0,0,0h0c.4.15,1,.37,1.38.48h0a3.56,3.56,0,0,0,1.13.3h0a2.85,2.85,0,0,0,.69-.1h0a9.41,9.41,0,0,1,1.2-.39h0a.6.6,0,0,1,.43.22h0a10.63,10.63,0,0,0,2.34,1.49h0a2,2,0,0,1,1,1.25h0c.1.34.46.72.46,1.07h0a.39.39,0,0,1-.13.31h0a3.16,3.16,0,0,1-.62.41h0a.6.6,0,0,0-.32.52h0a5.14,5.14,0,0,0,.18.78h0a.1.1,0,0,1,0,.1h0a.26.26,0,0,1-.16,0h0c-.26,0-.6-.09-.8-.09h0l-.13,0h0a.08.08,0,0,0,0,.07h0s.07.1.19.16h0c.13.06.3.11.47.17h0a3.08,3.08,0,0,1,.85.31h0a.2.2,0,0,1,.06.14h0c0,.11-.09.2-.21.28h0a.88.88,0,0,1-.41.12h0c-.3,0-.59.28-.86.55h0a.17.17,0,0,1-.14.07h0c-.12,0-.19-.14-.32-.26h0a.73.73,0,0,0-.55-.24h0c-.44,0-1-.1-1.43-.1h0a.63.63,0,0,0-.41.09h0l0,0,0,0c-.24.22-1,.44-1,1h0a1.34,1.34,0,0,1-1.28.72Zm-1-.41a1.44,1.44,0,0,0,1,.35h0a1.26,1.26,0,0,0,1.22-.68h0c0-.57.85-.78,1-1h0a.71.71,0,0,1,.46-.1h0c.41,0,1,.1,1.43.1h0a.81.81,0,0,1,.6.26h0c.12.13.21.25.27.24h0a.14.14,0,0,0,.1-.05h0c.27-.27.56-.57.9-.57h0A.92.92,0,0,0,34,39h0a.34.34,0,0,0,.18-.23h0a.16.16,0,0,0,0-.1h0a2.1,2.1,0,0,0-.56-.22h0a6.36,6.36,0,0,1-.74-.25h0c-.13-.06-.23-.11-.23-.21h0a.14.14,0,0,1,.07-.12h0a.35.35,0,0,1,.16,0h0c.22,0,.55.1.8.09h0a.31.31,0,0,0,.13,0h0s0,0,0-.05h0a4.6,4.6,0,0,1-.18-.78h0a.64.64,0,0,1,.35-.57h0a3.2,3.2,0,0,0,.61-.4h0a.38.38,0,0,0,.11-.27h0c0-.31-.35-.69-.46-1.05h0a1.94,1.94,0,0,0-1-1.22h0a11,11,0,0,1-2.36-1.49h0a.54.54,0,0,0-.39-.21h0c-.24,0-.54.22-1.19.39h0a2.92,2.92,0,0,1-.7.1h0a3.48,3.48,0,0,1-1.15-.3h0c-.36-.11-.95-.33-1.36-.48h0a.63.63,0,0,1-.53.38h0a7.69,7.69,0,0,0-2.55.63h0c-.23.13-.37.27-.37.41h0c0,.53.36,1,.36,1.27h0a.27.27,0,0,1-.06.17h0c-.18.18-.71.9-1.16,1h0a2.17,2.17,0,0,1,0,.26h0a1.46,1.46,0,0,1-.31,1h0a1.46,1.46,0,0,0-.51.93h0a.62.62,0,0,0,.2.46h0a5.15,5.15,0,0,0,1.62,1.19h0a5.11,5.11,0,0,0,2,.55h0a2.11,2.11,0,0,1,1.79.72Z"/><path class="cls-1" d="M34.7,38.25c.73.19.93.93,1.31.93s.53.47.91.86.65,0,.91-.31l0,0c-.26-.26-.21-1,.18-1s.32-.33.54-.55-.17-.63,0-1,.66-.27.92-.53.68-.74.9-1-.17-.53-.48-.65l-1.1-.47c-.11.16-.16.3-.1.4a.9.9,0,0,1,0,1.12c-.31.31-1-.14-1.19-.34s0-1-.23-1.4a8.69,8.69,0,0,0-.53-.82,4.26,4.26,0,0,1-.89.17c-.43,0-.55-.91.11-1.06a.51.51,0,0,0,0-1c-.48,0-.56.33-1.37.4s0,.75-.43.75-.35-.89-.92-.89-.69-1-.69-1c.52-.52.26-.89-.17-1.06s-.75.4-1.49.4-.13-1.39-.4-1.66a1.64,1.64,0,0,1-.19-1,6.29,6.29,0,0,0-.64.09c-.8,1.62-1.65.29-2.06,1a3,3,0,0,1-1.76,1c.76.35,0,.85.34,1.15a.66.66,0,0,1,0,.73c.4.15,1,.37,1.38.48a2.44,2.44,0,0,0,1.83.2c1-.26,1.15-.63,1.61-.17a11.33,11.33,0,0,0,2.35,1.49,1.94,1.94,0,0,1,1,1.23c.14.46.71,1,.34,1.35s-1,.4-1,.95.41.88,0,.88-1-.22-1,0,.85.38,1.29.54C34.1,38.38,34.23,38.13,34.7,38.25Z"/><path class="cls-1" d="M36.9,40.06c-.39-.39-.55-.86-.89-.85h0c-.21,0-.36-.2-.54-.41h0a1.6,1.6,0,0,0-.78-.52h0v-.06a1.58,1.58,0,0,1,.8.54h0c.19.22.33.39.5.39h0c.4,0,.55.49.94.87h0a.26.26,0,0,0,.2.08h0a1.09,1.09,0,0,0,.63-.36h0l0,0h0a.85.85,0,0,1-.17-.52h0c0-.28.12-.57.38-.58h0a.31.31,0,0,0,.31-.17h0a1.38,1.38,0,0,1,.21-.36h0a.25.25,0,0,0,.06-.16h0c0-.17-.13-.4-.14-.62h0a.35.35,0,0,1,0-.17h0a.64.64,0,0,1,.43-.31h0a1.24,1.24,0,0,0,.49-.23h0c.26-.26.68-.74.9-1h0a.16.16,0,0,0,.05-.12h0c0-.17-.28-.39-.52-.48h0l-1.08-.46h0a.5.5,0,0,0-.11.26h0a.19.19,0,0,0,0,.08h0a1.23,1.23,0,0,1,.18.61h0a.77.77,0,0,1-.22.56h0a.4.4,0,0,1-.3.11h0a1.64,1.64,0,0,1-.93-.46h0a1.17,1.17,0,0,1-.13-.66h0a2.17,2.17,0,0,0-.1-.74h0a7,7,0,0,0-.53-.81h0a3.91,3.91,0,0,1-.87.17h0c-.24,0-.38-.25-.38-.5h0a.61.61,0,0,1,.49-.62h0a.47.47,0,0,0,.41-.47h0a.45.45,0,0,0-.41-.47h0a1.15,1.15,0,0,0-.55.17h0a2.14,2.14,0,0,1-.82.23h0c-.3,0-.35.12-.35.23h0c0,.13.08.28.08.39h0a.11.11,0,0,1,0,.09h0a.16.16,0,0,1-.12,0h0c-.24,0-.33-.25-.44-.47h0c-.1-.22-.21-.42-.48-.42h0a.68.68,0,0,1-.59-.51h0a2.11,2.11,0,0,1-.13-.5h0a0,0,0,0,1,0,0h0a.77.77,0,0,0,.28-.52h0c0-.22-.19-.39-.44-.49h0l-.16,0h0c-.33,0-.66.43-1.32.43h0a.37.37,0,0,1-.34-.17h0a.86.86,0,0,1-.08-.41h0c0-.27.06-.59.06-.82h0a.37.37,0,0,0-.07-.27h0a1.61,1.61,0,0,1-.19-.94h0c-.28,0-.5.06-.59.07h0c-.34.7-.71.86-1.05.86h0c-.25,0-.47-.09-.66-.08h0a.37.37,0,0,0-.35.2h0a2.92,2.92,0,0,1-1.69,1h0a.49.49,0,0,1,.3.43h0c0,.19-.1.37-.1.51h0a.24.24,0,0,0,.07.18h0a.46.46,0,0,1,.13.36h0a1,1,0,0,1-.08.37h0c.4.15,1,.36,1.35.47h0a3.56,3.56,0,0,0,1.13.3h0a2.85,2.85,0,0,0,.69-.1h0a9.41,9.41,0,0,1,1.2-.39h0a.6.6,0,0,1,.43.22h0a10.63,10.63,0,0,0,2.34,1.49h0a2,2,0,0,1,1,1.25h0c.1.34.46.72.46,1.07h0a.36.36,0,0,1-.13.31h0a3.16,3.16,0,0,1-.62.41h0a.6.6,0,0,0-.32.52h0a5.14,5.14,0,0,0,.18.78h0a.1.1,0,0,1,0,.1h0a.26.26,0,0,1-.16,0h0c-.26,0-.6-.09-.8-.09h0l-.13,0h0a.08.08,0,0,0,0,.07h0s0,.08.12.13h0l.34.13h0c.26.09.57.17.79.25h0a.65.65,0,0,1,.55-.35h0l.23,0h0v.06l-.21,0h0c-.28,0-.38.18-.52.34h0s0,0,0,0h0a9.66,9.66,0,0,1-1.15-.39h0c-.09-.05-.16-.1-.16-.18h0a.14.14,0,0,1,.07-.12h0a.38.38,0,0,1,.16,0h0c.22,0,.55.1.8.09h0a.31.31,0,0,0,.13,0h0s0,0,0-.05h0a4.6,4.6,0,0,1-.18-.78h0a.64.64,0,0,1,.35-.57h0a3.2,3.2,0,0,0,.61-.4h0a.38.38,0,0,0,.11-.27h0c0-.31-.35-.69-.46-1.05h0a1.94,1.94,0,0,0-1-1.22h0a11,11,0,0,1-2.36-1.49h0a.54.54,0,0,0-.39-.21h0c-.24,0-.54.22-1.19.39h0a2.92,2.92,0,0,1-.7.1h0a3.48,3.48,0,0,1-1.15-.3h0c-.36-.11-1-.34-1.38-.49h0v0h0a.84.84,0,0,0,.09-.37h0a.43.43,0,0,0-.11-.32h0a.31.31,0,0,1-.09-.22h0c0-.17.1-.34.1-.51h0c0-.14-.06-.28-.34-.41h0s0,0,0,0h0a0,0,0,0,1,0,0h0a6.28,6.28,0,0,0,.7-.23h0a2.2,2.2,0,0,0,1-.79h0a.42.42,0,0,1,.4-.23h0c.2,0,.43.08.66.08h0c.32,0,.66-.14,1-.84h0a5.94,5.94,0,0,1,.63-.09h0s0,0,0,0h0a1.56,1.56,0,0,0,.18.94h0a.46.46,0,0,1,.08.31h0c0,.24-.06.56-.06.82h0a.83.83,0,0,0,.07.38h0a.31.31,0,0,0,.29.14h0c.63,0,.94-.43,1.32-.43h0a.57.57,0,0,1,.18,0h0c.27.11.48.29.48.55h0a.83.83,0,0,1-.29.55h0a2,2,0,0,0,.13.47h0c.1.24.26.47.53.47h0c.31,0,.44.24.54.46h0c.1.22.19.43.38.43h0c.09,0,.1,0,.1-.07h0a3.7,3.7,0,0,1-.08-.39h0c0-.14.1-.27.4-.29h0a1.92,1.92,0,0,0,.81-.23h0a1.13,1.13,0,0,1,.57-.17h0a.5.5,0,0,1,.47.53h0a.54.54,0,0,1-.46.53h0a.55.55,0,0,0-.44.56h0a.54.54,0,0,0,.09.31h0a.28.28,0,0,0,.23.13h0a4.19,4.19,0,0,0,.88-.17h0s0,0,0,0h0a6.5,6.5,0,0,1,.54.83h0a2.1,2.1,0,0,1,.11.76h0a1.15,1.15,0,0,0,.12.63h0a1.57,1.57,0,0,0,.88.44h0a.35.35,0,0,0,.26-.1h0a.7.7,0,0,0,.2-.51h0a1.14,1.14,0,0,0-.17-.58h0a.2.2,0,0,1,0-.11h0a.66.66,0,0,1,.14-.32h0c.28.12.87.39,1.1.47h0c.25.1.56.31.56.54h0a.18.18,0,0,1-.07.16h0c-.22.22-.64.7-.9,1h0a1.22,1.22,0,0,1-.51.25h0a.58.58,0,0,0-.4.28h0a.32.32,0,0,0,0,.14h0c0,.2.13.43.13.62h0a.26.26,0,0,1-.08.2h0a1.37,1.37,0,0,0-.2.35h0a.38.38,0,0,1-.36.21h0a.24.24,0,0,0-.23.15h0a.71.71,0,0,0-.09.36h0a.71.71,0,0,0,.16.48h0l0,0h0l0,0h0a0,0,0,0,1,0,0h0a1.23,1.23,0,0,1-.7.4h0a.34.34,0,0,1-.24-.1Z"/><path class="cls-1" d="M37.83,39.73c-.26.26-.66.56-.91.31s-.54-.86-.91-.86-.58-.74-1.31-.93c-.47-.12-.6.13-.76.32a.68.68,0,0,1,.23.12c.2.2-.23.49-.54.49s-.61.29-.88.56-.33-.44-1-.44-1.65-.22-1.86,0-1,.43-1,1c0,0,.16-.59.38,0s1,1.09,1,1.89.32,1.6.27,2.38c.16.21.24,1,.41,1.14s.55-.55.8-.55,0,.5,0,.8.55.12.63.4.55.68.8.94.64,1.29.92,1a4,4,0,0,1,.79-.53,3.83,3.83,0,0,1,.89-2.49c.33-.32.58.33.87.61s.28-.28.51-.28.1.61.27.78v0a.94.94,0,0,0,1-.8c0-.48-.4-.66-.25-.85l-.63-.59c-.22-.22,0-.95.35-1.34s.8.21,1.26.21.63-.76.86-1.26.35-1,.48-1.15C40.22,40.24,38.24,40,37.83,39.73Z"/><path class="cls-1" d="M34,48.36c-.16,0-.3-.22-.45-.46h0a3.85,3.85,0,0,0-.39-.61h0c-.25-.26-.72-.64-.81-.95h0c0-.09-.1-.13-.21-.15h0a1.07,1.07,0,0,1-.32-.08h0a.19.19,0,0,1-.1-.18h0c0-.2.08-.47.08-.63h0c0-.1,0-.14-.09-.14h0c-.08,0-.22.13-.34.28h0c-.14.15-.26.3-.39.31h0a.12.12,0,0,1-.09,0h0a1.41,1.41,0,0,1-.22-.57h0a2.44,2.44,0,0,0-.19-.58h0s0,0,0,0h0a.91.91,0,0,0,0-.17h0c0-.73-.28-1.57-.28-2.2h0c0-.78-.81-1.28-1-1.88h0c-.07-.19-.14-.24-.17-.24h0s-.07.05-.1.11h0l-.05.13h0l0,0h0a0,0,0,0,1,0,0h0c0-.58.85-.79,1-1h0a.71.71,0,0,1,.46-.1h0c.41,0,1,.1,1.43.1h0a.81.81,0,0,1,.6.26h0c.12.13.21.25.27.24h0a.14.14,0,0,0,.1-.05h0c.27-.27.56-.57.9-.57h0A.92.92,0,0,0,34,39h0a.34.34,0,0,0,.18-.23h0a.16.16,0,0,0,0-.1h0a.87.87,0,0,0-.22-.11h0a0,0,0,0,1,0,0h0a0,0,0,0,1,0,0h0a.68.68,0,0,1,.56-.36h0l.23,0h0a1.65,1.65,0,0,1,.8.54h0c.19.22.33.39.5.39h0c.4,0,.55.49.94.87h0a.26.26,0,0,0,.2.08h0a1.13,1.13,0,0,0,.66-.39h0a9,9,0,0,0,1.39.38h0a3.49,3.49,0,0,1,1.34.5h0a0,0,0,0,1,0,0h0c-.12.19-.26.7-.47,1.16h0c-.12.24-.22.56-.35.81h0c-.13.26-.29.46-.54.46h0c-.37,0-.69-.34-1-.33h0a.35.35,0,0,0-.26.12h0a1.6,1.6,0,0,0-.43,1h0a.43.43,0,0,0,.08.28h0c.12.12.39.37.63.58h0s0,0,0,0h0a.12.12,0,0,0,0,.08h0c0,.06.06.16.14.27h0a1,1,0,0,1,.14.49h0a1,1,0,0,1-1,.83h-.08v0h0c-.15-.15-.1-.53-.16-.69h0c0-.06,0-.08-.09-.08h0c-.07,0-.12.07-.17.17h0c-.05.08-.1.19-.2.19h0a.24.24,0,0,1-.17-.08h0a5.12,5.12,0,0,1-.34-.44h0c-.1-.15-.22-.26-.32-.26h0a.2.2,0,0,0-.15.08h0a4,4,0,0,0-.91,2.22h0a.62.62,0,0,0,0,.24h0a.05.05,0,0,1,0,0h0a2.92,2.92,0,0,0-.29.16h0a2.87,2.87,0,0,0-.49.37h0a.18.18,0,0,1-.12,0Zm-2.17-3.2a.22.22,0,0,1,0,.14h0c0,.18-.08.45-.08.63h0a.14.14,0,0,0,.07.13h0l.19,0h0c.15,0,.32,0,.37.22h0c.07.26.54.66.8.92h0a3.77,3.77,0,0,1,.39.62h0c.14.24.3.44.4.43h0a.1.1,0,0,0,.08,0h0a3.8,3.8,0,0,1,.77-.53h0a1.64,1.64,0,0,1,0-.23h0a4.23,4.23,0,0,1,.93-2.26h0a.29.29,0,0,1,.2-.1h0c.15,0,.26.13.37.28h0a3.07,3.07,0,0,0,.34.43h0a.15.15,0,0,0,.12.07h0c.05,0,.1-.07.15-.16h0c.05-.09.11-.2.22-.2h0a.15.15,0,0,1,.14.12h0a.71.71,0,0,1,0,.23h0a.82.82,0,0,0,.1.44h0a1,1,0,0,0,.64-.24h0a.73.73,0,0,0,.27-.53h0a.8.8,0,0,0-.14-.45h0a.7.7,0,0,1-.14-.31h0a.15.15,0,0,1,0-.09h0l-.61-.57h0a.46.46,0,0,1-.1-.32h0a1.64,1.64,0,0,1,.45-1.06h0a.43.43,0,0,1,.3-.13h0c.33,0,.65.34,1,.33h0c.21,0,.36-.17.49-.42h0c.13-.25.23-.57.34-.82h0c.2-.44.34-.92.47-1.14h0a4,4,0,0,0-1.3-.46h0a9.34,9.34,0,0,1-1.38-.38h0a1.19,1.19,0,0,1-.68.39h0a.35.35,0,0,1-.25-.1h0c-.39-.39-.55-.86-.89-.85h0c-.21,0-.36-.2-.54-.41h0a1.6,1.6,0,0,0-.78-.52h0l-.21,0h0a.59.59,0,0,0-.49.31h0a.71.71,0,0,1,.2.11h0a.2.2,0,0,1,.06.14h0c0,.11-.09.2-.21.28h0a.88.88,0,0,1-.41.12h0c-.3,0-.59.28-.86.55h0a.17.17,0,0,1-.14.07h0c-.12,0-.19-.14-.32-.26h0a.73.73,0,0,0-.55-.24h0c-.44,0-1-.1-1.43-.1h0a.63.63,0,0,0-.41.09h0c-.19.18-.75.36-1,.69h0A.09.09,0,0,1,29,40h0c.09,0,.15.08.22.28h0c.21.57,1,1.08,1,1.9h0c0,.61.28,1.46.28,2.2h0a1,1,0,0,1,0,.17h0a2,2,0,0,1,.2.59h0a1.38,1.38,0,0,0,.2.54h0s0,0,.05,0h0c.08,0,.21-.14.34-.29h0c.13-.14.26-.3.39-.3h0a.12.12,0,0,1,.12.06Zm5.94-5.4,0,0,0,0Z"/><circle class="cls-2" cx="22.36" cy="28.27" r="1.09"/><path class="cls-2" d="M22.36,29.76a1.5,1.5,0,1,1,1.5-1.49A1.49,1.49,0,0,1,22.36,29.76Zm0-2.92a1.43,1.43,0,1,0,1.42,1.43A1.43,1.43,0,0,0,22.36,26.84Z"/><g class="cls-3"><path class="cls-2" d="M22.36,30.25a2,2,0,1,1,2-2A2,2,0,0,1,22.36,30.25Zm0-3.9a1.92,1.92,0,1,0,1.91,1.92A1.92,1.92,0,0,0,22.36,26.35Z"/></g><circle class="cls-2" cx="49.8" cy="41.35" r="1.09"/><path class="cls-2" d="M49.8,42.85a1.5,1.5,0,1,1,1.5-1.5A1.5,1.5,0,0,1,49.8,42.85Zm0-2.92a1.42,1.42,0,1,0,1.43,1.42A1.43,1.43,0,0,0,49.8,39.93Z"/><g class="cls-3"><path class="cls-2" d="M49.8,43.34a2,2,0,1,1,2-2A2,2,0,0,1,49.8,43.34Zm0-3.9a1.92,1.92,0,1,0,1.92,1.91A1.92,1.92,0,0,0,49.8,39.44Z"/></g><circle class="cls-2" cx="50.9" cy="26.58" r="1.09"/><path class="cls-2" d="M50.9,28.08a1.5,1.5,0,1,1,1.49-1.5A1.5,1.5,0,0,1,50.9,28.08Zm0-2.92a1.42,1.42,0,1,0,1.42,1.42A1.42,1.42,0,0,0,50.9,25.16Z"/><g class="cls-3"><path class="cls-2" d="M50.9,28.57a2,2,0,1,1,2-2A2,2,0,0,1,50.9,28.57Zm0-3.9a1.91,1.91,0,1,0,1.91,1.91A1.92,1.92,0,0,0,50.9,24.67Z"/></g><circle class="cls-2" cx="42.5" cy="56.11" r="1.09"/><path class="cls-2" d="M42.5,57.64A1.53,1.53,0,1,1,44,56.11,1.53,1.53,0,0,1,42.5,57.64Zm0-2.91a1.39,1.39,0,1,0,1.38,1.38A1.38,1.38,0,0,0,42.5,54.73Z"/><g class="cls-3"><path class="cls-2" d="M42.5,58.14a2,2,0,1,1,2-2A2,2,0,0,1,42.5,58.14Zm0-3.9a1.88,1.88,0,1,0,1.88,1.87A1.88,1.88,0,0,0,42.5,54.24Z"/></g><path class="cls-2" d="M49.8,41.41c-10.17-.18-17.11-3.74-21.13-6.69a25.53,25.53,0,0,1-6.36-6.43l.1-.05a25.87,25.87,0,0,0,6.33,6.4c4,2.94,10.92,6.48,21.07,6.66Z"/><path class="cls-4" d="M36.49,39.05a33.51,33.51,0,0,1-7.87-4.25l.17-.24a32.82,32.82,0,0,0,7.81,4.22Z"/><path class="cls-2" d="M42.45,56.13A37,37,0,0,1,41.27,45a26.82,26.82,0,0,1,2.22-9.72,20.68,20.68,0,0,1,7.38-8.72l.06.09a20.55,20.55,0,0,0-7.34,8.68A26.76,26.76,0,0,0,41.38,45,37.45,37.45,0,0,0,42.55,56.1Z"/><path class="cls-5" d="M41.66,42.83l-.29,0A30.22,30.22,0,0,1,43,36.14l.27.11A30.16,30.16,0,0,0,41.66,42.83Z"/><path class="cls-2" d="M27.94,33.91l2.4.41a.13.13,0,0,1,.05.24l-.91.62-.31,1.06a.14.14,0,0,1-.25,0L27.8,34.1A.13.13,0,0,1,27.94,33.91Z"/><path class="cls-6" d="M29,36.4a.21.21,0,0,1-.18-.11l-1.12-2.15a.2.2,0,0,1,.21-.3h0l2.4.41a.21.21,0,0,1,.17.16.22.22,0,0,1-.09.21l-.89.61-.3,1a.22.22,0,0,1-.18.14ZM27.92,34a.06.06,0,0,0-.05,0s0,0,0,.06L29,36.22a.06.06,0,0,0,.06,0,.06.06,0,0,0,.05,0l.32-1.08.93-.63a.06.06,0,0,0,0-.06.06.06,0,0,0,0,0L27.93,34Z"/><path class="cls-2" d="M43.82,35,44,37.41a.13.13,0,0,1-.22.11l-.81-.75-1.1-.07a.13.13,0,0,1-.07-.23l1.85-1.58A.13.13,0,0,1,43.82,35Z"/><path class="cls-7" d="M43.82,37.63a.2.2,0,0,1-.14-.06l-.79-.73-1.07-.07a.18.18,0,0,1-.18-.14.19.19,0,0,1,.06-.22l1.86-1.58a.2.2,0,0,1,.21,0,.2.2,0,0,1,.12.18L44,37.41a.22.22,0,0,1-.12.2Zm-.13-2.7h0l-1.86,1.58s0,.06,0,.07a.07.07,0,0,0,0,0L43,36.7l.83.77a.1.1,0,0,0,.07,0,.07.07,0,0,0,0-.06L43.75,35s0,0,0,0Z"/></svg>