<svg id="图层_1" data-name="图层 1" xmlns="http://www.w3.org/2000/svg" viewBox="0 0 380.52 259.41"><defs><style>.cls-1{fill:#334866;}</style></defs><title>画板 4</title><path class="cls-1" d="M3.15,94.81V135l2.57-1.34V93.47Z"/><path class="cls-1" d="M168,250.79H26.49A20.8,20.8,0,0,1,5.72,230V183.4L3.15,186V230a23.37,23.37,0,0,0,23.34,23.34H168Z"/><rect class="cls-1" x="212.96" y="250.79" width="87.05" height="2.56"/><path class="cls-1" d="M47.66,9.71H26.49A23.37,23.37,0,0,0,3.15,33.05V47.36l2.57-2.57V33.05A20.8,20.8,0,0,1,26.49,12.28l22.55,0Z"/><polygon class="cls-1" points="84.27 9.69 85.72 12.28 251.79 12.28 251.79 9.71 84.27 9.69"/><path class="cls-1" d="M375.37,33.05v6l1.27-.9,1.3-.94V33.05A23.37,23.37,0,0,0,354.6,9.71H274.3v2.57h80.3A20.79,20.79,0,0,1,375.37,33.05Z"/><path class="cls-1" d="M376.92,93.37c-.54.32-1.07.65-1.6,1V214.84l2.68-.05V92.71Z"/><path class="cls-1" d="M375.37,230a20.79,20.79,0,0,1-20.77,20.77H312.06v2.57H354.6A23.37,23.37,0,0,0,377.94,230V216.27l-2.57.06Z"/><polygon class="cls-1" points="261.29 14.07 258.33 8.35 246.14 8.35 246.14 14.07 261.29 14.07"/><polygon class="cls-1" points="267.42 8.35 270.39 14.07 282.58 14.07 282.58 8.35 267.42 8.35"/><polygon class="cls-1" points="303.17 255.32 300.2 249.6 288.01 249.6 288.01 255.32 303.17 255.32"/><polygon class="cls-1" points="309.3 249.6 312.26 255.32 324.45 255.32 324.45 249.6 309.3 249.6"/><circle class="cls-1" cx="4.43" cy="145" r="4.15"/><circle class="cls-1" cx="4.43" cy="159.18" r="4.15"/><circle class="cls-1" cx="4.43" cy="173.36" r="4.15"/><circle class="cls-1" cx="4.43" cy="56.23" r="4.15"/><circle class="cls-1" cx="4.43" cy="70.41" r="4.15"/><circle class="cls-1" cx="4.43" cy="84.59" r="4.15"/><circle class="cls-1" cx="376.66" cy="51.7" r="4.15"/><circle class="cls-1" cx="376.66" cy="65.88" r="4.15"/><circle class="cls-1" cx="376.66" cy="80.06" r="4.15"/><polygon class="cls-1" points="54.93 2.12 50.57 2.12 48.39 5.89 50.57 9.67 54.93 9.67 57.11 5.89 54.93 2.12"/><polygon class="cls-1" points="56.15 0 49.35 0 45.94 5.89 49.35 11.79 56.15 11.79 59.56 5.89 56.15 0"/><polygon class="cls-1" points="82.75 12.33 78.39 12.33 76.21 16.1 78.39 19.88 82.75 19.88 84.93 16.1 82.75 12.33"/><polygon class="cls-1" points="83.97 10.21 77.17 10.21 73.76 16.1 77.17 22 83.97 22 87.38 16.1 83.97 10.21"/><polygon class="cls-1" points="203.04 245.04 177.74 245.04 165.09 252.22 177.74 259.41 203.04 259.41 215.69 252.22 203.04 245.04"/></svg>