<svg id="图层_1" data-name="图层 1" xmlns="http://www.w3.org/2000/svg" viewBox="0 0 364.48 257"><defs><style>.cls-1{fill:#334866;}</style></defs><title>画板 6</title><path class="cls-1" d="M354.07,256.38H12L.29,242.18V11.66L15.49,0H352.57l12.2,11.69V245.17Zm-341.65-1H353.64l10.13-10.61V12.12L352.17,1H15.83L1.29,12.15V241.81Z"/><path class="cls-1" d="M20.18,39.58A6.85,6.85,0,1,1,27,32.73,6.86,6.86,0,0,1,20.18,39.58Zm0-12.69A5.85,5.85,0,1,0,26,32.73,5.86,5.86,0,0,0,20.18,26.89Z"/><polygon class="cls-1" points="25.11 28.71 24.41 27.99 52.62 0.5 167.6 0.5 167.6 1.5 53.03 1.5 25.11 28.71"/><path class="cls-1" d="M348,231.62a6.85,6.85,0,1,1,6.85-6.85A6.85,6.85,0,0,1,348,231.62Zm0-12.69a5.85,5.85,0,1,0,5.85,5.84A5.85,5.85,0,0,0,348,218.93Z"/><polygon class="cls-1" points="315.58 257 200.6 257 200.6 256 315.17 256 343.1 228.8 343.79 229.51 315.58 257"/></svg>