<svg id="图层_1" data-name="图层 1" xmlns="http://www.w3.org/2000/svg" viewBox="0 0 372.3 258"><defs><style>.cls-1{fill:#334866;}</style></defs><title>画板 7</title><path class="cls-1" d="M4.66,150.79h-1V28.12A28.15,28.15,0,0,1,31.78,0H340.54a28.15,28.15,0,0,1,28.12,28.12V68.93h-1V28.12A27.16,27.16,0,0,0,340.54,1H31.78A27.15,27.15,0,0,0,4.66,28.12Z"/><path class="cls-1" d="M340.54,258H31.78A28.15,28.15,0,0,1,3.66,229.88V211h1v18.92A27.15,27.15,0,0,0,31.78,257H340.54a27.16,27.16,0,0,0,27.12-27.12V124.2h1V229.88A28.15,28.15,0,0,1,340.54,258Z"/><circle class="cls-1" cx="368.15" cy="82.59" r="4.15"/><circle class="cls-1" cx="368.15" cy="96.77" r="4.15"/><circle class="cls-1" cx="368.15" cy="110.95" r="4.15"/><circle class="cls-1" cx="4.15" cy="167.59" r="4.15"/><circle class="cls-1" cx="4.15" cy="181.77" r="4.15"/><circle class="cls-1" cx="4.15" cy="195.95" r="4.15"/></svg>