<svg id="图层_1" data-name="图层 1" xmlns="http://www.w3.org/2000/svg" viewBox="0 0 374.58 258"><defs><style>.cls-1{fill:#334866;}</style></defs><title>画板 8</title><polygon class="cls-1" points="5.61 150.79 4.61 150.79 4.61 0 369.61 0 369.61 68.93 368.61 68.93 368.61 1 5.61 1 5.61 150.79"/><polygon class="cls-1" points="369.61 258 4.61 258 4.61 210.96 5.61 210.96 5.61 257 368.61 257 368.61 124.2 369.61 124.2 369.61 258"/><polygon class="cls-1" points="369.29 84.95 364 75.79 374.57 75.79 369.29 84.95"/><polygon class="cls-1" points="369.29 100.93 364 91.77 374.57 91.77 369.29 100.93"/><polygon class="cls-1" points="369.29 116.91 364 107.75 374.57 107.75 369.29 116.91"/><polygon class="cls-1" points="5.29 168.95 0 159.79 10.57 159.79 5.29 168.95"/><polygon class="cls-1" points="5.29 184.93 0 175.77 10.57 175.77 5.29 184.93"/><polygon class="cls-1" points="5.29 200.91 0 191.75 10.57 191.75 5.29 200.91"/></svg>