<svg id="图层_1" data-name="图层 1" xmlns="http://www.w3.org/2000/svg" viewBox="0 0 368.12 244.96"><defs><style>.cls-1{fill:#009be9;}</style></defs><title>画板 9</title><polygon class="cls-1" points="2.67 76.67 0.67 76.67 0.67 21.54 10.89 10.89 21.57 0.67 91.67 0.67 91.67 2.67 22.37 2.67 12.3 12.3 2.67 22.34 2.67 76.67"/><circle class="cls-1" cx="97.79" cy="1.66" r="1.66"/><circle class="cls-1" cx="103.92" cy="1.66" r="1.66"/><circle class="cls-1" cx="110.05" cy="1.66" r="1.66"/><circle class="cls-1" cx="1.66" cy="80.75" r="1.66"/><circle class="cls-1" cx="1.66" cy="86.88" r="1.66"/><circle class="cls-1" cx="1.66" cy="93.01" r="1.66"/><polygon class="cls-1" points="346.55 244.3 276.45 244.3 276.45 242.3 345.74 242.3 355.81 232.66 365.45 222.62 365.45 168.3 367.45 168.3 367.45 223.42 357.23 234.07 346.55 244.3"/><circle class="cls-1" cx="270.32" cy="243.3" r="1.66"/><circle class="cls-1" cx="264.2" cy="243.3" r="1.66"/><circle class="cls-1" cx="258.07" cy="243.3" r="1.66"/><circle class="cls-1" cx="366.45" cy="164.21" r="1.66"/><circle class="cls-1" cx="366.45" cy="158.08" r="1.66"/><circle class="cls-1" cx="366.45" cy="151.95" r="1.66"/></svg>