<svg id="图层_1" data-name="图层 1" xmlns="http://www.w3.org/2000/svg" viewBox="0 0 372.86 250.56"><defs><style>.cls-1{fill:#009be9;}</style></defs><title>画板 10</title><polygon class="cls-1" points="349.01 247.62 278.92 247.62 278.92 245.62 348.21 245.62 358.28 235.98 367.92 225.94 367.92 171.62 369.92 171.62 369.92 226.74 359.69 237.39 349.01 247.62"/><polygon class="cls-1" points="368.92 152.95 372.86 159.78 364.98 159.78 368.92 152.95"/><polygon class="cls-1" points="368.92 141.04 372.86 147.87 364.98 147.87 368.92 141.04"/><polygon class="cls-1" points="368.92 129.13 372.86 135.96 364.98 135.96 368.92 129.13"/><polygon class="cls-1" points="258.3 246.62 265.13 242.68 265.13 250.56 258.3 246.62"/><polygon class="cls-1" points="246.39 246.62 253.22 242.68 253.22 250.56 246.39 246.62"/><polygon class="cls-1" points="234.48 246.62 241.31 242.68 241.31 250.56 234.48 246.62"/><polygon class="cls-1" points="4.94 78.94 2.94 78.94 2.94 23.82 13.16 13.16 23.84 2.94 93.94 2.94 93.94 4.94 24.65 4.94 14.58 14.58 4.94 24.62 4.94 78.94"/><polygon class="cls-1" points="3.94 97.61 0 90.78 7.88 90.78 3.94 97.61"/><polygon class="cls-1" points="3.94 109.52 0 102.69 7.88 102.69 3.94 109.52"/><polygon class="cls-1" points="3.94 121.43 0 114.6 7.88 114.6 3.94 121.43"/><polygon class="cls-1" points="114.56 3.94 107.73 7.88 107.73 0 114.56 3.94"/><polygon class="cls-1" points="126.47 3.94 119.64 7.88 119.64 0 126.47 3.94"/><polygon class="cls-1" points="138.37 3.94 131.55 7.88 131.55 0 138.37 3.94"/></svg>