<svg id="图层_1" data-name="图层 1" xmlns="http://www.w3.org/2000/svg" viewBox="0 0 380.61 258.13"><defs><style>.cls-1{fill:#009be9;}</style></defs><title>画板 11</title><polygon class="cls-1" points="352.83 251.29 282.74 251.29 282.74 249.29 352.03 249.29 362.1 239.65 371.74 229.61 371.74 175.29 373.74 175.29 373.74 230.41 363.51 241.06 352.83 251.29"/><path class="cls-1" d="M372.77,164.17a7.84,7.84,0,1,1,7.84-7.84A7.85,7.85,0,0,1,372.77,164.17Zm0-13.68a5.84,5.84,0,1,0,5.84,5.84A5.85,5.85,0,0,0,372.77,150.49Z"/><path class="cls-1" d="M275.9,258.13a7.84,7.84,0,1,1,7.84-7.84A7.85,7.85,0,0,1,275.9,258.13Zm0-13.68a5.84,5.84,0,1,0,5.84,5.84A5.85,5.85,0,0,0,275.9,244.45Z"/><rect class="cls-1" x="371.77" y="163.17" width="2" height="42.78"/><polygon class="cls-1" points="8.87 82.84 6.87 82.84 6.87 27.71 17.1 17.06 27.78 6.84 97.87 6.84 97.87 8.84 28.58 8.84 18.51 18.48 8.87 28.52 8.87 82.84"/><path class="cls-1" d="M7.84,109.64a7.84,7.84,0,1,1,7.84-7.84A7.85,7.85,0,0,1,7.84,109.64ZM7.84,96a5.84,5.84,0,1,0,5.84,5.84A5.85,5.85,0,0,0,7.84,96Z"/><path class="cls-1" d="M104.71,15.68a7.84,7.84,0,1,1,7.84-7.84A7.85,7.85,0,0,1,104.71,15.68Zm0-13.68a5.84,5.84,0,1,0,5.84,5.84A5.85,5.85,0,0,0,104.71,2Z"/><rect class="cls-1" x="6.84" y="52.18" width="2" height="42.78"/></svg>