<svg id="图层_1" data-name="图层 1" xmlns="http://www.w3.org/2000/svg" viewBox="0 0 370.84 249.51"><defs><style>.cls-1{fill:#009be9;}</style></defs><title>画板 12</title><polygon class="cls-1" points="4.17 78.94 2.17 78.94 2.17 23.82 12.39 13.16 23.07 2.94 93.17 2.94 93.17 4.94 23.88 4.94 13.81 14.58 4.17 24.62 4.17 78.94"/><polygon class="cls-1" points="348.05 246.57 277.96 246.57 277.96 244.57 347.25 244.57 357.32 234.93 366.96 224.89 366.96 170.57 368.96 170.57 368.96 225.7 358.73 236.35 348.05 246.57"/><circle class="cls-1" cx="367.67" cy="162.73" r="3.17"/><circle class="cls-1" cx="367.67" cy="151.06" r="3.17"/><circle class="cls-1" cx="367.67" cy="139.4" r="3.17"/><circle class="cls-1" cx="3.17" cy="110.11" r="3.17"/><circle class="cls-1" cx="3.17" cy="98.45" r="3.17"/><circle class="cls-1" cx="3.17" cy="86.78" r="3.17"/><polygon class="cls-1" points="368.96 131.56 366.96 131.56 366.96 4.94 135.51 4.94 135.51 2.94 368.96 2.94 368.96 131.56"/><polygon class="cls-1" points="235.62 246.57 2.17 246.57 2.17 117.95 4.17 117.95 4.17 244.57 235.62 244.57 235.62 246.57"/><polygon class="cls-1" points="107.49 3.94 100.66 7.88 100.66 0 107.49 3.94"/><polygon class="cls-1" points="119.4 3.94 112.57 7.88 112.57 0 119.4 3.94"/><polygon class="cls-1" points="131.31 3.94 124.48 7.88 124.48 0 131.31 3.94"/><polygon class="cls-1" points="249.38 245.57 242.56 249.51 242.56 241.63 249.38 245.57"/><polygon class="cls-1" points="261.29 245.57 254.47 249.51 254.47 241.63 261.29 245.57"/><polygon class="cls-1" points="273.2 245.57 266.38 249.51 266.38 241.63 273.2 245.57"/></svg>