<svg id="图层_1" data-name="图层 1" xmlns="http://www.w3.org/2000/svg" viewBox="0 0 100 100"><defs><style>.cls-1{fill:#009be9;}</style></defs><title>decoration04</title><path class="cls-1" d="M50,3.15c5,9.38,9.59,18.08,14.43,26.61a7.49,7.49,0,0,0,4.42,3.31c9.4,2.09,18.87,3.84,29.14,5.87-1.91,2.13-3.39,3.81-4.9,5.46C88,50,82.73,55.56,77.76,61.33a7.49,7.49,0,0,0-1.62,5C76.9,74.53,78,82.7,79,90.87c.21,1.73.34,3.47.57,5.94-8.48-4.06-16.46-7.6-24.16-11.69-3.85-2.06-6.94-2-10.78,0-7.7,4.08-15.68,7.62-24.25,11.72,1.08-9.07,1.73-17.41,3.17-25.6.94-5.33.11-9.25-3.89-13.12C13.61,52.31,8.21,45.81,2,39c7.94-1.6,15.15-3.61,22.49-4.37C31.61,33.9,36,30.92,38.92,24.08,41.88,17.07,46,10.58,50,3.15Z"/></svg>