<svg id="图层_1" data-name="图层 1" xmlns="http://www.w3.org/2000/svg" viewBox="0 0 100 100"><defs><style>.cls-1{fill:#009be9;}</style></defs><title>decoration05</title><path class="cls-1" d="M2,38.91c9.87-1.92,18.92-3.75,28-5.43a8,8,0,0,0,6.4-4.65c4.28-8.53,9-16.84,13.78-25.78C55,12.07,59.71,20.41,64,29a7.59,7.59,0,0,0,6,4.5C79.21,35.1,88.31,37,98,38.83c-.93,1.22-1.57,2.19-2.33,3-5.5,6.06-10.88,12.23-16.6,18.06a8.93,8.93,0,0,0-2.71,8.41c1.14,7.62,2,15.28,2.91,22.93.2,1.62.3,3.25.52,5.66-5.62-2.67-10.68-5.1-15.75-7.49-4.64-2.17-9.3-6-13.94-6s-9.29,3.85-13.93,6c-5,2.35-10,4.72-15.68,7.45.76-6.67,1.43-12.61,2.11-18.54a24.61,24.61,0,0,1,.65-4.9c2.48-7.4-.32-12.66-5.65-17.65S7.5,45,2,38.91ZM50.22,21.55c-2.88,5.36-5.65,10-7.84,14.81-1.55,3.44-3.94,4.75-7.34,5.3-5.08.82-10.1,2-15.8,3.08C23.67,49.61,27.4,54,31.4,58a6.58,6.58,0,0,1,1.9,6.27C32.45,70,31.83,75.68,31,82.1c5.66-2.69,10.79-5,15.76-7.57a6.45,6.45,0,0,1,6.76-.06c5,2.62,10.12,4.88,15.79,7.57-.68-6-1-11.19-2-16.28a8.86,8.86,0,0,1,2.84-9.08c3.75-3.59,7.09-7.64,11-12C74.63,43.39,68.94,42.4,63.34,41a7.4,7.4,0,0,1-4.18-3.07C56.08,32.78,53.37,27.4,50.22,21.55Z"/></svg>