<svg id="图层_1" data-name="图层 1" xmlns="http://www.w3.org/2000/svg" viewBox="0 0 100 100"><defs><style>.cls-1{fill:#009be9;}</style></defs><title>decoration06</title><path class="cls-1" d="M50.06,92.55c-7.13,0-14.26-.1-21.39,0a4.79,4.79,0,0,1-4.87-2.79c-7-12.39-14.28-24.66-21.21-37.1a6.55,6.55,0,0,1,0-5.43C9.53,34.84,16.77,22.57,23.8,10.18A4.86,4.86,0,0,1,28.68,7.4c14.26.1,28.52,0,42.77.16a6.12,6.12,0,0,1,4.42,2.54q11,18.52,21.58,37.35a6.14,6.14,0,0,1,0,5.1Q86.91,71.38,75.87,89.9a6.24,6.24,0,0,1-4.43,2.53C64.32,92.69,57.19,92.55,50.06,92.55Z"/></svg>