<svg id="图层_1" data-name="图层 1" xmlns="http://www.w3.org/2000/svg" viewBox="0 0 100 100"><defs><style>.cls-1{fill:#009be9;}</style></defs><title>decoration07</title><path class="cls-1" d="M50.38,7.63c7,0,13.93.08,20.88,0a4.79,4.79,0,0,1,4.91,2.68C83.23,22.72,90.51,35.06,97.5,47.56a6.11,6.11,0,0,1-.11,5.07C90.47,65,83.26,77.22,76.27,89.56c-1.26,2.23-2.77,2.87-5.22,2.85-13.93-.11-27.85-.13-41.77,0-2.75,0-4.11-1-5.41-3.25Q13.61,71,3,53c-1.24-2.12-1.41-3.72-.11-5.93Q13.61,29,24,10.61c1.34-2.38,2.91-3.1,5.53-3C36.46,7.74,43.42,7.63,50.38,7.63Zm-.21,69.24v.4c4.37,0,8.76.2,13.1-.11a5.93,5.93,0,0,0,4.07-2.38c4.49-7.34,8.81-14.77,12.9-22.33a6.21,6.21,0,0,0-.11-5.08q-6-11.16-12.71-22a6.16,6.16,0,0,0-4.35-2.56q-12.9-.37-25.81,0a6.22,6.22,0,0,0-4.35,2.56c-4,6.49-7.54,13.3-11.64,19.75-2.15,3.39-2.71,6.12-.09,9.52,2.06,2.68,3.44,5.88,5.17,8.82C29,68,30.62,74.22,34.53,76.37,38.6,78.61,44.86,76.87,50.17,76.87Z"/></svg>