<svg id="图层_1" data-name="图层 1" xmlns="http://www.w3.org/2000/svg" viewBox="0 0 100 100"><defs><style>.cls-1{fill:#009be9;}</style></defs><title>decoration08</title><path class="cls-1" d="M50.23,25.83c.87-1.45,1.71-3,2.65-4.43,5.89-9.13,15.66-13.91,24.9-12.22,9.73,1.78,17.14,9.87,19.4,20.76C99.83,42.73,96.1,53,85.42,60.56c-4.15,2.95-8.48,5.65-12.74,8.46-8.93,5.92-16.68,13-22.6,22.49C43.33,79.69,32.84,72.23,21.55,65.65c-2.2-1.28-4.28-2.78-6.36-4.25C.52,51-.9,36.16,6,21.86,13.35,6.48,31.79,3.94,43.39,16.48,46,19.28,47.94,22.66,50.23,25.83Z"/></svg>