<svg id="图层_1" data-name="图层 1" xmlns="http://www.w3.org/2000/svg" viewBox="0 0 100 100"><defs><style>.cls-1{fill:#009be9;}</style></defs><title>decoration10</title><path class="cls-1" d="M49.83,77.41c-2.75,0-5.51-.08-8.26,0-2.91.11-4.56-1.36-4.64-4.07-.39-11.8-5.41-22-10.47-32.3C19.78,27.5,24.59,12,37.47,5.16a26.45,26.45,0,0,1,31,4.3A26.88,26.88,0,0,1,74,40.27c-2.29,5-5,9.83-6.79,15A97.75,97.75,0,0,0,63.3,72c-.58,3.91-2,5.73-6,5.41C54.8,77.25,52.31,77.41,49.83,77.41Z"/><path class="cls-1" d="M49.9,78.81c3,0,6.05,0,9.07,0,2.44,0,3.38,1,2.76,3.69a14.52,14.52,0,0,0-.06,6.81c.75,2.7-.2,3.82-2.52,3.87-6,.16-12.1.14-18.15,0-2.23,0-3.47-1-2.77-3.74a13.9,13.9,0,0,0,.09-6.81c-.84-3,.39-3.8,2.92-3.85C44.12,78.76,47,78.81,49.9,78.81Z"/><path class="cls-1" d="M57.65,93.85c-5.11,5.61-11.25,5.45-14.81,0Z"/></svg>