<svg id="图层_1" data-name="图层 1" xmlns="http://www.w3.org/2000/svg" viewBox="0 0 100 100"><defs><style>.cls-1{fill:#009be9;}</style></defs><title>decoration11</title><path class="cls-1" d="M57.34,40.15c-5.08-2.44-9.92-3.35-14.85.08L25.91,11.62c12.88-9.73,33.44-9.76,46.66,0-2.45,4.62-4.93,9.29-7.42,14S60.14,34.91,57.34,40.15Z"/><path class="cls-1" d="M34.5,54.62c.75,5,1.49,10.14,7.36,12.68-6,9.6-11.75,18.83-17.48,28C10.88,90.77.26,71.34,2.24,54.62Z"/><path class="cls-1" d="M65.26,54.4H97.18c3.82,13.52-6.1,32.74-21.53,41.29L58,67.42C63.49,64.73,64.71,59.88,65.26,54.4Z"/><path class="cls-1" d="M42,53.69a7.9,7.9,0,1,1,15.78.4A7.89,7.89,0,1,1,42,53.69Z"/></svg>