<svg id="图层_1" data-name="图层 1" xmlns="http://www.w3.org/2000/svg" viewBox="0 0 100 100"><defs><style>.cls-1{fill:#009be9;}</style></defs><title>decoration16</title><path class="cls-1" d="M15.24,74.6C4.64,71-.3,60.45,7.39,49.54c-6.38-11-4.25-18.25,7-24.3a3.13,3.13,0,0,0,1.43-2.32C15.69,13.54,25.92,5.18,36.48,9.46c11.54-10.19,19-10,27,.82C75,6.41,85.11,12.36,85.38,26.11c11.41,5.34,13.69,12.4,7.91,24a4.08,4.08,0,0,0,.38,3.13c4.75,9.08,1.72,17.65-7.63,21.9a5.19,5.19,0,0,0-2.43,3.38C81.78,88.63,74.4,93.55,64.27,91.35a4.15,4.15,0,0,0-3.31,1c-7.63,7.76-16.07,7.56-23.66-.62a3.63,3.63,0,0,0-2.58-1.13C22,92,16.29,87.42,15.24,74.6Zm4.32-25C15.12,57.84,16.22,62.05,23.9,67a4.57,4.57,0,0,1,1.49,2.83c1.3,6.91,5.45,10,12.56,9.44a5.29,5.29,0,0,1,3.65,1.29c4.89,4.73,10.8,4.87,15.77.37A5,5,0,0,1,61,79.75c6.74,1,11.51-2.2,13.13-8.81a5.58,5.58,0,0,1,2.51-3.29c5.72-3,7.78-8.68,5.26-14.59a5.57,5.57,0,0,1,0-4.17c3-6,1.41-11.73-4.45-15.09-.89-.52-2-1.43-2.17-2.33-1.86-9.34-5.83-12-15.36-9.95C53.61,14,48.92,13.67,41.64,19.87a4.41,4.41,0,0,1-3.11.44C32,19.35,26.87,23,25.8,29.55a4.29,4.29,0,0,1-1.48,2.78C16.44,37.08,15.19,41.43,19.56,49.58Z"/></svg>