<svg id="图层_1" data-name="图层 1" xmlns="http://www.w3.org/2000/svg" viewBox="0 0 100 100"><defs><style>.cls-1{fill:#009be9;}</style></defs><title>decoration17</title><path class="cls-1" d="M40,12.8C40.93,5.53,44.51,1.88,50.19,2s9,3.67,9.72,9.92C62,10.48,64.08,8.1,66.56,7.58A12.61,12.61,0,0,1,74.65,9c4.76,2.67,5.41,7.72,2.51,13.9,6.81-3,12.19-1.65,14.82,3.78,2.55,5.27.57,10.11-4.92,13.26,2.2.75,5.49,1,7.36,2.76A12.56,12.56,0,0,1,98,50.43c.36,5.78-4.19,9.28-10.46,9.26,1.6,2.14,4.22,4.26,4.85,6.87a12.37,12.37,0,0,1-1.45,8.38c-2.8,4.78-7.92,5.25-13.15,2.46.24,2.63,1.15,5.82.58,8.72-.41,2.07-2.48,4.26-4.39,5.52-4.79,3.17-9.84,1.47-13.51-3.72-1,2.25-1.6,5.28-3.41,7a12.16,12.16,0,0,1-7.21,3c-5.57.4-8.75-3.26-9.95-10.44-4.25,5.78-9.67,7.19-14.61,3.79-4.64-3.2-5.44-8.43-2.3-13.76-2.55.45-5.53,1.82-7.95,1.17a12.86,12.86,0,0,1-6.79-5.2c-3-4.79-1-9.62,4-13-2.47-1.24-5.79-2.16-8-4.27C2.72,54.7,1.94,51.58,2,49.19c.16-5.84,4.81-9.08,11.11-8.65-1.71-1.86-4.47-3.62-5.23-6A12.72,12.72,0,0,1,8.53,26c2.42-5.2,7.85-6.1,14.29-3.09-3-6.59-1.92-11.57,3.09-14.49C30.73,5.61,35.68,7,40,12.8Z"/></svg>