<svg id="图层_1" data-name="图层 1" xmlns="http://www.w3.org/2000/svg" viewBox="0 0 100 100"><defs><style>.cls-1{fill:#009be9;}</style></defs><title>decoration18</title><path class="cls-1" d="M49.89,59.26c-2.48,4.35-4.91,8.3-7,12.44a5.2,5.2,0,0,0,.2,4,54.56,54.56,0,0,0,4.67,8.17c2,2.88.76,5.41-1.36,6.65s-5,1.33-6.48-2a67.07,67.07,0,0,0-3.42-5.91c-1.6,2.76-3.11,5-4.24,7.38a4.1,4.1,0,0,1-6.18,1.89c-2.06-1.24-3.72-3.62-1.65-6.58C25.91,83.27,27,80.93,28.73,78c-2.78,0-4.9-.17-7,0-3.56.36-4.9-2.21-4.86-4.65,0-2.19,1.32-4.88,4.72-4.42a8.07,8.07,0,0,0,1.63,0c3.64-.19,8.51,1,10.62-.9,3.53-3.17,5.31-8.32,8.28-13.43-5.62,0-10.35-.11-15.06.1-.93,0-2.06,1.16-2.65,2.07a49.27,49.27,0,0,0-4.27,7.45c-1.45,3.34-3.86,4.17-6.9,3-2.52-1-2.75-4.39-.88-7.7.79-1.39,1.54-2.81,2.72-5-3.23,0-5.77-.13-8.29,0C3.28,54.83,2,52.32,2,49.82c0-2.28,1.42-4.7,4.76-4.43,2.53.2,5.08,0,8.38,0a63,63,0,0,0-3.38-6c-2.09-2.88-.59-5.35,1.52-6.58s5.11-1.11,6.4,2.14a6.77,6.77,0,0,0,.59,1.09c2,3,3.39,7.88,6.08,8.74,4.53,1.46,9.87.4,15.72.4-2.79-4.84-5.13-9.09-7.71-13.2-.42-.67-1.87-.91-2.86-.95a89.72,89.72,0,0,0-9.84,0c-3.4.27-4.7-2.21-4.76-4.41-.06-2.43,1.23-5,4.8-4.7,2,.2,4.09,0,6.87,0-1.51-2.75-2.6-5.19-4.1-7.36-2-2.94-.52-5.36,1.59-6.6s5-1,6.39,2.17a79.14,79.14,0,0,0,4.08,7.08,60.16,60.16,0,0,0,3.38-5.88c1.43-3.3,4.39-3.2,6.47-2s3.69,4,1.35,6.58C41.14,23.34,42,30.46,48,37.57a29.32,29.32,0,0,1,2,3.17c2.61-4.51,5.13-8.66,7.38-13,.44-.83.06-2.37-.43-3.33a81.69,81.69,0,0,0-4.88-8.53c-2-2.94-.51-5.38,1.63-6.56,1.89-1,4.81-1.25,6.21,1.87.83,1.86,2,3.55,3.41,6,1.59-2.63,3.13-4.76,4.25-7.1,1.51-3.18,4.25-3.33,6.44-2s3.47,3.78,1.38,6.66A77.42,77.42,0,0,0,71.32,22c2.88,0,5,.16,7.14,0,3.39-.32,4.65,2.22,4.64,4.46S82,31.4,78.6,31.06a5.61,5.61,0,0,0-.82,0c-13.32.17-13.87.56-19.32,14.25,5.18,0,10.13.08,15.07-.08.68,0,1.48-1.08,2-1.83,1.37-2.2,2.6-4.49,3.89-6.74,2.25-3.92,5.33-5.62,7.54-3.83,3,2.42,2.7,5.28.44,8.19a35.23,35.23,0,0,0-2.43,4.41c3.24,0,5.87.12,8.48,0C96.74,45.2,98,47.69,98,50s-1.22,4.79-4.55,4.62c-2.57-.13-5.14,0-8.64,0a57.12,57.12,0,0,0,3.34,5.79A4.3,4.3,0,0,1,86.9,67c-2.39,1.47-5.48,1.2-6.65-2.26-3-8.91-9.16-12-18.14-10.22a39.74,39.74,0,0,1-4.13.27c2.74,4.74,5.15,9.09,7.8,13.28.4.64,1.92.76,2.93.8a84.75,84.75,0,0,0,9.43,0c3.55-.31,5,2.17,5,4.6s-1.48,5-5,4.52a59.19,59.19,0,0,0-6.76,0c1.56,2.79,2.81,5,4,7.21,1.37,2.47.7,6.27-1.53,7-2.59.79-5.06.65-6.41-2.55a65.23,65.23,0,0,0-4-6.86c-1.3,2.22-2.29,3.93-3.3,5.64-1.44,2.42-5.11,3.83-6.74,2.24-1.88-1.83-3.39-4.25-1-6.78,6.7-7.21,5.37-14.2-.31-21.2C51.32,61.68,50.76,60.61,49.89,59.26Z"/></svg>