<svg id="图层_1" data-name="图层 1" xmlns="http://www.w3.org/2000/svg" viewBox="0 0 100 100"><defs><style>.cls-1{fill:#009be9;}</style></defs><title>decoration19</title><path class="cls-1" d="M50.79,81.28C40.41,75,33.61,67,31.27,56.17a39.78,39.78,0,0,1,.09-15.26C34.13,26,42.29,13.76,51.78,2c0,11.92,6.39,21.19,12.29,30.46,11.3,17.75,2.84,37.55-8,47.1a8.25,8.25,0,0,0-1.92,3.81C53,87.12,52.32,91,51,94.67a6.79,6.79,0,0,1-3.64,3.25c-.92.37-2.4-.61-3.63-1,.39-.94.76-1.9,1.18-2.82C46.86,89.79,48.86,85.47,50.79,81.28Z"/></svg>