<svg id="图层_1" data-name="图层 1" xmlns="http://www.w3.org/2000/svg" viewBox="0 0 100 100"><defs><style>.cls-1{fill:#009be9;}</style></defs><title>decoration20</title><path class="cls-1" d="M51.34,73.12c-1.69,7.32-3.08,14.32-5,21.18-1.1,4-3.07,4.54-7.84,2.66,5.79-6.75,7-14.87,7.49-23.44-3.8-.36-7.49-.46-11.09-1.08C21.66,70.18,12.79,62.06,6.77,50.49a5.11,5.11,0,0,1,.5-4.35c4.87-7,11.9-9.85,20.3-9.61,1.5,0,3,.19,5.12.34C31.79,22,37.75,10.45,49.73,2c11.19,6.78,16,16,17.78,34.76,3.06,0,6.2-.21,9.29.05C83,37.33,88,40.35,91.92,45.12c1.78,2.14,2.19,3.94.65,6.6-8.34,14.33-20.36,22-37.22,21.41C54,73.08,52.63,73.12,51.34,73.12Z"/></svg>