<svg id="图层_1" data-name="图层 1" xmlns="http://www.w3.org/2000/svg" viewBox="0 0 100 100"><defs><style>.cls-1{fill:#009be9;}</style></defs><title>decoration21</title><path class="cls-1" d="M47.49,2a13.52,13.52,0,0,1,1.06,12.48,52.2,52.2,0,0,0-2,5c-1.09,3.81.22,6,4.07,7.23,11.85,3.71,15.44,14.55,8.07,24.74-2.43,3.37-5.38,6.37-7.78,9.76-3.54,5-2.72,9.65,2.82,12,6.84,2.9,9.32,7.29,7.87,14.74A56.09,56.09,0,0,0,66,81.17c1.46-3.11.07-5.6-2.61-7.5-2.85-2-5.3-4.61-4.5-8.27.54-2.46,2.23-4.73,3.71-6.87.65-.94,2.09-1.3,3.11-2C71.29,52.61,72,49.3,69.49,43c-1.3-3.36-1.69-7.11-2.18-10.73-.14-1,.81-2.16,1.64-3.27-.5,6.68,3.28,10.68,8,14.18A25.33,25.33,0,0,1,81.32,47c3.89,4.53,3.18,10-1.61,13.57-4.45,3.29-6.18,9.72-2.76,14,4.58,5.64,2.06,15.14-4.88,17.81A81.46,81.46,0,0,1,51,97.82c-8.57.82-17.12-1.23-25.08-4.82-4.48-2-8.24-5-8.62-10.29-.16-2.22.05-5,1.27-6.68,3.71-5.12,2.53-10,.05-14.86-3.79-7.5-3.23-12.65,2.7-18.35,3.89-3.75,6.63-7.82,5.8-13.59l1.42-.05c.32,3,.79,6.06.87,9.1,0,1.31-.75,2.64-1.18,4-2.3,7.11-1.46,9.94,4.31,14.49,6.82,5.37,6.93,11.06.33,16.72-4.33,3.7-4.31,6.35.37,11.9a15.48,15.48,0,0,0,.67-2.27,31.24,31.24,0,0,1,7.69-17.19,45.29,45.29,0,0,0,6.33-8.7c2.56-5,.9-9.24-4-11.89-.48-.27-1-.48-1.5-.72C32.83,40,31,36.48,34.7,26.55c1.84-5,5.17-9.4,7.69-14.15C44.22,9,45.83,5.41,47.49,2Z"/></svg>