<svg id="图层_1" data-name="图层 1" xmlns="http://www.w3.org/2000/svg" viewBox="0 0 100 100"><defs><style>.cls-1{fill:#009be9;}</style></defs><title>decoration22</title><path class="cls-1" d="M49,43.33c6.8,7.19,13,13.88,19.45,20.43A5.37,5.37,0,0,0,72,64.94a96.91,96.91,0,0,0,11.3-.64c3.79-.48,6.83.09,8.87,3.71a38.56,38.56,0,0,0,3.6,4.54l-18.17,5,4.72,6.64-1.13,1.35L74,81.07,66.11,98c-2.2-3.47-4.45-6.36-5.91-9.6-.64-1.41-.1-3.78.68-5.32,3.56-7,2-12.3-4.06-17.38-5.42-4.53-9.9-10.19-15-15.58l-20,44.22c-6-2.71-6.82-4.42-6-10.78,2.33-17.22,4.61-34.44,6.74-51.69a6.46,6.46,0,0,0-1.48-4.24c-4-5.08-8.36-9.89-12.28-15C6.59,9.75,2.28,5.87,5.17,3s6.65,1.51,9.35,3.79c5.14,4.35,9.85,9.2,15,13.6a8.5,8.5,0,0,0,5.24,2Q59,21.89,83.23,20.94C89,20.71,91,26,95.15,28.85Z"/></svg>